<svg width="85" height="84" viewBox="0 0 85 84" fill="none" xmlns="http://www.w3.org/2000/svg">
<g filter="url(#filter0_d_806_5410)">
<rect x="6" y="2" width="73" height="72" rx="10" fill="#EFF6FF"/>
<g clip-path="url(#clip0_806_5410)">
<path d="M54.8894 23.4717H31.1106C30.7772 23.4717 30.5068 23.7358 30.5068 24.0615V51.4606C30.5068 51.7864 30.7772 52.0505 31.1106 52.0505H54.8894C55.2228 52.0505 55.4931 51.7864 55.4931 51.4606V24.0615C55.4931 23.7358 55.2228 23.4717 54.8894 23.4717Z" fill="white"/>
<path d="M29 23.472V53.5228C29 53.9137 29.1586 54.2887 29.441 54.5655C29.7235 54.8424 30.1067 54.9986 30.5068 55H55.4932C55.6915 55 55.8878 54.9618 56.071 54.8875C56.2542 54.8132 56.4205 54.7043 56.5605 54.567C56.7005 54.4298 56.8114 54.2669 56.8868 54.0877C56.9622 53.9086 57.0007 53.7166 57 53.5228V23.472C57 23.0816 56.8412 22.7072 56.5587 22.4311C56.2761 22.1551 55.8928 22 55.4932 22H30.5068C30.1076 22.0014 29.7252 22.1569 29.4429 22.4326C29.1606 22.7084 29.0014 23.082 29 23.472ZM30.5068 51.461V24.0516C30.5108 23.8991 30.5746 23.7539 30.685 23.6461C30.7954 23.5382 30.944 23.4759 31.1001 23.472H54.8894C55.0477 23.472 55.1997 23.5327 55.3126 23.6411C55.4256 23.7495 55.4904 23.897 55.4932 24.0516V51.461C55.4939 51.5386 55.4787 51.6156 55.4486 51.6875C55.4185 51.7594 55.3741 51.8247 55.3179 51.8796C55.2617 51.9345 55.1948 51.9779 55.1213 52.0073C55.0477 52.0367 54.9689 52.0515 54.8894 52.0508H31.1001C30.9418 52.0481 30.7909 51.9848 30.68 51.8745C30.569 51.7642 30.5068 51.6157 30.5068 51.461Z" fill="#333333"/>
<path d="M45.3027 54.0664H40.7034C40.5433 54.0664 40.3897 54.0043 40.2765 53.8937C40.1632 53.783 40.0996 53.633 40.0996 53.4766C40.0989 53.3989 40.1141 53.3219 40.1442 53.25C40.1743 53.1782 40.2187 53.1129 40.2749 53.058C40.3311 53.0031 40.398 52.9596 40.4715 52.9302C40.5451 52.9008 40.6239 52.8861 40.7034 52.8867H45.3027C45.3818 52.8867 45.46 52.902 45.533 52.9317C45.6059 52.9614 45.6722 53.005 45.7278 53.0598C45.7835 53.1146 45.8274 53.1797 45.8572 53.2512C45.887 53.3228 45.9019 53.3994 45.9012 53.4766C45.9013 53.6321 45.8384 53.7814 45.7263 53.8918C45.6142 54.0023 45.4619 54.0651 45.3027 54.0664Z" fill="#A6A6A6"/>
<path d="M55.4931 23.4717H30.5068V26.0259H55.4931V23.4717Z" fill="#7E7E7E"/>
<path d="M55.4936 23.4717H52.8789V26.0259H55.4936V23.4717Z" fill="white"/>
<path d="M33.7725 26.0264H30.5068V29.2166H33.7725V26.0264Z" fill="white"/>
<path d="M33.7725 29.2168H30.5068V32.407H33.7725V29.2168Z" fill="#7E7E7E"/>
<path d="M33.7725 32.4121H30.5068V35.6023H33.7725V32.4121Z" fill="white"/>
<path d="M33.7725 35.6025H30.5068V38.7928H33.7725V35.6025Z" fill="#7E7E7E"/>
<path d="M33.7725 38.792H30.5068V41.9822H33.7725V38.792Z" fill="white"/>
<path d="M33.7725 41.9873H30.5068V45.1775H33.7725V41.9873Z" fill="#7E7E7E"/>
<path d="M53.5929 23.8418C53.5929 23.8418 54.1179 24.4265 54.1967 24.5291C54.2807 24.4214 54.7952 23.8418 54.7952 23.8418H55.2783L54.5012 24.724L55.3203 25.6575H54.7952C54.7952 25.6575 54.2702 25.042 54.1652 24.9343C54.0812 25.042 53.5457 25.6575 53.5457 25.6575H53.0469L53.8869 24.7342L53.0941 23.8418H53.5929Z" fill="#113855"/>
<path d="M44.7042 31.4941C43.7252 31.494 42.7567 31.6906 41.8589 32.0718C40.961 32.453 40.1531 33.0106 39.4854 33.7099L44.7042 38.8389V31.4941Z" fill="#FBC343"/>
<path d="M44.4885 31.4941C45.4674 31.494 46.4359 31.6906 47.3338 32.0718C48.2316 32.453 49.0395 33.0106 49.7073 33.7099L44.4885 38.8389V31.4941Z" fill="#FF0084"/>
<path d="M39.4846 33.709C38.237 35.0022 37.5421 36.7122 37.542 38.4892C37.542 38.5969 37.542 38.7046 37.542 38.8123H44.7034L39.4846 33.709Z" fill="#0964D7"/>
<path d="M49.7078 33.709C50.9554 35.0022 51.6503 36.7122 51.6504 38.4892C51.6504 38.5969 51.6504 38.7046 51.6504 38.8123H44.4889L49.7078 33.709Z" fill="#0964D7"/>
<path d="M37.5586 38.8125C37.6406 40.6323 38.4492 42.3484 39.811 43.5927L44.7043 38.8125H37.5586Z" fill="#2CED91"/>
<path d="M51.6338 38.8125C51.5517 40.6323 50.7432 42.3484 49.3814 43.5927L44.4881 38.8125H51.6338Z" fill="#2CED91"/>
<path d="M39.8105 43.5932C41.1338 44.8129 42.8845 45.4919 44.7039 45.4909V38.8232L39.8105 43.5932Z" fill="#FFAFD9"/>
<path d="M49.3817 43.5932C48.0585 44.8129 46.3077 45.4919 44.4884 45.4909V38.8232L49.3817 43.5932Z" fill="#FBC343"/>
<path d="M38.9913 41.3467L36.2822 41.5775L36.9227 42.2032L36.0879 43.0187L37.2797 44.183L38.1145 43.3675L38.7551 43.9932L38.9913 41.3467Z" fill="#333333"/>
</g>
<path d="M61.7989 49.5298L55.1673 45.5523C55.5743 44.2355 55.4984 42.8089 54.9544 41.5466C54.4104 40.2844 53.4366 39.2755 52.2201 38.7138C51.0036 38.1521 49.6302 38.0772 48.3638 38.5036C47.0973 38.93 46.0273 39.8275 45.3591 41.0237C44.691 42.2199 44.4719 43.6304 44.744 44.9843C45.016 46.3381 45.7601 47.5397 46.8331 48.3582C47.9062 49.1768 49.2326 49.5545 50.5574 49.4188C51.8822 49.2831 53.1121 48.6436 54.0106 47.6232L60.6461 51.6006C60.9081 51.7284 61.2066 51.7495 61.4828 51.6598C61.759 51.57 61.9928 51.376 62.1381 51.116C62.2833 50.8559 62.3295 50.5488 62.2674 50.2551C62.2053 49.9615 62.0396 49.7027 61.8028 49.5298H61.7989ZM47.8918 47.6712C47.168 47.2325 46.5856 46.5808 46.218 45.7984C45.8504 45.0161 45.7142 44.1381 45.8265 43.2754C45.9388 42.4127 46.2945 41.6038 46.8489 40.951C47.4033 40.2981 48.1314 39.8305 48.9413 39.6072C49.7513 39.3838 50.6068 39.4148 51.3998 39.6961C52.1929 39.9774 52.8879 40.4964 53.3973 41.1878C53.9066 41.8791 54.2074 42.7117 54.2616 43.5804C54.3159 44.4492 54.1212 45.3151 53.7022 46.069C53.4229 46.5716 53.0507 47.0118 52.6072 47.3646C52.1636 47.7173 51.6573 47.9755 51.1174 48.1243C50.5775 48.2732 50.0147 48.3098 49.4611 48.2321C48.9076 48.1543 48.3743 47.9637 47.8918 47.6712Z" fill="#333333"/>
</g>
<defs>
<filter id="filter0_d_806_5410" x="0" y="0" width="85" height="84" filterUnits="userSpaceOnUse" color-interpolation-filters="sRGB">
<feFlood flood-opacity="0" result="BackgroundImageFix"/>
<feColorMatrix in="SourceAlpha" type="matrix" values="0 0 0 0 0 0 0 0 0 0 0 0 0 0 0 0 0 0 127 0" result="hardAlpha"/>
<feOffset dy="4"/>
<feGaussianBlur stdDeviation="3"/>
<feComposite in2="hardAlpha" operator="out"/>
<feColorMatrix type="matrix" values="0 0 0 0 0 0 0 0 0 0 0 0 0 0 0 0 0 0 0.07 0"/>
<feBlend mode="normal" in2="BackgroundImageFix" result="effect1_dropShadow_806_5410"/>
<feBlend mode="normal" in="SourceGraphic" in2="effect1_dropShadow_806_5410" result="shape"/>
</filter>
<clipPath id="clip0_806_5410">
<rect width="28" height="33" fill="white" transform="translate(29 22)"/>
</clipPath>
</defs>
</svg>
