<svg width="547" height="547" viewBox="0 0 547 547" fill="none" xmlns="http://www.w3.org/2000/svg">
<path d="M21.9715 184.383C23.4428 151.263 32.8114 119.208 53.5354 89.6869C131.489 -21.3631 326.217 -19.0054 433.824 43.16C466.142 61.8209 493.909 90.502 504.975 126.005C513.916 154.686 511.514 185.437 511.288 215.472C511.023 249.333 518.116 274.427 531.747 304.776C542.663 329.068 544.901 357.962 540.399 383.972C530.628 440.394 489.08 486.131 439.269 512.128C360.12 553.45 234.682 554.253 138.293 530.776C89.5761 518.913 43.0854 494.784 19.4942 460.735C0.719317 433.647 -2.12269 402.621 3.96374 374.027C8.85551 351.04 20.3367 330.473 29.9442 308.789C37.6403 291.408 34.4462 276.308 29.8939 257.434C23.9836 232.892 20.9152 208.362 21.9715 184.396V184.383Z" fill="url(#paint0_linear_806_5708)" fill-opacity="0.1"/>
<path d="M451.77 382.793C451.77 382.793 435.321 360.972 440.414 330.184C453.467 337.319 476.568 367.418 470.444 394.832L451.77 382.793Z" fill="#517A46"/>
<g style="mix-blend-mode:multiply" opacity="0.45">
<path d="M449.594 337.495C452.851 369.061 470.783 392.123 470.783 392.123C470.846 392.048 470.909 391.973 470.972 391.898C474.065 371.092 461.314 349.296 449.594 337.495Z" fill="#394C77"/>
</g>
<path d="M490.199 388.913C490.199 388.913 511.275 372.886 520.644 341.571C530.012 310.256 521.31 294.731 525.322 268.796C503.919 304.914 479.045 364.734 479.108 393.867C482.516 395.647 490.199 388.9 490.199 388.9V388.913Z" fill="#517A46"/>
<g style="mix-blend-mode:multiply" opacity="0.45">
<path d="M482.654 392.124C488.803 385.164 495.82 357.624 499.178 321.506C489.03 345.697 481.12 370.24 479.447 387.471C481.384 390.481 482.666 392.124 482.666 392.124H482.654Z" fill="#394C77"/>
</g>
<path d="M477.159 392.124C477.159 392.124 451.078 358.602 456.083 317.091C461.1 275.568 491.645 243.326 490.199 209.641C503.919 289.815 488.954 378.78 477.159 392.136V392.124Z" fill="#8AB57C"/>
<path d="M475.562 386.242C475.562 386.242 490.087 302.431 486.528 273.022C483.183 306.933 471.136 383.42 471.136 383.42L475.575 386.242H475.562Z" fill="#133F1A"/>
<g style="mix-blend-mode:multiply" opacity="0.45">
<path d="M451.769 382.793L470.443 394.832C470.657 393.854 470.833 392.876 470.984 391.897C471.16 390.668 471.286 389.439 471.361 388.198C471.361 388.072 471.374 387.96 471.386 387.834C471.449 386.58 471.475 385.326 471.437 384.072C471.437 383.909 471.424 383.758 471.412 383.595L471.663 383.758C474.807 389.101 477.159 392.123 477.159 392.123C477.875 391.321 478.592 390.229 479.321 388.888C479.183 390.631 479.095 392.299 479.108 393.866C482.516 395.647 490.199 388.9 490.199 388.9C490.199 388.9 500.083 381.376 509.313 366.59C491.243 374.892 460.194 374.152 446.387 373.324C449.179 379.357 451.756 382.78 451.756 382.78L451.769 382.793Z" fill="#394C77"/>
</g>
<path d="M473.5 378.178H439.81L452.185 424.178H473.5H494.802L507.176 378.178H473.5Z" fill="#C4300F"/>
<path d="M494.815 424.179H452.185V430.035H494.815V424.179Z" fill="#701400"/>
<g style="mix-blend-mode:multiply" opacity="0.55">
<path d="M466.42 430.047V424.178L458.837 378.178H439.81L452.185 424.178V430.047H466.42Z" fill="#491908"/>
</g>
<path d="M452.185 424.179H494.802" stroke="#280508" stroke-width="1.33" stroke-miterlimit="10"/>
<path d="M341.912 101.563C338.378 35.8982 274.156 37.3404 274.156 37.3404C274.156 37.3404 209.934 35.8982 206.401 101.563C202.867 167.227 205.042 212.011 205.042 212.011C205.042 212.011 212.512 210.769 225.012 209.54L226.005 183.793L229.124 209.151C241.008 208.085 256.563 207.12 274.169 207.12C291.762 207.12 307.33 208.073 319.213 209.151L322.332 183.793L323.325 209.54C335.813 210.769 343.295 212.011 343.295 212.011C343.295 212.011 345.47 167.239 341.937 101.563H341.912Z" fill="#5B0C08"/>
<path d="M269.441 190.565C269.441 190.565 247.497 153.87 237.198 104.81C227.012 56.2894 237.676 46.9214 237.915 46.7207C222.673 55.1608 208.048 71.1755 206.414 101.55C202.88 167.214 205.055 211.998 205.055 211.998C205.055 211.998 212.525 210.756 225.025 209.527L226.018 183.781L229.137 209.138C238.921 208.26 251.232 207.458 265.102 207.207L269.466 190.565H269.441Z" fill="#420705"/>
<g style="mix-blend-mode:overlay" opacity="0.26">
<path d="M336.266 200.886L329.438 178.451L323.314 209.54C335.801 210.769 343.283 212.01 343.283 212.01C343.283 212.01 345.459 167.239 341.925 101.562C340.994 84.2933 335.864 71.6645 328.809 62.4219C328.859 62.5347 340.24 91.8931 338.429 145.242C336.618 198.34 336.279 200.874 336.279 200.874L336.266 200.886Z" fill="#FFF6E7"/>
</g>
<path d="M274.181 480.876L346.112 448.307L327.815 352.218C327.815 352.218 328.532 350.011 337.863 333.695C354.864 304.676 330.921 230.17 330.921 230.17L274.169 242.836L217.417 230.17C217.417 230.17 193.473 304.676 210.475 333.695C219.806 350.011 220.523 352.218 220.523 352.218L202.226 448.307L274.156 480.876H274.169H274.181Z" fill="#FBC343"/>
<path d="M202.226 222.582C202.226 222.582 180.094 233.919 161.268 271.805C142.443 309.692 94.8207 362.263 90.9349 378.504C87.0492 394.744 97.5746 424.566 145.21 427.877C138.57 405.793 147.423 380.234 167.355 376.723L159.596 368.233C159.596 368.233 202.239 305.829 208.878 300.863C213.833 249.106 221.667 227.461 221.667 227.461C221.667 227.461 209.935 219.961 202.213 222.582H202.226Z" fill="#FBC343"/>
<path d="M159.608 368.233L167.367 376.724C147.436 380.235 138.57 405.793 145.222 427.878C139.312 427.464 133.98 426.649 129.164 425.495C121.908 374.679 159.621 368.233 159.621 368.233H159.608Z" fill="#BF963B"/>
<path d="M143.134 415.989C141.814 416.29 140.531 416.34 139.261 416.34C137.991 416.315 136.734 416.202 135.501 416.014C134.256 415.826 133.036 415.537 131.817 415.174C130.609 414.785 129.402 414.346 128.245 413.644C129.566 413.343 130.848 413.28 132.118 413.292C133.389 413.318 134.646 413.43 135.878 413.619C137.123 413.819 138.343 414.095 139.563 414.459C140.77 414.848 141.977 415.287 143.134 415.989Z" fill="#956E14"/>
<path d="M144.053 402.908C142.72 402.996 141.463 402.845 140.23 402.632C138.998 402.406 137.803 402.093 136.621 401.704C135.452 401.315 134.295 400.839 133.188 400.287C132.082 399.71 130.987 399.083 129.969 398.205C131.302 398.117 132.559 398.268 133.792 398.481C135.024 398.707 136.219 399.02 137.401 399.409C138.57 399.798 139.715 400.274 140.834 400.839C141.941 401.416 143.035 402.043 144.053 402.921V402.908Z" fill="#956E14"/>
<path d="M137.011 383.031C138.18 383.182 139.211 383.533 140.217 383.947C141.211 384.373 142.154 384.862 143.059 385.439C143.965 386.003 144.82 386.643 145.612 387.37C146.404 388.098 147.171 388.888 147.8 389.891C146.631 389.753 145.587 389.39 144.594 388.988C143.6 388.562 142.657 388.073 141.752 387.496C140.859 386.919 140.004 386.279 139.199 385.565C138.407 384.825 137.639 384.047 137.011 383.056V383.031Z" fill="#956E14"/>
<path d="M148.957 372.435C150.013 372.798 150.881 373.338 151.699 373.914C152.516 374.504 153.258 375.156 153.95 375.871C154.641 376.586 155.257 377.351 155.823 378.191C156.364 379.031 156.867 379.921 157.194 380.987C156.138 380.624 155.27 380.097 154.453 379.508C153.635 378.918 152.893 378.266 152.214 377.551C151.535 376.836 150.906 376.071 150.34 375.231C149.8 374.391 149.297 373.501 148.97 372.435H148.957Z" fill="#956E14"/>
<path d="M159.608 368.233C155.396 365.699 151.548 362.878 147.637 360.169C145.675 358.814 143.738 357.435 141.764 356.118C139.777 354.801 137.778 353.522 135.678 352.218C138.117 352.569 140.469 353.434 142.695 354.463C144.921 355.516 147.021 356.783 149.033 358.175C151.032 359.567 152.918 361.134 154.704 362.79C156.477 364.458 158.175 366.226 159.608 368.233Z" fill="#956E14"/>
<path d="M144.103 346.224C145.247 347.114 146.127 348.205 146.92 349.334C147.699 350.475 148.378 351.679 148.944 352.933C150.038 355.441 150.856 358.1 150.818 360.972C149.887 359.856 149.196 358.689 148.529 357.51C147.875 356.332 147.272 355.14 146.731 353.924C145.649 351.478 144.681 349.02 144.115 346.224H144.103Z" fill="#956E14"/>
<path d="M114.752 386.455C114.752 396.701 109.307 405.692 101.159 410.696C91.023 400.262 88.8349 387.37 90.9475 378.504C91.8655 374.666 95.2357 368.797 100.077 361.586C108.83 366.439 114.765 375.757 114.765 386.455H114.752Z" fill="#BF6422"/>
<path d="M167.367 376.723C167.367 376.723 206.237 398.469 221.692 407.586C237.147 416.703 259.745 445.284 265.479 453.561C270.798 461.851 267.881 465.161 267.881 465.161C267.881 465.161 273.628 473.037 268.673 472.611C263.731 472.197 259.569 469.3 259.569 469.3C259.569 469.3 258.739 473.024 248.767 469.3C240.869 470.541 232.155 463.092 223.842 453.561C215.53 444.03 213.958 437.408 200.628 434.511C187.299 431.614 145.209 427.89 145.209 427.89C145.209 427.89 129.151 386.141 167.354 376.735L167.367 376.723Z" fill="#BF6422"/>
<path d="M267.881 465.162C266.347 464.071 265.001 462.842 263.719 461.55C262.436 460.258 261.229 458.917 260.084 457.512C258.94 456.107 257.871 454.653 256.865 453.135C255.859 451.618 254.928 450.05 254.174 448.332C255.708 449.423 257.054 450.652 258.336 451.944C259.619 453.236 260.839 454.577 261.971 455.982C263.115 457.387 264.184 458.841 265.19 460.359C266.196 461.876 267.126 463.444 267.881 465.162Z" fill="#732D10"/>
<path d="M259.569 469.3C258.035 468.447 256.664 467.419 255.356 466.328C254.049 465.249 252.804 464.095 251.634 462.892C250.452 461.688 249.345 460.408 248.289 459.079C247.245 457.75 246.252 456.358 245.435 454.79C246.969 455.643 248.339 456.671 249.647 457.75C250.955 458.841 252.2 459.982 253.37 461.186C254.552 462.39 255.658 463.669 256.702 464.998C257.746 466.328 258.739 467.72 259.557 469.275L259.569 469.3Z" fill="#732D10"/>
<path d="M248.767 469.3C247.359 468.711 246.114 467.933 244.906 467.106C243.712 466.266 242.58 465.363 241.511 464.397C240.442 463.431 239.424 462.403 238.468 461.299C237.525 460.196 236.619 459.042 235.89 457.688C237.298 458.277 238.543 459.054 239.751 459.882C240.945 460.722 242.077 461.625 243.146 462.591C244.215 463.557 245.233 464.585 246.189 465.689C247.132 466.805 248.038 467.946 248.767 469.288V469.3Z" fill="#732D10"/>
<path opacity="0.24" d="M216.322 374.302L220.523 352.23C220.523 352.23 219.806 350.023 210.475 333.707C209.595 332.202 208.828 330.56 208.149 328.816C208.149 328.816 228.998 349.471 251.584 355.541C271.39 360.871 227.439 371.719 216.322 374.302Z" fill="#A83B0C"/>
<path d="M346.112 222.582C346.112 222.582 368.245 233.919 387.07 271.805C405.895 309.692 453.517 362.263 457.403 378.504C461.276 394.744 450.763 424.566 403.128 427.877C409.768 405.793 400.915 380.234 380.983 376.723L388.73 368.233C388.73 368.233 346.087 305.829 339.447 300.863C334.493 249.106 326.658 227.461 326.658 227.461C326.658 227.461 338.391 219.961 346.112 222.582Z" fill="#FBC343"/>
<path d="M289.938 207.307V183.479L274.156 187.33L258.375 183.479V207.307C258.375 207.307 239.725 217.754 213.82 222.983C242.316 240.754 274.156 242.836 274.156 242.836C274.156 242.836 305.997 240.741 334.493 222.983C308.588 217.754 289.938 207.307 289.938 207.307Z" fill="#BF6422"/>
<path d="M289.284 187.632L289.951 186.779V183.48L274.169 187.331L258.387 183.48V198.254C280.532 200.687 289.297 187.632 289.297 187.632H289.284Z" fill="#612F0A"/>
<path d="M202.226 222.582C213.229 230.709 241.737 249.106 274.169 249.106V237.958C274.169 237.958 244.403 237.958 214.373 217.93C211.531 219.083 208.878 220.074 206.438 220.914C205.005 221.404 203.609 221.968 202.238 222.57L202.226 222.582Z" fill="#F9ECE4"/>
<path d="M346.112 222.582C335.109 230.709 306.601 249.106 274.169 249.106V237.958C274.169 237.958 303.935 237.958 333.964 217.93C336.806 219.083 339.46 220.074 341.899 220.914C343.333 221.404 344.729 221.968 346.1 222.57L346.112 222.582Z" fill="#F9ECE4"/>
<path d="M388.73 368.233L380.983 376.724C400.915 380.235 409.781 405.793 403.128 427.878C409.039 427.464 414.371 426.649 419.187 425.495C426.443 374.679 388.73 368.233 388.73 368.233Z" fill="#BF963B"/>
<path d="M405.216 415.988C406.373 415.299 407.58 414.847 408.787 414.458C410.007 414.082 411.227 413.806 412.472 413.618C413.717 413.417 414.962 413.305 416.232 413.292C417.502 413.292 418.785 413.342 420.105 413.643C418.948 414.345 417.741 414.784 416.534 415.173C415.314 415.549 414.094 415.825 412.849 416.013C411.604 416.202 410.347 416.327 409.089 416.339C407.819 416.339 406.536 416.289 405.216 415.988Z" fill="#956E14"/>
<path d="M404.298 402.909C405.316 402.044 406.398 401.404 407.517 400.827C408.636 400.263 409.781 399.799 410.95 399.397C412.12 399.009 413.327 398.695 414.547 398.469C415.779 398.256 417.037 398.106 418.37 398.193C417.364 399.071 416.27 399.698 415.15 400.275C414.031 400.84 412.887 401.304 411.717 401.692C410.548 402.081 409.341 402.395 408.108 402.62C406.876 402.834 405.618 402.984 404.285 402.896L404.298 402.909Z" fill="#956E14"/>
<path d="M411.34 383.031C410.712 384.022 409.945 384.812 409.152 385.539C408.348 386.254 407.492 386.906 406.6 387.47C405.707 388.047 404.751 388.549 403.758 388.963C402.752 389.377 401.72 389.728 400.551 389.866C401.18 388.862 401.934 388.085 402.739 387.345C403.544 386.63 404.399 385.978 405.292 385.414C406.197 384.849 407.14 384.348 408.134 383.921C409.14 383.52 410.171 383.156 411.34 383.006V383.031Z" fill="#956E14"/>
<path d="M399.381 372.434C399.066 373.5 398.551 374.377 398.01 375.23C397.457 376.07 396.828 376.835 396.136 377.55C395.457 378.265 394.703 378.917 393.898 379.507C393.068 380.084 392.2 380.623 391.156 380.986C391.471 379.92 391.974 379.03 392.527 378.19C393.08 377.35 393.709 376.585 394.401 375.87C395.092 375.155 395.834 374.503 396.652 373.913C397.482 373.337 398.349 372.797 399.393 372.434H399.381Z" fill="#956E14"/>
<path d="M388.73 368.233C390.163 366.226 391.861 364.458 393.634 362.79C395.42 361.134 397.306 359.579 399.306 358.175C401.305 356.783 403.418 355.516 405.643 354.463C407.869 353.422 410.208 352.569 412.66 352.218C410.56 353.522 408.573 354.801 406.587 356.118C404.6 357.435 402.676 358.827 400.714 360.169C396.79 362.89 392.942 365.699 388.742 368.233H388.73Z" fill="#956E14"/>
<path d="M404.235 346.224C403.657 349.02 402.689 351.478 401.62 353.924C401.079 355.14 400.475 356.332 399.821 357.51C399.142 358.689 398.451 359.856 397.533 360.972C397.495 358.1 398.3 355.441 399.406 352.933C399.972 351.679 400.639 350.475 401.431 349.334C402.236 348.205 403.103 347.114 404.248 346.224H404.235Z" fill="#956E14"/>
<path d="M433.586 386.455C433.586 396.701 439.031 405.692 447.18 410.696C457.315 400.262 459.504 387.37 457.391 378.504C456.473 374.666 453.103 368.797 448.261 361.586C439.509 366.439 433.573 375.757 433.573 386.455H433.586Z" fill="#CC9C2E"/>
<path d="M380.971 376.723C380.971 376.723 342.101 398.469 326.646 407.586C311.191 416.703 288.593 445.284 282.859 453.561C277.539 461.851 280.457 465.161 280.457 465.161C280.457 465.161 274.71 473.037 279.664 472.611C284.606 472.197 288.769 469.3 288.769 469.3C288.769 469.3 289.599 473.024 299.571 469.3C307.468 470.541 316.183 463.092 324.495 453.561C332.807 444.03 334.379 437.408 347.709 434.511C361.039 431.614 403.128 427.89 403.128 427.89C403.128 427.89 419.187 386.141 380.983 376.735L380.971 376.723Z" fill="#BF6422"/>
<path d="M280.469 465.162C281.223 463.444 282.154 461.876 283.16 460.359C284.166 458.841 285.235 457.374 286.379 455.982C287.511 454.577 288.731 453.236 290.014 451.944C291.296 450.652 292.642 449.411 294.176 448.332C293.421 450.05 292.491 451.618 291.485 453.135C290.479 454.653 289.41 456.12 288.266 457.512C287.121 458.917 285.914 460.258 284.631 461.55C283.349 462.842 282.003 464.083 280.469 465.162Z" fill="#732D10"/>
<path d="M288.769 469.3C289.586 467.745 290.567 466.353 291.623 465.024C292.667 463.694 293.786 462.415 294.956 461.211C296.125 459.995 297.37 458.854 298.678 457.775C299.986 456.697 301.344 455.668 302.891 454.815C302.073 456.371 301.092 457.763 300.036 459.104C298.98 460.434 297.873 461.713 296.691 462.917C295.521 464.121 294.277 465.275 292.969 466.353C291.661 467.432 290.303 468.46 288.756 469.325L288.769 469.3Z" fill="#732D10"/>
<path d="M299.571 469.301C300.301 467.959 301.206 466.805 302.149 465.701C303.105 464.598 304.124 463.569 305.193 462.604C306.261 461.638 307.393 460.735 308.588 459.895C309.795 459.067 311.027 458.29 312.448 457.7C311.719 459.042 310.814 460.196 309.871 461.312C308.915 462.416 307.896 463.444 306.827 464.41C305.758 465.375 304.627 466.278 303.432 467.118C302.225 467.946 300.992 468.724 299.571 469.313V469.301Z" fill="#732D10"/>
<path opacity="0.24" d="M332.015 374.302L327.815 352.23C327.815 352.23 328.532 350.023 337.862 333.707C338.743 332.202 339.51 330.56 340.189 328.816C340.189 328.816 319.339 349.471 296.754 355.541C276.948 360.871 320.898 371.719 332.015 374.302Z" fill="#A83B0C"/>
<path d="M274.156 245.633V480.888" stroke="#F9ECE4" stroke-width="2" stroke-miterlimit="10"/>
<path d="M268.233 271.166C268.233 273.512 266.322 275.418 263.97 275.418C261.619 275.418 259.707 273.512 259.707 271.166C259.707 268.821 261.619 266.915 263.97 266.915C266.322 266.915 268.233 268.821 268.233 271.166Z" fill="#F9ECE4"/>
<path d="M268.233 304.362C268.233 306.707 266.322 308.613 263.97 308.613C261.619 308.613 259.707 306.707 259.707 304.362C259.707 302.017 261.619 300.11 263.97 300.11C266.322 300.11 268.233 302.017 268.233 304.362Z" fill="#F9ECE4"/>
<path d="M268.233 337.558C268.233 339.903 266.322 341.809 263.97 341.809C261.619 341.809 259.707 339.903 259.707 337.558C259.707 335.213 261.619 333.307 263.97 333.307C266.322 333.307 268.233 335.213 268.233 337.558Z" fill="#F9ECE4"/>
<path d="M268.233 370.753C268.233 373.099 266.322 375.005 263.97 375.005C261.619 375.005 259.707 373.099 259.707 370.753C259.707 368.408 261.619 366.502 263.97 366.502C266.322 366.502 268.233 368.408 268.233 370.753Z" fill="#F9ECE4"/>
<path d="M268.233 403.95C268.233 406.295 266.322 408.201 263.97 408.201C261.619 408.201 259.707 406.295 259.707 403.95C259.707 401.604 261.619 399.698 263.97 399.698C266.322 399.698 268.233 401.604 268.233 403.95Z" fill="#F9ECE4"/>
<path d="M344.025 297.602C344.025 297.602 341.46 245.319 353.607 244.077C365.743 242.836 344.025 297.602 344.025 297.602Z" fill="#CC9C2E"/>
<path d="M204.313 297.602C204.313 297.602 206.878 245.319 194.731 244.077C182.596 242.836 204.313 297.602 204.313 297.602Z" fill="#CC9C2E"/>
<path d="M274.094 42.7705C274.094 42.7705 348.942 42.7705 324.546 127.422H274.094V42.7705Z" fill="black"/>
<path d="M274.219 42.7705C274.219 42.7705 199.371 42.7705 223.767 127.422H274.219V42.7705Z" fill="black"/>
<path d="M224.849 103.921L228.735 129.605H319.579L323.464 105.363L305.042 72.8066L223.768 88.3574L224.849 103.921Z" fill="#5B0C08"/>
<path d="M334.392 142.371C330.707 152.63 322.835 159.188 316.799 157.031C310.763 154.874 308.852 144.817 312.536 134.558C316.221 124.3 324.093 117.741 330.129 119.898C336.165 122.055 338.077 132.113 334.392 142.371Z" fill="#BF6422"/>
<path d="M321.452 139.938C319.113 146.447 319.037 152.88 320.835 157.257C325.991 156.216 331.499 150.447 334.392 142.371C336.731 135.862 336.806 129.429 335.008 125.052C329.852 126.093 324.344 131.861 321.452 139.925V139.938Z" fill="#AF5231"/>
<path d="M213.921 142.371C217.606 152.63 225.478 159.188 231.514 157.031C237.55 154.874 239.461 144.817 235.777 134.558C232.092 124.3 224.22 117.741 218.184 119.898C212.148 122.055 210.236 132.113 213.921 142.371Z" fill="#BF6422"/>
<path d="M226.861 139.938C229.2 146.447 229.276 152.88 227.477 157.257C222.322 156.216 216.814 150.447 213.921 142.371C211.582 135.862 211.507 129.429 213.305 125.052C218.461 126.093 223.969 131.861 226.861 139.925V139.938Z" fill="#AF5231"/>
<path d="M317.164 90.3511C316.585 71.1007 300.778 55.8008 281.463 55.8008H266.85C247.535 55.8008 231.728 71.1007 231.149 90.3511C230.684 106.052 231.074 125.729 233.878 146.409C240.405 194.416 274.144 193.927 274.144 193.927C274.144 193.927 307.883 194.416 314.41 146.409C317.227 125.729 317.617 106.052 317.139 90.3511H317.164Z" fill="#BF6422"/>
<path d="M284.493 138.47C284.493 138.47 287.574 127.798 299.546 127.434C311.518 127.07 311.694 132.952 311.694 132.952C311.694 132.952 306.249 145.706 284.481 138.47H284.493Z" fill="#FFF6E7"/>
<path d="M290.467 130.369C290.014 131.435 289.75 132.601 289.75 133.83C289.75 136.476 290.945 138.821 292.806 140.426C298.779 141.191 302.992 140.138 305.909 138.608C306.815 137.229 307.343 135.598 307.343 133.83C307.343 131.485 306.4 129.353 304.891 127.785C303.432 127.522 301.684 127.384 299.534 127.447C295.623 127.56 292.668 128.789 290.454 130.381L290.467 130.369Z" fill="#72130A"/>
<path d="M284.493 138.47C284.493 138.47 287.574 127.798 299.546 127.434C311.518 127.07 311.694 132.952 311.694 132.952" stroke="#5B0A06" stroke-width="1.31" stroke-miterlimit="10" stroke-linecap="round"/>
<path d="M263.82 138.47C263.82 138.47 260.739 127.798 248.767 127.434C236.795 127.07 236.619 132.952 236.619 132.952C236.619 132.952 242.064 145.706 263.832 138.47H263.82Z" fill="#FFF6E7"/>
<path d="M257.847 130.369C258.3 131.435 258.564 132.601 258.564 133.83C258.564 136.476 257.369 138.821 255.508 140.426C249.535 141.191 245.322 140.138 242.404 138.608C241.499 137.229 240.971 135.598 240.971 133.83C240.971 131.485 241.914 129.353 243.423 127.785C244.882 127.522 246.63 127.384 248.78 127.447C252.691 127.56 255.646 128.789 257.859 130.381L257.847 130.369Z" fill="#72130A"/>
<path d="M263.82 138.47C263.82 138.47 260.739 127.798 248.767 127.434C236.795 127.07 236.619 132.952 236.619 132.952" stroke="#5B0A06" stroke-width="1.31" stroke-miterlimit="10" stroke-linecap="round"/>
<path d="M287.474 116.963C287.474 116.963 302.401 112.837 310.084 119.81C310.612 114.179 303.709 108.448 288.317 109.514C286.066 112.674 287.487 116.963 287.487 116.963H287.474Z" fill="#72130A"/>
<path d="M260.84 116.963C260.84 116.963 245.913 112.837 238.229 119.81C237.701 114.179 244.605 108.448 259.997 109.514C262.248 112.674 260.827 116.963 260.827 116.963H260.84Z" fill="#72130A"/>
<path d="M277.061 146.798C277.564 148.616 277.828 150.435 278.005 152.253C278.181 154.071 278.281 155.89 278.269 157.708V159.075L278.243 159.451C278.243 159.665 278.193 159.878 278.13 160.079C278.005 160.492 277.753 160.881 277.439 161.157C276.81 161.721 275.879 161.922 275.087 161.646C274.898 161.583 274.697 161.483 274.546 161.395L274.257 161.207L273.704 160.806C272.207 159.74 270.761 158.611 269.441 157.269C271.277 157.733 272.987 158.411 274.647 159.163L275.276 159.439L275.578 159.589C275.578 159.589 275.64 159.602 275.666 159.602C275.741 159.602 275.816 159.539 275.842 159.477C275.842 159.439 275.854 159.426 275.854 159.401V159.364L275.842 159.063V157.696C275.829 155.877 275.917 154.059 276.093 152.24C276.269 150.422 276.533 148.604 277.036 146.785L277.061 146.798Z" fill="#732D10"/>
<path d="M259 166.999C264.432 168.164 269.667 168.622 274.962 168.57C277.603 168.464 282.898 168.04 282.898 168.04C282.898 168.04 285.554 167.687 286.911 167.546C288.269 167.387 291 167.016 291 167.016C291 167.016 286.006 169.893 283.291 170.67C280.605 171.535 277.799 171.888 274.993 171.994C272.186 172.047 269.38 171.658 266.664 170.882C263.964 170.105 261.278 168.94 259 167.016C259 167.016 253.569 165.834 259 166.999Z" fill="#732D10"/>
<path opacity="0.58" d="M260.047 149.732C260.047 152.203 255.96 154.209 250.93 154.209C245.9 154.209 241.813 152.203 241.813 149.732C241.813 147.261 245.9 145.255 250.93 145.255C255.96 145.255 260.047 147.261 260.047 149.732Z" fill="#AF1018"/>
<path opacity="0.58" d="M288.253 149.732C288.253 152.203 292.34 154.209 297.37 154.209C302.4 154.209 306.487 152.203 306.487 149.732C306.487 147.261 302.4 145.255 297.37 145.255C292.34 145.255 288.253 147.261 288.253 149.732Z" fill="#AF1018"/>
<path d="M267.127 173.842C267.127 173.842 277.741 175.196 282.632 173.303C277.464 178.733 269.567 178.457 267.127 173.842Z" fill="#85450A"/>
<path d="M247.534 133.856C247.534 134.909 246.679 135.749 245.635 135.749C244.592 135.749 243.736 134.896 243.736 133.856C243.736 132.815 244.592 131.962 245.635 131.962C246.679 131.962 247.534 132.815 247.534 133.856Z" fill="#FFF6E7"/>
<path d="M296.088 133.856C296.088 134.909 295.233 135.749 294.189 135.749C293.145 135.749 292.29 134.896 292.29 133.856C292.29 132.815 293.145 131.962 294.189 131.962C295.233 131.962 296.088 132.815 296.088 133.856Z" fill="#FFF6E7"/>
<g style="mix-blend-mode:overlay" opacity="0.26">
<path d="M238.204 99.6937C238.204 99.6937 231.954 202.642 293.573 186.991C301.257 181.498 309.179 171.666 313.052 154.059C314.021 155.463 315.278 156.504 316.787 157.043C322.823 159.2 330.708 152.642 334.38 142.383C338.064 132.125 336.153 122.067 330.117 119.91C325.753 118.355 320.421 121.364 316.41 127.033C317.378 113.589 317.466 101.048 317.139 90.3507C316.988 85.372 315.819 80.6691 313.844 76.4177L265.581 70.6865L238.192 99.6812L238.204 99.6937Z" fill="white" fill-opacity="0.7"/>
</g>
<path d="M275.905 51.5366C274.735 51.5993 273.566 51.5993 272.396 51.5366C262.927 51.0726 218.436 51.9379 221.366 109.187C232.596 107.682 243.222 106.729 251.962 106.127C252.993 99.6937 255.382 91.5421 255.382 91.5421L256.325 105.839C267.165 105.187 274.157 105.111 274.157 105.111C274.157 105.111 276.219 105.137 279.816 105.262C280.256 101.763 281.073 95.1414 282.633 82.5879C284.745 93.185 284.469 101.086 284.003 105.425C293.724 105.851 309.619 106.855 326.948 109.187C329.865 51.9379 285.374 51.0726 275.917 51.5366H275.905Z" fill="#72130A"/>
<g style="mix-blend-mode:overlay" opacity="0.26">
<path d="M275.904 51.5366C274.735 51.5993 273.565 51.5993 272.396 51.5366C270.572 51.4488 267.441 51.4112 263.606 51.8125C288.857 56.8038 298.565 101.199 298.565 101.199C298.565 101.199 302.765 90.1626 297.37 74.2607C306.852 80.4058 306.89 100.233 306.613 106.942C312.926 107.507 319.804 108.234 326.935 109.187C329.852 51.9379 285.361 51.0726 275.904 51.5366Z" fill="#FFF6E7"/>
</g>
<path opacity="0.35" d="M280.582 127.723C280.582 127.723 290.039 119.734 313.341 121.026C322.118 124.425 325.878 125.578 324.08 135.147C322.282 144.703 320.383 154.698 304.727 155.514C289.07 156.329 282.343 145.255 280.632 133.592C279.815 129.88 280.569 127.735 280.569 127.735L280.582 127.723Z" fill="#FFF6E7"/>
<path opacity="0.26" d="M313.341 121.026C305.482 120.587 299.194 121.214 294.327 122.23C296.075 132.664 300.98 145.844 314.045 153.369C321.326 149.782 322.735 142.346 324.093 135.147C325.891 125.591 322.131 124.437 313.354 121.026H313.341Z" fill="white"/>
<path opacity="0.35" d="M268.069 127.848C268.069 127.848 258.449 120.048 235.172 121.829C226.458 125.415 222.723 126.644 224.722 136.163C226.722 145.682 228.822 155.639 244.491 156.128C260.159 156.617 266.661 145.406 268.132 133.705C268.862 129.98 268.069 127.848 268.069 127.848Z" fill="#FFF6E7"/>
<path opacity="0.26" d="M257.167 122.845C249.307 122.406 243.007 121.791 238.128 122.807C239.876 133.241 244.768 146.421 257.846 153.946C265.127 150.359 266.535 142.923 267.894 135.724C269.692 126.168 265.944 126.256 257.167 122.845Z" fill="white"/>
<path d="M280.582 124.638C275.992 125.24 274.307 125.152 274.307 125.152C274.307 125.152 272.622 125.265 268.019 124.763C244.755 116.474 217.454 121.628 217.454 121.628L217.542 129.93L222.509 132.602C222.509 132.602 223.792 151.099 233.387 155.225C242.982 159.351 257.029 157.708 261.619 152.354C266.209 146.999 267.152 146.723 270.723 134.834C270.723 134.834 271.855 132.075 274.382 131.674C276.91 132.025 278.105 134.759 278.105 134.759C281.915 146.572 282.871 146.823 287.561 152.09C292.252 157.357 306.336 158.699 315.843 154.385C325.35 150.071 326.255 131.548 326.255 131.548L331.172 128.777L331.084 120.474C331.084 120.474 303.683 115.884 280.595 124.651L280.582 124.638ZM261.832 147.049C257.821 154.573 247.723 156.041 238.153 153.821C228.571 151.601 225.163 138.032 227.804 130.369C230.457 122.719 243.296 123.948 251.91 124.4C260.512 124.851 263.693 128.777 263.693 128.777C266.724 131.598 265.856 139.512 261.832 147.036V147.049ZM311.039 153.081C301.507 155.489 291.397 154.235 287.222 146.785C283.047 139.336 282.016 131.46 284.983 128.563C284.983 128.563 288.077 124.588 296.678 123.948C305.267 123.321 318.094 121.816 320.898 129.416C323.703 137.016 320.571 150.66 311.039 153.068V153.081Z" fill="#411919"/>
<path d="M29.8313 374.24H189.323V370.516H29.8313V374.24Z" fill="#FFF6E7"/>
<path d="M34.8614 377.978H194.353V374.253H34.8614V377.978Z" fill="#FFF6E7"/>
<path d="M29.8313 381.702H189.323V377.977H29.8313V381.702Z" fill="#FFF6E7"/>
<path d="M26.0587 385.439H185.551V381.715H26.0587V385.439Z" fill="#FFF6E7"/>
<path d="M29.8313 389.151H189.323V385.427H29.8313V389.151Z" fill="#FFF6E7"/>
<path d="M31.0891 392.889H190.581V389.164H31.0891V392.889Z" fill="#FFF6E7"/>
<path d="M29.8313 396.613H189.323V392.889H29.8313V396.613Z" fill="#FFF6E7"/>
<path d="M28.5735 400.351H188.066V396.626H28.5735V400.351Z" fill="#FFF6E7"/>
<path d="M29.8313 404.062H189.323V400.338H29.8313V404.062Z" fill="#FFF6E7"/>
<path d="M32.3459 407.8H191.838V404.075H32.3459V407.8Z" fill="#FFF6E7"/>
<path d="M31.0891 411.524H190.581V407.8H31.0891V411.524Z" fill="#FFF6E7"/>
<path d="M29.8313 415.262H189.323V411.537H29.8313V415.262Z" fill="#FFF6E7"/>
<path d="M29.8313 418.986H189.323V415.262H29.8313V418.986Z" fill="#FFF6E7"/>
<path d="M31.0891 422.711H190.581V418.986H31.0891V422.711Z" fill="#FFF6E7"/>
<path d="M29.8313 426.436H189.323V422.711H29.8313V426.436Z" fill="#FFF6E7"/>
<path d="M29.8313 430.173H189.323V426.448H29.8313V430.173Z" fill="#FFF6E7"/>
<path d="M38.1436 374.253C47.2103 373.99 56.2771 373.877 65.3438 373.776L92.5441 373.626L119.744 373.764L133.351 373.939C137.891 374.04 142.418 374.103 146.957 374.241C142.418 374.378 137.891 374.441 133.351 374.554L119.744 374.73L92.5441 374.868L65.3438 374.717C56.2771 374.617 47.2103 374.491 38.1436 374.241V374.253Z" fill="#D6C7B4"/>
<path d="M63.8977 381.702C72.9645 381.439 82.0312 381.326 91.098 381.226L118.298 381.075L145.499 381.213L159.105 381.389C163.645 381.489 168.172 381.552 172.711 381.702C168.172 381.84 163.645 381.903 159.105 382.016L145.499 382.191L118.298 382.329L91.098 382.179C82.0312 382.078 72.9645 381.953 63.8977 381.702Z" fill="#D6C7B4"/>
<path d="M32.3468 400.351C41.4136 400.087 50.4803 399.974 59.5471 399.874L86.7474 399.724L113.948 399.862L127.554 400.037C132.094 400.137 136.621 400.2 141.161 400.351C136.621 400.489 132.094 400.551 127.554 400.664L113.948 400.84L86.7474 400.978L59.5471 400.827C50.4803 400.727 41.4136 400.601 32.3468 400.351Z" fill="#D6C7B4"/>
<path d="M67.6573 409.668C76.7241 409.405 85.7909 409.292 94.8576 409.192L122.058 409.041L149.258 409.179L162.865 409.355C167.404 409.455 171.931 409.518 176.471 409.668C171.931 409.806 167.404 409.869 162.865 409.982L149.258 410.157L122.058 410.295L94.8576 410.145C85.7909 410.044 76.7241 409.919 67.6573 409.668Z" fill="#D6C7B4"/>
<path d="M34.8362 422.711C43.903 422.448 52.9698 422.335 62.0365 422.234L89.2368 422.084L116.437 422.222L130.044 422.398C134.583 422.498 139.11 422.561 143.65 422.711C139.11 422.849 134.583 422.912 130.044 423.025L116.437 423.2L89.2368 423.338L62.0365 423.188C52.9698 423.087 43.903 422.962 34.8362 422.711Z" fill="#D6C7B4"/>
<path d="M53.1832 362.69H68.5628V356.419H53.1832C47.8262 356.419 43.4626 352.068 43.4626 346.725C43.4626 341.383 47.8262 337.031 53.1832 337.031H68.5628V330.761H53.1832C44.3554 330.761 37.1749 337.922 37.1749 346.725C37.1749 355.529 44.3554 362.69 53.1832 362.69Z" fill="#51788E"/>
<path d="M68.5505 356.419H53.8751V362.689H68.5505V356.419Z" fill="#3B6177"/>
<path d="M68.5505 330.748H53.8751V337.019H68.5505V330.748Z" fill="#3B6177"/>
<path d="M58.8543 370.854H100.768V321.581H58.8543L58.8543 370.854Z" fill="#51788E"/>
<path d="M93.474 321.581H100.78V370.854H69.6691C98.1898 361.712 93.4866 321.581 93.4866 321.581H93.474Z" fill="#3B6177"/>
<path d="M498.185 452.935H42.0548V499.048H498.185V452.935Z" fill="#9E3A13"/>
<path d="M273.176 327.601H159.709L189.613 425.671H273.176H356.738L386.642 327.601H273.176Z" fill="#9B9889"/>
<path d="M379.927 320.478H273.176H166.424L159.709 327.601H273.176H386.642L379.927 320.478Z" fill="#FFF6E7"/>
<path d="M276.734 389.54C293.528 389.54 307.141 382.701 307.141 374.265C307.141 365.829 293.528 358.99 276.734 358.99C259.941 358.99 246.327 365.829 246.327 374.265C246.327 382.701 259.941 389.54 276.734 389.54Z" fill="#7C796B"/>
<path d="M357.165 424.73H189.336V432.669H357.165V424.73Z" fill="#7C796B"/>
<path opacity="0.44" d="M357.028 424.73C220.485 428.091 193.197 346.989 188.62 327.601H159.709L189.613 425.671H356.738L357.028 424.73Z" fill="#7C796B"/>
<path d="M535.005 452.934H11.4966C5.19638 452.934 0.0782471 447.83 0.0782471 441.547C0.0782471 435.264 5.19638 430.16 11.4966 430.16H535.005C541.305 430.16 546.423 435.264 546.423 441.547C546.423 447.83 541.305 452.934 535.005 452.934Z" fill="#BD5C36"/>
<path d="M535.005 441.548H11.4966C7.27129 441.548 3.59932 443.843 1.61243 447.241C3.58674 450.64 7.27129 452.935 11.4966 452.935H535.005C539.23 452.935 542.902 450.64 544.889 447.241C542.915 443.843 539.23 441.548 535.005 441.548Z" fill="#9E3A13"/>
<path d="M498.185 452.935H42.0548V468.887H498.185V452.935Z" fill="#602007"/>
<path d="M79.818 311.311C74.3226 306.357 70.9398 298.757 70.877 290.869C70.877 290.38 70.8392 289.878 70.877 289.389L71.0027 287.909C71.0908 286.931 71.1662 285.928 71.4177 284.975C71.6315 284.009 71.8075 283.031 72.0842 282.078L73.0651 279.281C73.3543 278.328 73.8447 277.475 74.2597 276.597L75.5298 274.051C76.2969 272.659 76.9005 271.18 77.3532 269.662C79.1892 263.555 78.5227 256.67 76.6616 249.998C74.7879 243.289 71.8956 236.705 68.538 230.158C71.3297 232.604 73.6687 235.501 75.8442 238.523C77.982 241.583 79.8306 244.869 81.327 248.368C82.7857 251.879 83.8798 255.604 84.3325 259.529C84.8104 263.429 84.5211 267.543 83.3642 271.456C82.748 273.399 81.9558 275.306 80.9246 277.061L79.6796 279.344C79.2898 280.084 78.8245 280.798 78.5479 281.563C77.0892 284.561 76.2592 287.784 75.8065 291.082C74.9765 297.704 76.4352 304.764 79.818 311.285V311.311Z" fill="white"/>
<defs>
<linearGradient id="paint0_linear_806_5708" x1="374.074" y1="534.479" x2="125.578" y2="43.3083" gradientUnits="userSpaceOnUse">
<stop stop-color="#589FF9"/>
<stop offset="1" stop-color="white"/>
</linearGradient>
</defs>
</svg>
