<svg width="85" height="84" viewBox="0 0 85 84" fill="none" xmlns="http://www.w3.org/2000/svg">
<g filter="url(#filter0_d_806_5444)">
<rect x="6" y="2" width="73" height="72" rx="10" fill="#EFF6FF"/>
<g clip-path="url(#clip0_806_5444)">
<path d="M57.6763 22.6328H27.3189C26.9535 22.6328 26.6572 22.9248 26.6572 23.285V44.1486C26.6572 44.5088 26.9535 44.8008 27.3189 44.8008H57.6763C58.0417 44.8008 58.3379 44.5088 58.3379 44.1486V23.285C58.3379 22.9248 58.0417 22.6328 57.6763 22.6328Z" fill="white"/>
<path d="M41.8301 37.4903L55.7356 25.8281L44.6545 33.5664L41.8301 37.4903Z" fill="#00367B"/>
<path d="M58.3598 21H26.668C26.2256 21 25.8014 21.1732 25.4885 21.4815C25.1757 21.7899 25 22.2081 25 22.6441V46.4397C25 46.8758 25.1757 47.2939 25.4885 47.6023C25.8014 47.9106 26.2256 48.0838 26.668 48.0838H58.3598C58.8022 48.0838 59.2264 47.9106 59.5393 47.6023C59.8521 47.2939 60.0278 46.8758 60.0278 46.4397V22.6441C60.0278 22.2081 59.8521 21.7899 59.5393 21.4815C59.2264 21.1732 58.8022 21 58.3598 21ZM26.668 44.1489V23.2908C26.6709 23.1202 26.7409 22.9573 26.8633 22.8366C26.9857 22.716 27.151 22.6469 27.3241 22.6441H57.6759C57.764 22.6419 57.8517 22.657 57.9338 22.6883C58.016 22.7197 58.091 22.7668 58.1546 22.827C58.2182 22.8871 58.269 22.959 58.3043 23.0386C58.3395 23.1182 58.3584 23.2039 58.3598 23.2908V44.1489C58.3598 44.3234 58.2895 44.4906 58.1644 44.614C58.0393 44.7373 57.8696 44.8066 57.6926 44.8066H27.3241C27.149 44.8037 26.9822 44.7331 26.8595 44.6101C26.7367 44.4871 26.668 44.3215 26.668 44.1489Z" fill="#333333"/>
<path d="M52.2772 51.7285H32.7172C32.3334 51.7285 32.0222 52.0352 32.0222 52.4136V54.3152C32.0222 54.6936 32.3334 55.0003 32.7172 55.0003H52.2772C52.661 55.0003 52.9722 54.6936 52.9722 54.3152V52.4136C52.9722 52.0352 52.661 51.7285 52.2772 51.7285Z" fill="#333333"/>
<path d="M42.4968 48.0723H38.0488V51.7276H42.4968V48.0723Z" fill="#808080"/>
<path d="M46.9452 48.0732H42.4972V51.7286H46.9452V48.0732Z" fill="#333333"/>
<path d="M44.8825 45.7051H40.112C39.9401 45.7051 39.8007 45.8425 39.8007 46.012V46.8614C39.8007 47.0309 39.9401 47.1683 40.112 47.1683H44.8825C45.0544 47.1683 45.1938 47.0309 45.1938 46.8614V46.012C45.1938 45.8425 45.0544 45.7051 44.8825 45.7051Z" fill="#808080"/>
<path d="M50.4313 34.8707L44.6545 33.5664L41.8301 37.4903L39.595 32.2566L32.9619 30.7878L55.7355 25.8281L50.4313 34.8707Z" fill="#0964D7"/>
<path d="M32.9619 30.7878L39.595 32.2566L55.7355 25.8281L32.9619 30.7878Z" fill="#6BACFF"/>
<path d="M44.6545 33.5664L50.4313 34.8707L55.7356 25.8281L44.6545 33.5664Z" fill="#6BACFF"/>
<path d="M33.9794 34.3008L28.6974 36.6573L29.3813 38.1425L34.6632 35.786L33.9794 34.3008Z" fill="#FBC343"/>
<path d="M38.4394 35.776L34.0371 38.623L34.946 39.9885L39.3483 37.1414L38.4394 35.776Z" fill="#FBC343"/>
<path d="M44.0871 37.7145L43.52 37.1172L39.9561 40.3835L41.0847 41.5837L44.6542 38.3119L44.0871 37.7145Z" fill="#FBC343"/>
</g>
</g>
<defs>
<filter id="filter0_d_806_5444" x="0" y="0" width="85" height="84" filterUnits="userSpaceOnUse" color-interpolation-filters="sRGB">
<feFlood flood-opacity="0" result="BackgroundImageFix"/>
<feColorMatrix in="SourceAlpha" type="matrix" values="0 0 0 0 0 0 0 0 0 0 0 0 0 0 0 0 0 0 127 0" result="hardAlpha"/>
<feOffset dy="4"/>
<feGaussianBlur stdDeviation="3"/>
<feComposite in2="hardAlpha" operator="out"/>
<feColorMatrix type="matrix" values="0 0 0 0 0 0 0 0 0 0 0 0 0 0 0 0 0 0 0.07 0"/>
<feBlend mode="normal" in2="BackgroundImageFix" result="effect1_dropShadow_806_5444"/>
<feBlend mode="normal" in="SourceGraphic" in2="effect1_dropShadow_806_5444" result="shape"/>
</filter>
<clipPath id="clip0_806_5444">
<rect width="35" height="34" fill="white" transform="translate(25 21)"/>
</clipPath>
</defs>
</svg>
