<svg width="86" height="84" viewBox="0 0 86 84" fill="none" xmlns="http://www.w3.org/2000/svg">
<g filter="url(#filter0_d_806_5465)">
<rect x="6.5" y="2" width="73" height="72" rx="10" fill="#EFF6FF"/>
<g clip-path="url(#clip0_806_5465)">
<path d="M54.174 32.1804C54.1766 30.2273 53.6682 28.3077 52.6994 26.6125C51.7307 24.9174 50.3354 23.5059 48.6524 22.5187C46.9695 21.5315 45.0577 21.003 43.1073 20.9858C41.1569 20.9686 39.2361 21.4633 37.5361 22.4206C35.836 23.378 34.4161 24.7646 33.4176 26.4423C32.4192 28.1201 31.877 30.0305 31.8452 31.9834C31.8134 33.9362 32.293 35.8633 33.2363 37.5728C34.1796 39.2823 35.5536 40.7145 37.2216 41.7269V47.0141H48.7779V41.7269C50.4223 40.7359 51.7832 39.3362 52.7287 37.6637C53.6741 35.9911 54.172 34.1023 54.174 32.1804Z" fill="#0964D7"/>
<path d="M36.1707 47.0137H50.2998V52.0378C50.2998 52.8233 49.9882 53.5767 49.4335 54.1321C48.8788 54.6876 48.1264 54.9996 47.342 54.9996H39.1346C38.3502 54.9996 37.5978 54.6876 37.0432 54.1321C36.4885 53.5767 36.1768 52.8233 36.1768 52.0378V47.0137H36.1707Z" fill="#333333"/>
<path d="M50.8982 32.1805C50.8991 30.739 50.5061 29.3248 49.7618 28.0909C49.0175 26.8571 47.9503 25.8506 46.6757 25.1806C45.4012 24.5106 43.9678 24.2026 42.5309 24.2899C41.0941 24.3772 39.7084 24.8565 38.5241 25.6758C37.3397 26.4952 36.4018 27.6235 35.8119 28.9384C35.2221 30.2533 35.0027 31.7047 35.1776 33.1355C35.3525 34.5663 35.915 35.9219 36.8041 37.0555C37.6933 38.1892 38.8753 39.0576 40.222 39.5667V47.0142H45.7954V39.5667C47.2943 39 48.5854 37.9898 49.497 36.6704C50.4085 35.3509 50.8973 33.7849 50.8982 32.1805Z" fill="white"/>
<path d="M44.5 43.5C44.5 43.7967 44.412 44.0867 44.2472 44.3334C44.0824 44.58 43.8481 44.7723 43.574 44.8858C43.2999 44.9993 42.9983 45.0291 42.7074 44.9712C42.4164 44.9133 42.1491 44.7704 41.9393 44.5607C41.7296 44.3509 41.5867 44.0836 41.5288 43.7926C41.4709 43.5017 41.5006 43.2001 41.6142 42.926C41.7277 42.6519 41.92 42.4176 42.1666 42.2528C42.4133 42.088 42.7033 42 43 42C43.3978 42 43.7794 42.158 44.0607 42.4393C44.342 42.7206 44.5 43.1022 44.5 43.5Z" fill="#333333"/>
<path d="M41.5 27V41C41.6268 40.6611 41.8364 40.3725 42.1029 40.1698C42.3694 39.9671 42.6812 39.8591 43 39.8591C43.3188 39.8591 43.6306 39.9671 43.8971 40.1698C44.1636 40.3725 44.3732 40.6611 44.5 41V27H41.5Z" fill="#333333"/>
<path d="M63.5 30.9316H56.4844V32.7553H63.5V30.9316Z" fill="#333333"/>
<path d="M60.654 22.082L54.6152 25.5977L55.5258 27.166L61.5645 23.6503L60.654 22.082Z" fill="#333333"/>
<path d="M55.7436 36.8292L54.9688 38.4795L61.3177 41.4685L62.0926 39.8181L55.7436 36.8292Z" fill="#333333"/>
<path d="M29.5157 30.9316H22.5V32.7553H29.5157V30.9316Z" fill="#333333"/>
<path d="M25.148 22.0176L24.2374 23.5859L30.2761 27.1016L31.1867 25.5333L25.148 22.0176Z" fill="#333333"/>
<path d="M30.257 36.8265L23.908 39.8154L24.6828 41.4658L31.0318 38.4768L30.257 36.8265Z" fill="#333333"/>
</g>
</g>
<defs>
<filter id="filter0_d_806_5465" x="0.5" y="0" width="85" height="84" filterUnits="userSpaceOnUse" color-interpolation-filters="sRGB">
<feFlood flood-opacity="0" result="BackgroundImageFix"/>
<feColorMatrix in="SourceAlpha" type="matrix" values="0 0 0 0 0 0 0 0 0 0 0 0 0 0 0 0 0 0 127 0" result="hardAlpha"/>
<feOffset dy="4"/>
<feGaussianBlur stdDeviation="3"/>
<feComposite in2="hardAlpha" operator="out"/>
<feColorMatrix type="matrix" values="0 0 0 0 0 0 0 0 0 0 0 0 0 0 0 0 0 0 0.07 0"/>
<feBlend mode="normal" in2="BackgroundImageFix" result="effect1_dropShadow_806_5465"/>
<feBlend mode="normal" in="SourceGraphic" in2="effect1_dropShadow_806_5465" result="shape"/>
</filter>
<clipPath id="clip0_806_5465">
<rect width="41" height="34" fill="white" transform="translate(22.5 21)"/>
</clipPath>
</defs>
</svg>
