<svg width="1440" height="622" viewBox="0 0 1440 622" fill="none" xmlns="http://www.w3.org/2000/svg">
<g clip-path="url(#clip0_806_5484)">
<rect width="1440" height="622" fill="#F3FBFF"/>
<path d="M-242.578 100.421C-205.953 41.5267 -234.164 -23.4182 -224.234 -83.9038C-214.184 -144.572 -165.873 -200.964 -99.8511 -232.305C-33.8294 -263.647 49.9793 -270.265 108.27 -236.072C166.56 -201.88 199.494 -126.915 241.731 -70.8438C283.805 -14.7348 335.387 22.586 320.186 61.8918C305.148 101.159 223.283 142.267 174.436 170.641C125.384 198.909 108.982 214.375 99.6085 254.007C90.1161 293.823 87.4904 357.843 60.8347 383.768C34.0168 409.731 -16.6687 397.559 -54.3525 373.662C-92.1984 349.803 -116.675 314.287 -185.851 294.259C-255.027 274.231 -368.945 269.547 -375.071 240.837C-381.034 212.089 -279.366 159.353 -242.578 100.421Z" fill="url(#paint0_linear_806_5484)" fill-opacity="0.2"/>
</g>
<defs>
<linearGradient id="paint0_linear_806_5484" x1="311.812" y1="255.556" x2="79.5848" y2="121.096" gradientUnits="userSpaceOnUse">
<stop stop-color="#589FF9"/>
<stop offset="1" stop-color="white"/>
</linearGradient>
<clipPath id="clip0_806_5484">
<rect width="1440" height="622" fill="white"/>
</clipPath>
</defs>
</svg>
