<svg width="1440" height="820" viewBox="0 0 1440 820" fill="none" xmlns="http://www.w3.org/2000/svg">
<g clip-path="url(#clip0_806_9311)">
<mask id="mask0_806_9311" style="mask-type:luminance" maskUnits="userSpaceOnUse" x="0" y="-85" width="1440" height="905">
<path d="M1440 -84.2051H0V820H1440V-84.2051Z" fill="white"/>
</mask>
<g mask="url(#mask0_806_9311)">
<path d="M1396.22 231.422C1392.42 231.051 1388.64 230.659 1384.84 230.287C1385.76 226.217 1386.66 222.147 1387.58 218.077C1387.72 217.49 1387.22 217.079 1386.84 217.334C1383.36 219.545 1380.19 222.578 1377.56 226.217C1377.22 226.687 1376.89 227.176 1376.56 227.685C1376.31 228.057 1376.06 228.546 1375.74 228.82C1375.2 229.25 1374.68 228.859 1374.18 228.507C1373.66 228.135 1373.15 227.744 1372.63 227.372L1366.64 222.95C1366.25 222.656 1365.77 223.145 1365.89 223.693C1366.54 226.824 1367.31 229.896 1368.17 232.949C1365.16 235.277 1362.32 237.958 1359.67 240.952C1359.25 241.421 1359.71 242.145 1360.17 242.048C1363.53 241.324 1366.83 240.345 1370.11 239.152C1370.23 239.484 1370.32 239.837 1370.46 240.169C1370.52 240.326 1370.61 240.424 1370.71 240.463C1369.19 245.002 1367.87 249.64 1367.42 254.571C1367.37 255.119 1368.04 255.471 1368.31 255.041C1369.46 253.162 1370.61 251.284 1371.76 249.425C1372.92 247.546 1373.99 245.57 1375.24 243.789C1375.6 243.261 1375.93 243.378 1376.35 243.73C1376.74 244.044 1377.1 244.396 1377.47 244.728C1378.23 245.413 1379 246.118 1379.77 246.803C1381.34 248.211 1382.92 249.64 1384.49 251.049C1384.9 251.421 1385.32 250.814 1385.24 250.305C1384.82 246.724 1384.05 243.241 1383 239.895C1387.81 238.623 1392.42 236.158 1396.49 232.655C1396.93 232.283 1396.74 231.481 1396.22 231.422Z" fill="#FFCB0F"/>
<path d="M69.7537 142.214C70.0801 141.92 70.3873 141.607 70.7137 141.313C71.3473 140.707 72.0001 140.12 72.6337 139.513C73.9585 138.261 75.3025 137.009 76.6273 135.776C76.9537 135.463 76.5889 135.032 76.2433 135.091C73.3057 135.561 70.3681 136.03 67.4305 136.519C66.7969 136.617 65.8945 136.95 65.3953 136.382C64.9345 135.874 64.6273 135.169 64.2817 134.582C63.5137 133.291 62.7265 131.98 61.9585 130.688C61.7857 130.395 61.3057 130.434 61.2289 130.786C60.4417 134.171 59.6545 137.537 58.8481 140.922C58.8481 140.981 58.8481 141.02 58.8481 141.079C55.7953 141.626 52.8385 142.605 50.0545 144.053C49.7281 144.229 49.8433 144.699 50.1505 144.796C51.7057 145.325 53.2609 145.853 54.8161 146.401L57.1585 147.203C57.4273 147.301 58.0609 147.399 58.2529 147.653C58.4449 147.908 58.3105 148.475 58.2913 148.769C57.9841 151.684 56.9665 154.639 58.1569 157.496C58.2913 157.809 58.6945 157.731 58.8481 157.496C61.0753 154.091 63.0913 150.549 64.8769 146.89C68.5441 148.553 72.2305 150.217 75.8977 151.88C76.3009 152.056 76.7041 151.606 76.3777 151.234C75.1681 149.884 73.9777 148.534 72.7681 147.184C72.1921 146.538 71.6161 145.873 71.0209 145.227C70.4641 144.601 69.8305 143.975 69.3121 143.309C68.9473 142.84 69.3697 142.566 69.6961 142.253L69.7537 142.214Z" fill="#FF9786"/>
<path d="M1072.69 740.007C1070.75 738.774 1068.81 737.561 1066.87 736.328C1065.87 735.702 1064.87 735.056 1063.85 734.43C1063.39 734.136 1062.91 733.843 1062.45 733.55L1061.86 733.178C1061.66 733.06 1061.24 732.884 1061.13 732.669C1060.88 732.238 1061.36 731.221 1061.49 730.81L1061.99 729.166L1063.07 725.625L1065.12 718.776C1065.24 718.365 1064.77 717.974 1064.43 718.208C1060.32 721.007 1056.56 724.353 1053.24 728.168C1050.26 726.231 1045.69 722.963 1042.33 722.005C1041.95 721.907 1041.7 722.259 1041.75 722.611C1042.25 725.938 1044.33 730.967 1045.31 734.156C1042.45 736.446 1039.85 739.068 1037.55 741.983C1037.26 742.355 1037.53 742.942 1038.01 742.825C1039.97 742.316 1041.95 741.787 1043.9 741.279C1044.88 741.024 1045.86 740.77 1046.86 740.516C1047.3 740.398 1047.84 740.163 1048.3 740.163C1048.9 740.163 1048.92 740.79 1049.03 741.279C1049.97 745.447 1050.93 749.595 1051.87 753.763C1051.99 754.252 1052.66 754.233 1052.77 753.763L1055.81 741.22C1055.94 740.692 1056.06 740.183 1056.19 739.655C1056.29 739.244 1056.37 738.676 1056.63 738.363C1057 737.952 1057.63 738.167 1058.09 738.246C1058.59 738.344 1059.07 738.441 1059.57 738.52C1061.59 738.892 1063.58 739.283 1065.6 739.655C1067.85 740.085 1070.07 740.496 1072.32 740.927C1072.82 741.024 1073.17 740.32 1072.69 740.007Z" fill="#6EDEEB"/>
<path d="M337.824 333.565C335.885 332.333 333.946 331.119 332.007 329.887C331.008 329.261 330.01 328.615 328.992 327.989C328.531 327.695 328.051 327.402 327.591 327.108L326.995 326.736C326.803 326.619 326.381 326.443 326.266 326.228C326.016 325.797 326.496 324.78 326.631 324.369L327.13 322.725L328.205 319.183L330.259 312.334C330.375 311.924 329.914 311.532 329.568 311.767C325.459 314.565 321.696 317.911 318.375 321.727C315.399 319.79 310.829 316.522 307.469 315.563C307.085 315.465 306.835 315.818 306.893 316.17C307.392 319.496 309.466 324.525 310.445 327.715C307.584 330.004 304.992 332.626 302.688 335.542C302.4 335.914 302.669 336.501 303.149 336.383C305.107 335.874 307.085 335.346 309.043 334.837C310.023 334.583 311.002 334.329 312 334.074C312.442 333.957 312.979 333.722 313.44 333.722C314.035 333.722 314.055 334.348 314.17 334.837C315.111 339.005 316.071 343.154 317.011 347.322C317.127 347.811 317.799 347.791 317.914 347.322L320.947 334.779C321.082 334.25 321.197 333.742 321.331 333.213C321.427 332.802 321.504 332.235 321.773 331.922C322.138 331.511 322.771 331.726 323.232 331.804C323.731 331.902 324.211 332 324.711 332.078C326.727 332.45 328.723 332.841 330.739 333.213C332.986 333.644 335.213 334.055 337.459 334.485C337.959 334.583 338.304 333.879 337.824 333.565Z" fill="#6EDEEB"/>
<path d="M74.0545 613.58C73.5361 611.31 72.9985 609.06 72.4801 606.79C72.2113 605.616 71.9425 604.442 71.6737 603.288C71.5393 602.74 71.4241 602.192 71.2897 601.644C71.2321 601.409 71.1745 601.174 71.1361 600.94C71.0785 600.724 70.9057 600.294 70.9633 600.059C71.0785 599.589 72.1345 599.198 72.5185 599.002L74.0161 598.2L77.2225 596.459L83.4241 593.093C83.7889 592.897 83.7313 592.271 83.3281 592.193C78.4705 591.214 73.4977 590.882 68.5057 591.195C67.7377 587.673 66.4897 584.307 64.7617 581.196C64.5697 580.843 64.1473 580.922 63.9361 581.215C61.9777 583.916 60.2497 586.773 58.7521 589.747C55.1425 589.316 51.4753 589.297 47.8273 589.708C47.3665 589.766 47.1361 590.373 47.5777 590.627C49.3249 591.684 51.0721 592.721 52.8193 593.778C53.7025 594.306 54.5664 594.834 55.4496 595.363C55.8528 595.598 56.3713 595.813 56.7169 596.145C57.1585 596.576 56.7169 597.026 56.4481 597.456C54.2401 601.096 52.0321 604.716 49.8241 608.356C49.5745 608.767 50.0545 609.256 50.4577 609.001L61.3057 602.309C61.7665 602.035 62.2081 601.761 62.6688 601.468C63.0145 601.253 63.4561 600.9 63.8785 600.861C64.4161 600.842 64.7232 601.448 64.9921 601.84C65.2801 602.27 65.5681 602.681 65.8369 603.112C66.9889 604.833 68.16 606.536 69.312 608.258C70.5984 610.175 71.9041 612.074 73.1905 613.991C73.4785 614.422 74.2081 614.167 74.0737 613.6L74.0545 613.58Z" fill="#99EBDA"/>
<path d="M35.6401 -23.3318C37.6777 -25.1394 40.037 -26.5575 42.6181 -27.413C49.1798 -29.5882 60.0185 -28.0634 64.0667 -21.6142C67.0843 -16.8155 65.4491 -6.96869 64.0993 -1.91276C67.6487 -4.79876 72.0961 -6.71083 76.6272 -6.55536C81.1583 -6.39988 85.6873 -3.94047 87.7674 0.146596C90.6956 5.90273 88.322 10.8138 82.5556 13.3092C86.3386 13.3531 89.3761 17.2946 89.1687 21.1434C88.9614 24.9922 86.0926 28.3599 82.6056 29.8748C79.1187 31.3897 75.1322 31.2909 71.4455 30.4387C66.7834 29.3634 62.0551 26.7804 60.2478 22.274C57.2735 29.9614 48.0505 34.5078 40.31 32.1009C32.5696 29.694 27.4753 20.6959 29.3027 12.6496C22.7101 17.9408 11.4624 14.9147 8.36374 7.0055C5.26505 -0.903721 11.3414 -11.0377 19.6896 -11.8668C23.3254 -12.2326 27.6365 -10.4046 28.2476 -6.73566C28.0878 -13.0172 31.018 -19.1997 35.6582 -23.3371L35.6401 -23.3318Z" fill="#77E6AC"/>
<path d="M32.3753 -0.974463C32.6585 -3.46131 34.9851 -4.98093 37.2887 -5.25267C40.4284 -5.61404 42.6062 -1.7353 39.8772 0.492803" stroke="#1B0512" stroke-width="2" stroke-miterlimit="10" stroke-linecap="round"/>
<path d="M66.9543 12.4776C66.8678 10.94 68.2404 9.68823 69.6539 9.14833C71.2051 8.55551 73.2053 8.63661 74.1891 9.98281C75.1527 11.2992 74.7291 13.1517 74.2706 14.7281" stroke="#1B0512" stroke-width="2" stroke-miterlimit="10" stroke-linecap="round"/>
<path d="M50.7974 6.77148C52.0982 7.68854 53.622 8.27293 55.1932 8.45762" stroke="#1B0512" stroke-width="2" stroke-miterlimit="10" stroke-linecap="round"/>
<path d="M85.3649 20.4763C84.9642 20.3329 84.4019 20.5599 84.2941 21.0097C83.9284 22.499 82.9397 23.752 81.6313 24.5113C80.1805 25.3488 78.5094 25.6153 76.8653 25.5475C75.79 25.4975 75.6578 27.2037 76.7414 27.2553C78.6891 27.3441 80.7369 27.0252 82.4439 26.0001C84.0741 25.0217 85.418 23.4601 85.8838 21.5631C85.9915 21.1133 85.822 20.6386 85.3649 20.4763Z" fill="white"/>
<path d="M39.8569 24.9795C38.708 23.2721 38.2963 21.0828 38.6773 18.9959C38.7602 18.5414 38.3176 18.1121 37.9035 18.0881C37.415 18.0504 37.082 18.424 37.0073 18.8799C36.548 21.3961 37.1664 23.9974 38.5776 26.0923C38.8332 26.4699 39.4399 26.4684 39.7642 26.1889C40.1391 25.8664 40.1193 25.367 39.8652 24.981L39.8569 24.9795Z" fill="white"/>
<path d="M43.4524 24.0738C43.4331 23.618 43.4221 23.1637 43.4013 22.7163C43.4212 22.6069 43.3984 22.4983 43.3574 22.3951C43.3345 22.2865 43.2838 22.1902 43.2052 22.1062C43.0728 21.9426 42.832 21.8114 42.6275 21.8085C42.4148 21.8042 42.1831 21.8572 42.0269 22.0111C41.8722 22.1566 41.7203 22.3809 41.7314 22.6004C41.7507 23.0562 41.7617 23.5105 41.7826 23.9579C41.7709 24.0688 41.7855 24.1758 41.8264 24.279C41.8493 24.3876 41.9 24.4839 41.9786 24.568C42.1111 24.7315 42.3519 24.8628 42.5563 24.8656C42.769 24.87 43.0007 24.8169 43.1569 24.663C43.3116 24.5175 43.4636 24.2933 43.4539 24.0654L43.4524 24.0738Z" fill="white"/>
<path d="M49.1443 26.5558C49.1312 26.4403 49.0887 26.3455 49.0199 26.2546C48.9707 26.1499 48.8906 26.0743 48.7924 26.004C48.6079 25.8918 48.3827 25.8156 48.1593 25.8701C48.087 25.8916 48.0231 25.9146 47.9508 25.9361C47.81 26.0059 47.6991 26.0985 47.6152 26.2309C47.3637 26.5325 47.1107 26.8426 46.8593 27.1442C46.7913 27.236 46.7465 27.3409 46.7333 27.4602C46.705 27.568 46.6933 27.6789 46.7245 27.789C46.7376 27.9045 46.78 27.9993 46.8488 28.0902C46.898 28.1949 46.9782 28.2706 47.0764 28.3408C47.2608 28.453 47.486 28.5293 47.7095 28.4747C47.7817 28.4532 47.8457 28.4302 47.9179 28.4087C48.0588 28.3389 48.1696 28.2463 48.2536 28.1139L49.0095 27.2006C49.0775 27.1088 49.1222 27.004 49.1355 26.8846C49.1637 26.7768 49.1754 26.6659 49.1443 26.5558Z" fill="white"/>
<path d="M14.1008 7.30181C13.2284 5.5756 12.3828 3.74992 12.9566 1.77655C13.5259 -0.171578 14.8249 -1.8115 15.6464 -3.64364C16.0947 -4.64849 14.5027 -5.19361 14.0559 -4.19718C13.1495 -2.1806 11.6905 -0.413525 11.2286 1.7892C10.7604 4.02559 11.5909 6.07464 12.5752 8.0302C13.0715 9.00874 14.5903 8.27041 14.094 7.29187L14.1008 7.30181Z" fill="white"/>
<path d="M73.6269 18.2406C72.8805 17.512 71.8091 17.254 70.8209 17.0548C70.2608 16.9431 69.6929 16.8734 69.1189 16.8373C68.5877 16.8004 68.0401 16.7605 67.5283 16.9446C66.997 17.1425 66.6029 17.6177 66.548 18.1989C66.5384 18.3449 66.5469 18.4856 66.5734 18.6209C66.4346 18.9606 66.4414 19.3444 66.6256 19.6913C67.0614 20.4845 67.9934 21.0385 68.8068 21.3534C69.5887 21.6538 70.4457 21.7767 71.2792 21.7474C72.1473 21.7159 73.1794 21.6275 73.8013 20.9333C74.498 20.1573 74.3418 18.9547 73.6254 18.249L73.6269 18.2406Z" fill="#FFBB97"/>
<path d="M36.4397 5.51818C36.3269 4.96703 35.9851 4.54764 35.5897 4.18796C34.9374 3.59842 34.0802 3.33636 33.2315 3.21498C32.7906 3.15125 32.339 3.14641 31.8858 3.14998C31.4228 3.16044 30.9149 3.13654 30.465 3.26244C29.7902 3.4513 29.3339 4.08031 29.4408 4.80427C29.4804 5.05502 29.5726 5.29806 29.7041 5.51353C29.7306 5.64883 29.7669 5.77724 29.8311 5.89339C30.0811 6.34805 30.4943 6.56321 30.9308 6.79133C32.3993 7.53976 34.4217 8.29444 35.8784 7.04955C36.3135 6.67746 36.566 6.0892 36.4495 5.51129L36.4397 5.51818Z" fill="#FFBB97"/>
<path d="M1141.23 8.93883C1143.71 8.29309 1146.2 7.6865 1148.72 7.17773" stroke="#57B4F7" stroke-width="2" stroke-miterlimit="10" stroke-linecap="round"/>
<path d="M1163.83 4.83016C1229.91 -1.95984 1299.05 35.1601 1332 98.2269C1340.06 113.666 1345.06 130.533 1350.37 147.166C1359.26 175.03 1368.27 204.362 1362.85 233.146C1351.78 291.908 1298.38 316.466 1254.18 344.761C1218.03 367.89 1174.21 405.088 1207.24 450.72C1215.17 461.678 1227.23 468.82 1239.69 473.712C1285.59 491.695 1347.23 474.984 1364.54 428.061C1366.75 422.053 1368.21 415.518 1366.98 409.217C1364.45 396.165 1351.05 387.927 1338.09 386.186C1309.98 382.389 1282.54 402.388 1269.97 428.295C1239.44 491.225 1269.47 542.297 1335.71 549.831C1379.08 554.762 1420.65 537.033 1463.12 531.711C1486.85 528.737 1506.14 532.259 1528.93 537.972C1548.98 543.001 1568.06 544.547 1582.29 562.413C1593.35 576.286 1597.08 596.5 1589.72 612.702C1579.93 634.285 1555.1 643.443 1537.98 659.586C1507.47 688.37 1505.41 741.614 1530.82 775.153C1553.09 804.563 1592.66 817.458 1628.54 810.825" stroke="#3D89E9" stroke-width="2" stroke-miterlimit="10" stroke-linecap="round"/>
<path d="M134.304 -155.496C121.824 -121.527 132.25 -78.3601 108.096 -51.7284C98.8033 -41.4749 85.7665 -35.6633 72.8833 -30.8888C46.6753 -21.1441 19.3729 -14.3736 -6.02868 -2.65256C-31.4495 9.04894 -55.5263 26.6012 -68.3135 51.8631C-80.7167 76.4011 -81.1583 105.498 -77.2991 132.815C-74.1695 154.887 -68.0447 177.331 -54.0479 194.492C-33.1775 220.067 2.07372 229.479 34.6177 226.975C67.1617 224.49 97.9969 211.81 128.448 199.873C158.919 187.937 190.387 176.431 223.027 176.451C342.259 176.529 393.523 316.008 359.827 416.332C317.203 543.248 190.253 603.38 77.5681 653.238C47.9617 666.329 17.5489 678.383 -8.83188 697.324C-35.2127 716.266 -57.6575 743.367 -63.5711 775.713C-68.0063 799.918 -62.8991 824.847 -56.1983 848.505C-45.9071 884.92 -31.7951 920.22 -14.1695 953.603C-1.03668 978.473 16.2817 1004.11 42.8737 1012.05C63.9553 1018.35 86.4001 1012.17 108.039 1008.29C165.408 998.022 224.237 1004.3 282.451 1002.85C341.088 1001.39 402.01 989.02 450.759 953.72C472.474 937.988 483.763 910.534 499.008 888.677C518.65 860.539 540.749 833.927 567.552 812.598C604.128 783.501 654.701 765.068 697.018 784.459C739.104 803.753 759.437 855.334 756.845 902.296C754.253 949.259 733.479 992.914 713.088 1035.1" stroke="#57B4F7" stroke-width="2" stroke-miterlimit="10" stroke-linecap="round"/>
<path d="M121.997 787.517C121.824 786.832 121.459 786.206 120.941 785.736C118.714 783.76 116.218 786.46 115.123 788.339L108.154 800.275C107.655 800.901 107.136 801.528 106.599 802.095C105.408 803.308 103.392 803.191 102.451 801.841C104.275 792.526 105.619 783.134 106.464 773.683C106.695 771.061 105.101 768.536 102.432 768.106C99.9746 767.734 97.2098 769.573 96.9602 772.215C96.9218 772.724 96.845 773.213 96.8066 773.702C96.2882 776.324 95.9426 779.005 95.4434 781.608C94.5794 786.049 93.8882 790.667 92.717 795.031C92.4866 795.853 91.853 796.694 91.0658 796.87C90.797 794.894 90.5282 792.898 90.2593 790.922L87.3218 769.045C86.8418 765.484 83.5202 764.31 80.9282 765.112C79.6034 765.053 78.3746 766.208 77.8946 767.773C77.5298 768.967 77.6066 770.219 77.7026 771.452C77.933 774.152 78.3554 776.833 78.7778 779.494L80.1986 788.554C80.6018 791.548 81.0242 794.542 81.4466 797.536C81.4466 798.221 81.3122 798.788 81.005 798.925C80.1794 799.336 79.181 797.594 78.8354 797.047C78.6626 796.792 78.509 796.518 78.3362 796.244C75.7634 789.102 72.9793 782.058 69.9265 775.092C67.4305 769.358 58.445 772.822 60.9602 778.594C65.6066 789.239 69.7154 800.138 73.2674 811.194C73.517 812.564 73.6706 813.953 73.613 815.342C73.5746 816.379 73.421 817.456 72.8258 818.317C71.981 819.51 70.8674 820.058 69.6002 820.215C68.9666 819.804 68.333 819.354 67.6802 818.943C61.9778 815.421 55.565 812.368 48.7106 813.151C46.2146 813.444 44.0642 815.929 44.4674 818.551C44.8514 821.056 46.925 822.993 49.4402 822.876C49.5746 822.935 49.709 823.013 49.8433 823.052C54.4514 824.813 58.157 827.787 61.6514 831.153C68.6018 837.865 70.6562 843.637 80.5058 844.4C87.9362 844.987 101.261 846.533 107.866 842.405C119.866 834.891 110.727 818.962 114.547 807.77C116.467 802.134 120.231 797.262 121.69 791.45C122.016 790.139 122.304 788.789 121.959 787.439L121.997 787.517Z" fill="#57B4F7"/>
<path d="M1049.07 824.951C1048.8 822.485 1046.32 820.137 1043.77 820.626C1036.99 821.918 1030.14 822.935 1023.38 824.344C1021.42 824.755 1014.14 826.731 1015.01 822.838C1015.37 821.213 1023.3 818.767 1025.01 818.043C1028.79 816.439 1032.69 815.187 1036.61 813.934C1038.84 813.23 1041.93 810.999 1042.64 808.631C1043.67 805.148 1039.87 803.191 1036.9 804.092C1024.22 807.946 1011.55 811.801 998.861 815.656C998.246 815.539 997.632 815.382 997.095 815.05C996.442 813.132 996.25 811.234 996.941 809.179C999.264 802.37 1003.16 796.362 1004.14 789.064C1004.87 783.526 997.402 781.393 995.002 786.344C991.699 793.192 987.264 799.591 981.85 805.011C976.109 809.786 971.597 812.271 970.387 820.92C969.312 828.493 966.893 842.033 970.522 849.078C976.627 860.916 991.046 854.713 1001.7 857.394C1003.83 858.47 1006.06 859.39 1008.12 860.349C1008.38 860.486 1008.67 860.603 1008.94 860.74C1012.49 862.893 1015.91 865.319 1019.85 866.63C1021.9 867.315 1025.88 867.941 1027.72 866.219C1031.33 862.853 1026.05 859.586 1023.55 858.04C1019.88 855.77 1016.41 853.461 1012.49 851.641C1011.96 851.387 1011.42 851.132 1010.86 850.878C1010.73 850.722 1010.55 850.585 1010.42 850.428C1009.34 849.176 1009.54 847.238 1010.78 846.319C1020.6 847.591 1030 851.191 1039.91 851.896C1043.75 852.17 1047.15 847.923 1044.42 844.499C1042.66 842.268 1038.93 842.229 1036.42 841.623C1034.73 841.212 1033.02 840.84 1031.35 840.39C1027.03 839.216 1022.52 838.198 1018.29 836.711C1017.66 836.496 1017.04 835.987 1016.76 835.4C1026.12 833.835 1035.48 832.21 1044.79 830.41C1047.34 829.921 1049.34 827.769 1049.03 825.01L1049.07 824.951Z" fill="#FFCC00"/>
<path d="M1111.58 109.152C1107.6 109.895 1103.61 110.639 1099.63 111.363C1099.15 111.461 1098.67 111.539 1098.19 111.637C1097.69 111.735 1097.12 111.95 1096.71 111.539C1096.43 111.246 1096.23 110.756 1096.02 110.404C1095.75 109.935 1095.47 109.465 1095.2 108.976C1094.14 107.156 1093.11 105.336 1092.05 103.516C1091.86 103.184 1091.3 103.145 1091.11 103.516C1089.67 106.412 1088.65 109.484 1088.06 112.674L1075.38 117.84C1074.94 118.016 1074.81 118.779 1075.38 118.897C1079.19 119.738 1083.06 120.149 1086.96 120.149C1084.98 124.708 1083.26 129.404 1081.85 134.179C1081.74 134.57 1082.12 134.981 1082.53 134.864C1085.66 133.846 1087.63 131.126 1089.65 128.661C1090.17 128.015 1090.71 127.389 1091.28 126.782C1091.65 126.411 1092.05 125.921 1092.61 125.863C1093.09 125.804 1093.62 126.058 1094.05 126.234C1095.7 126.9 1097.18 127.937 1098.73 128.778C1100.38 129.678 1102.17 130.363 1104.07 130.148C1104.39 130.109 1104.72 129.815 1104.59 129.444C1103.42 126.078 1101.94 122.83 1100.19 119.718C1104.82 117.468 1108.91 114.161 1112.09 110.072C1112.44 109.641 1112.13 109.054 1111.58 109.152Z" fill="#E6E89F"/>
<path d="M172.877 703.279C168.903 704.022 164.909 704.766 160.935 705.49C160.455 705.588 159.975 705.666 159.495 705.764C158.995 705.862 158.419 706.077 158.016 705.666C157.728 705.373 157.536 704.883 157.325 704.531C157.056 704.061 156.768 703.592 156.499 703.103C155.443 701.283 154.407 699.463 153.351 697.643C153.159 697.311 152.602 697.271 152.41 697.643C150.97 700.539 149.952 703.611 149.357 706.801C145.133 708.523 140.909 710.245 136.685 711.967C136.243 712.143 136.109 712.906 136.685 713.024C140.487 713.865 144.365 714.276 148.263 714.276C146.285 718.835 144.557 723.531 143.155 728.306C143.04 728.697 143.424 729.108 143.827 728.991C146.957 727.973 148.935 725.253 150.951 722.788C151.469 722.142 152.007 721.516 152.583 720.909C152.947 720.538 153.351 720.048 153.907 719.99C154.387 719.931 154.925 720.185 155.347 720.361C156.999 721.027 158.477 722.064 160.032 722.905C161.683 723.805 163.469 724.49 165.37 724.275C165.696 724.236 166.023 723.942 165.888 723.571C164.717 720.205 163.239 716.957 161.491 713.845C166.119 711.595 170.208 708.288 173.395 704.198C173.741 703.768 173.434 703.181 172.877 703.279Z" fill="#FFCB0F"/>
<path d="M1402.09 724.707C1398.86 724.06 1395.65 723.417 1392.41 722.769C1392.82 719.145 1392.95 715.499 1392.8 711.813C1392.78 711.419 1392.22 711.092 1391.93 711.371C1389.3 713.782 1387.05 716.571 1385.24 719.695C1384.81 720.451 1384.36 721.456 1383.49 721.754C1382.65 722.03 1381.55 721.629 1380.69 721.467C1378.73 721.072 1376.77 720.677 1374.81 720.282C1374.35 720.197 1374 720.731 1374.29 721.148C1375.84 723.309 1377.41 725.459 1378.94 727.603C1377.4 728.585 1375.86 729.567 1374.34 730.538C1373.93 730.797 1374.13 731.447 1374.58 731.56C1376.37 731.979 1378.14 732.409 1379.92 732.812C1378.68 735.469 1377.31 738.074 1375.8 740.583C1375.52 741.046 1376.06 741.859 1376.55 741.421C1379.54 738.827 1382.54 736.233 1385.53 733.639C1387.87 737.106 1390.29 740.546 1393.42 743.323C1393.88 743.716 1394.39 743.24 1394.27 742.728C1393.12 738.019 1391.57 733.401 1389.66 728.913C1393.8 727.761 1397.98 726.728 1402.18 725.813C1402.73 725.693 1402.57 724.825 1402.06 724.729L1402.09 724.707Z" fill="#FFCB0F"/>
<path d="M685.824 23.2416C686.17 22.909 686.496 22.5763 686.842 22.2437C687.514 21.5784 688.205 20.9131 688.877 20.2478C690.298 18.8585 691.699 17.4887 693.12 16.0994C693.466 15.7668 693.082 15.2776 692.698 15.3363C689.587 15.8646 686.477 16.3929 683.367 16.9213C682.695 17.0387 681.754 17.3909 681.216 16.7647C680.736 16.1973 680.41 15.4145 680.045 14.7688C679.219 13.3208 678.394 11.8924 677.568 10.4443C677.376 10.1117 676.877 10.1704 676.781 10.5617C675.936 14.3188 675.111 18.0562 674.266 21.8132C674.266 21.8719 674.266 21.9306 674.266 21.9893C671.021 22.5959 667.891 23.6917 664.954 25.2767C664.608 25.4724 664.723 26.0007 665.05 26.1181C666.701 26.7051 668.352 27.2922 670.003 27.8988C670.829 28.1923 671.655 28.4858 672.48 28.7793C672.768 28.8771 673.44 28.9946 673.632 29.2685C673.843 29.562 673.709 30.1882 673.671 30.5208C673.344 33.7495 672.269 37.0369 673.536 40.2069C673.671 40.5395 674.112 40.4612 674.266 40.2069C676.627 36.4303 678.759 32.4972 680.659 28.4466C684.557 30.286 688.455 32.145 692.352 33.9843C692.775 34.18 693.216 33.6712 692.871 33.2603C691.603 31.7536 690.317 30.2664 689.05 28.7597C688.435 28.0357 687.821 27.3117 687.207 26.5877C686.611 25.8833 685.959 25.1984 685.402 24.4548C685.018 23.9461 685.459 23.633 685.824 23.2808V23.2416Z" fill="#F64E33"/>
<path d="M404.813 870.915C404.41 854.948 402.893 839.02 400.301 823.268C398.381 811.645 393.523 801.332 385.632 792.566C375.744 781.589 363.072 775.523 350.496 770.572C340.416 766.619 330.125 763.215 319.584 762.04C309.754 760.964 299.847 761.845 289.978 762.725C273.696 764.173 257.146 765.7 241.824 772.998C225.927 780.552 213.427 793.721 204.077 808.631C193.651 825.244 184.205 844.499 179.04 863.48C176.007 874.672 173.357 886.159 174.01 897.743C174.663 909.327 179.002 921.165 187.815 928.484C188.851 929.345 190.003 930.166 191.328 930.382C194.419 930.89 200.026 926.742 202.522 924.961C206.631 921.987 207.821 918.68 206.4 913.182C190.368 850.604 245.319 800.961 301.882 798.339C328.186 797.125 358.599 804.209 371.251 830.527C377.376 843.266 379.315 857.668 380.736 871.659C381.466 878.801 382.925 886.569 382.426 893.81C381.734 903.789 378.566 917.154 381.197 926.879C382.445 931.497 386.323 935.724 391.008 935.704C394.829 935.704 398.208 932.847 400.032 929.423C401.837 925.998 402.374 922.026 402.797 918.152C404.544 902.478 405.197 886.667 404.794 870.896L404.813 870.915Z" fill="#F64E33"/>
<path d="M388.819 915.647C383.347 875.729 392.659 823.835 363.207 796.421C351.399 785.424 336.595 780.532 321.907 779.084C307.219 777.636 292.435 779.416 277.709 780.571C252.999 782.489 225.831 796.558 210.797 823.111C202.349 838.022 197.357 855.594 193.69 873.283C191.885 881.99 190.368 891.129 191.847 899.895C193.651 910.638 202.522 921.067 211.143 922.613C218.362 923.905 228.115 918.68 227.578 907.859C226.387 883.849 225.523 857.942 245.242 841.29C261.082 827.925 284.755 819.393 304.416 814.658C368.832 799.102 355.872 877.509 361.421 917.975C363.879 935.978 391.296 933.806 388.819 915.667V915.647Z" fill="#FFCB0F"/>
<path d="M306.567 795.932C300.058 796.147 293.453 796.93 286.656 797.791C271.546 799.67 258.144 800.805 244.8 809.825C212.832 831.428 207.245 876.669 207.149 910.932C207.091 930.969 239.674 928.425 239.731 908.466C239.77 893.888 238.963 871.209 248.007 858.529C257.779 844.832 284.851 837.005 300.595 831.408C309.159 828.375 316.915 830.547 324.903 836.613C330.778 841.075 336.058 843.247 337.959 849.939C343.488 869.409 344.16 890.992 343.047 910.99C342.682 917.35 346.061 922.888 351.341 926.097C353.952 927.682 356.947 927.623 359.52 928.875C362.573 930.362 363.495 932.926 367.162 931.478C369.293 930.636 372.192 926.371 373.267 924.277C377.395 916.117 376.167 904.474 375.84 895.649C375.245 880.113 375.552 864.145 373.21 848.785C369.869 826.771 356.986 808.945 336.365 800.628C326.323 796.578 316.551 795.6 306.605 795.932H306.567Z" fill="#57B4F7"/>
<path d="M306.49 815.5C304.704 815.363 302.899 815.245 301.114 815.128C292.474 814.56 283.699 814.012 275.232 815.852C254.842 820.274 241.018 839.118 231.303 856.69C221.261 874.888 215.463 895.571 215.155 916.469C215.059 922.75 223.085 923.102 227.539 924.472C230.88 925.509 233.088 926.938 236.832 926.488C244.282 925.588 249.946 919.424 249.965 911.734C250.023 898.447 249.408 877.784 257.031 866.219C265.267 853.715 288.039 846.534 301.287 841.407C308.487 838.609 315.015 840.585 321.696 846.084C326.631 850.134 331.066 852.111 332.64 858.196C337.248 875.925 337.767 895.59 336.787 913.827C336.384 921.4 346.733 935.88 354.816 928.033C357.082 925.822 357.965 922.554 358.695 919.443C363.667 898.388 366.432 876.296 362.131 855.085C360.691 847.943 358.387 840.84 354.125 834.989C348.346 827.005 339.341 821.937 329.991 819.178C322.368 816.928 314.419 816.087 306.49 815.519V815.5Z" fill="#FF7C69"/>
<path d="M397.786 837.513C395.078 826.829 390.682 816.674 384.806 807.399C383.462 805.266 380.352 807.575 381.696 809.688C387.379 818.689 391.584 828.551 394.195 838.922C394.464 839.959 395.789 840.39 396.672 840.057C397.728 839.646 398.035 838.55 397.786 837.533V837.513Z" fill="black"/>
<path d="M140.129 377.609C139.668 374.654 139.438 371.66 140.014 368.745C142.049 358.139 155.143 352.093 165.012 356.124C174.862 360.135 180.372 371.974 178.951 382.697C180.18 372.717 187.246 366.534 196.5 364.616C198.939 364.107 201.435 363.696 203.911 363.99C213.147 365.125 218.561 376.318 216.91 385.651C215.259 394.985 208.654 402.538 201.953 409.113C191.028 419.817 178.721 430.598 165.377 438.034C153.627 420.169 144.507 401.403 140.532 379.84C140.398 379.096 140.263 378.353 140.148 377.609H140.129Z" fill="#F64E33"/>
<path d="M207.943 388.039C206.753 387.569 205.755 388.098 205.121 389.135C205.351 388.763 205.121 389.135 205.063 389.233C204.987 389.37 204.891 389.507 204.795 389.644C204.622 389.917 204.43 390.191 204.257 390.465C203.873 391.033 203.47 391.6 203.067 392.148C202.26 393.224 201.396 394.242 200.475 395.22C200.033 395.69 199.591 396.14 199.15 396.571C199.111 396.61 199.054 396.668 199.015 396.708C198.9 396.825 198.785 396.923 198.651 397.04C198.401 397.255 198.171 397.471 197.921 397.686C196.884 398.586 195.79 399.408 194.657 400.171C193.735 400.797 193.467 402.304 194.177 403.204C194.907 404.163 196.155 404.378 197.153 403.693C202.011 400.367 205.985 395.983 209.038 390.915C209.614 389.937 208.942 388.43 207.963 388.039H207.943Z" fill="#FFCB0F"/>
<path d="M197.345 386.063C196.423 385.358 195.099 385.417 194.35 386.356C192.372 388.841 190.395 391.326 188.417 393.831C187.707 394.712 187.783 396.179 188.705 396.884C189.627 397.588 190.951 397.529 191.7 396.59L197.633 389.115C198.343 388.235 198.267 386.767 197.345 386.063Z" fill="#FFCB0F"/>
<path d="M156.641 393.694C153.895 386.082 151.995 378.235 150.958 370.193C150.593 367.434 146.369 367.884 146.715 370.663C147.79 379.038 149.787 387.295 152.667 395.24C153.607 397.862 157.601 396.316 156.641 393.674V393.694Z" fill="#FFCB0F"/>
<path d="M167.527 418.662C166.471 417.468 165.511 416.177 164.647 414.826C164.436 414.494 164.244 414.181 164.052 413.848C163.956 413.691 163.86 413.515 163.764 413.359C163.726 413.281 163.668 413.183 163.63 413.104C163.284 412.38 162.919 411.676 162.612 410.952C162.171 409.915 160.942 409.23 159.866 409.7C158.849 410.15 158.158 411.402 158.638 412.498C160.001 415.668 161.806 418.623 164.071 421.206C164.455 421.656 164.878 421.988 165.492 422.086C165.991 422.164 166.644 422.027 167.047 421.695C167.873 421.029 168.334 419.562 167.527 418.662Z" fill="#FFCB0F"/>
<path d="M179.508 412.44C179.412 412.166 179.258 411.931 179.066 411.735C178.894 411.5 178.663 411.344 178.394 411.226C177.876 411.011 177.281 410.953 176.762 411.187C176.225 411.422 175.841 411.794 175.572 412.342C175.073 413.34 174.593 414.338 174.094 415.336C173.959 415.61 173.902 415.884 173.921 416.177C173.882 416.451 173.921 416.725 174.036 416.999C174.132 417.273 174.286 417.508 174.478 417.703C174.65 417.938 174.881 418.095 175.15 418.212C175.668 418.427 176.263 418.486 176.782 418.251C177.319 418.016 177.703 417.645 177.972 417.116C178.471 416.118 178.951 415.12 179.45 414.122C179.585 413.849 179.642 413.575 179.623 413.281C179.662 413.007 179.623 412.733 179.508 412.459V412.44Z" fill="#FFCB0F"/>
<path d="M170.484 375.809C169.313 375.672 168.276 376.435 168.065 377.629L166.587 385.886C166.395 387.002 167.259 388.234 168.372 388.352C169.543 388.489 170.58 387.726 170.791 386.532C171.291 383.773 171.771 381.033 172.27 378.274C172.462 377.159 171.598 375.926 170.484 375.809Z" fill="#FFCB0F"/>
<path d="M1082.3 13.6699C1087.8 13.0846 1096.36 9.66531 1096.16 0.839754C1096.13 -0.176802 1095.92 -1.16255 1095.7 -2.1483C1094.34 -8.32465 1092.81 -14.4702 1090.78 -20.3693C1089.87 -23.0031 1088.78 -25.7293 1086.82 -27.3004C1082.06 -31.1047 1067.25 -20.4463 1062.59 -17.5969C1055.85 -13.4844 1049.85 -8.60189 1043.87 -3.27267C1038.16 1.8101 1031.01 4.50552 1024.62 8.17128C1017.93 12.0219 1011.34 16.7812 1006.77 23.9125C1031.93 19.2148 1057 16.3499 1082.3 13.6699Z" fill="#1D6FAB"/>
<path d="M1087.02 1.11691C1081.16 2.13346 1075.28 2.87279 1069.44 4.01256C1057.96 6.26131 1013.68 19.1223 1014.2 18.7526C1018.4 15.7492 1043.28 4.13578 1047.65 1.53278C1055.48 -3.13413 1063.36 -7.63162 1071.14 -12.4064C1075.11 -14.8399 1079.1 -17.2581 1083.16 -19.4452C1084.66 -20.2462 1088.78 -21.2935 1089.75 -22.7721C1090.73 -24.2508 1089.96 -25.1903 1090.3 -27.1618C1092.13 -37.4968 1091.08 -49.9573 1090.26 -60.3847C1090.11 -62.2484 1089.94 -64.1583 1089.25 -65.8217C1088.55 -67.5006 1087.24 -68.9022 1085.71 -68.9946C1084.73 -69.0562 1083.79 -68.5788 1082.91 -68.0551C1079.59 -66.0682 1076.64 -63.2649 1073.72 -60.4617C1046.52 -34.4317 1018.69 -9.54152 994.698 21.0476C993.2 22.9575 990.013 25.7892 991.299 28.8566C992.297 31.2361 994.774 32.3067 996.826 32.4607C1023.16 34.4014 1049.55 35.2639 1075.85 37.7437C1082.61 38.3752 1089.12 38.3444 1095.87 38.098C1101.85 37.8823 1107.71 38.8219 1113.69 37.0506C1112.35 30.1195 1109.24 23.9124 1106.18 17.8593C1103.85 13.2386 1101.38 5.29095 1098.06 1.77921C1094.82 -1.64011 1091.41 0.377594 1086.99 1.14771L1087.02 1.11691Z" fill="#358BF7"/>
<path d="M1094.46 -2.36458C1086.88 -1.70228 1079.34 -0.470092 1071.88 1.30118C1070.31 1.67084 1070.56 4.73591 1072.16 4.36625C1079.63 2.59498 1087.16 1.37819 1094.73 0.700488C1096.35 0.561867 1096.07 -2.5032 1094.46 -2.36458Z" fill="#171714"/>
<path d="M1089.6 17.7668C1086.84 17.582 1084.1 17.4126 1081.34 17.2278C1080.66 17.1816 1080.02 17.6436 1079.9 18.5216C1079.8 19.2763 1080.28 20.2312 1080.96 20.2774C1083.72 20.4623 1086.46 20.6317 1089.22 20.8165C1089.9 20.8627 1090.54 20.4007 1090.66 19.5227C1090.74 18.768 1090.28 17.8131 1089.6 17.7668Z" fill="#171714"/>
<path d="M1093.61 24.667C1090.96 25.3447 1088.33 25.3601 1085.68 24.6978C1085.01 24.5284 1084.35 25.2061 1084.25 25.9916C1084.15 26.8541 1084.64 27.578 1085.3 27.7475C1088.12 28.456 1091.07 28.456 1093.89 27.7475C1094.56 27.578 1095.09 26.9311 1095 26.0532C1094.92 25.2831 1094.28 24.513 1093.61 24.6978V24.667Z" fill="#171714"/>
<path d="M644.275 -137.331C648.077 -95.417 651.533 -51.3113 634.579 -12.9194C628.896 -0.0634469 620.947 12.0881 618.835 26.0008C614.919 51.7519 633.274 77.3269 656.909 87.2673C685.363 99.2232 738.855 95.7793 767.213 82.7472C800.218 67.5626 825.965 38.6807 844.243 7.431C862.733 -24.1905 874.618 -59.2754 885.811 -94.2625" stroke="#4D99F9" stroke-width="2" stroke-miterlimit="10" stroke-linecap="round"/>
</g>
<g clip-path="url(#clip1_806_9311)">
<path d="M1280.47 718.613L1181.57 797.692L1182.62 798.935L1281.52 719.856L1280.47 718.613Z" fill="#602D91"/>
<path d="M1284.3 785.379C1299.07 756.765 1287.12 721.596 1257.62 706.825C1228.12 692.055 1192.23 703.277 1177.46 731.89C1162.69 760.503 1174.64 795.673 1204.14 810.443C1233.65 825.214 1269.53 813.992 1284.3 785.379Z" fill="#1794FF"/>
<path d="M1284.3 785.379C1299.07 756.765 1287.12 721.596 1257.62 706.825C1228.12 692.055 1192.23 703.277 1177.46 731.89C1162.69 760.503 1174.64 795.673 1204.14 810.443C1233.65 825.214 1269.53 813.992 1284.3 785.379Z" fill="#1794FF"/>
<path d="M1244.55 702.049C1239.09 700.729 1233.63 700.186 1228.29 700.346C1221.54 703.769 1213.05 708.666 1214.48 710.943C1216.81 714.635 1239.54 718.075 1239.14 723.805C1238.74 729.542 1238.13 737.795 1240.39 741.367C1242.64 744.946 1261.53 747.074 1260.66 750.69C1259.78 754.305 1262.33 759.956 1265.97 765.73C1269.6 771.494 1279.68 757.076 1284.92 761.872C1286.42 763.244 1288.36 764.148 1290.37 764.73C1293.11 736.242 1273.94 709.15 1244.55 702.049Z" fill="#6FA41D"/>
<path d="M1281.62 739.354C1284.54 741.73 1287.08 744.089 1289.06 746.063C1284.04 725.137 1267.38 707.565 1244.55 702.049C1244.33 701.996 1244.11 701.951 1243.89 701.898C1245.92 705.667 1249.31 710.441 1254.43 713.331C1263.86 718.652 1263.18 718.454 1267.02 724.557C1270.87 730.659 1274.4 733.469 1281.62 739.352L1281.62 739.354Z" fill="#91BE4A"/>
<path d="M1214.78 713.189C1214.78 713.189 1212.25 708.916 1206.02 712.611C1199.78 716.305 1188.78 715.376 1194.94 720.099C1201.1 724.824 1217.82 715.176 1214.78 713.197L1214.78 713.189Z" fill="#91BE4A"/>
<path d="M1217.2 721.008C1217.2 721.008 1198.09 720.999 1196.59 727.203C1195.09 733.406 1202.12 735.339 1200.69 741.255C1199.26 747.171 1191.01 754.291 1192.29 764.818C1193.57 775.338 1192.4 784.898 1197.69 786.175C1202.97 787.452 1210.72 777.288 1218.15 766.691C1225.58 756.086 1228.07 762.105 1231.75 755.002C1235.43 747.9 1236.39 734.593 1226.79 727.804L1217.19 721.014L1217.2 721.008Z" fill="#91BE4A"/>
<path d="M1255.66 724.666C1255.66 724.666 1252.19 739.776 1256.04 737.496C1259.89 735.217 1256.31 731.075 1260.05 728.856C1263.78 726.645 1260.28 721.927 1255.67 724.658L1255.66 724.666Z" fill="#1794FF"/>
<path d="M1241.31 715.467C1241.31 715.467 1247.96 718.526 1249.7 717.494C1251.44 716.463 1253.08 717.101 1252.76 713.623C1252.43 710.143 1254.86 712.306 1247.89 711.752C1240.93 711.201 1241.3 715.465 1241.3 715.465L1241.31 715.467Z" fill="#1794FF"/>
<path d="M1226.98 766.626C1226.98 766.626 1218.67 775.828 1217.92 778.934C1217.17 782.04 1220.88 780.535 1226.21 777.378C1231.54 774.222 1229.28 765.267 1226.98 766.626Z" fill="#91BE4A"/>
<path opacity="0.35" d="M1226.97 741.464C1226.97 741.464 1230.6 738.698 1222.31 740.338C1214.01 741.977 1211.04 739.503 1208.85 748.599C1206.65 757.695 1205.58 771.569 1208.28 769.975C1210.97 768.382 1216.3 761.148 1220.69 758.555C1225.07 755.961 1226.97 741.464 1226.97 741.464Z" fill="#F15A22"/>
<path d="M1187.74 756.867C1187.44 745.307 1193.56 743.238 1192.48 737.238C1191.61 732.375 1186.38 725.581 1183.79 722.172C1178.63 728.552 1174.77 736.124 1172.73 744.587C1168.29 762.943 1173.34 781.423 1184.76 795.121C1186.86 791.385 1186.06 783.61 1187.14 779.157C1188.7 772.699 1188.04 768.435 1187.74 756.875L1187.74 756.867Z" fill="#0083CA"/>
<path d="M1250.92 757.678C1250.92 757.678 1255.84 758.857 1261.93 768.521C1268.02 778.192 1277.43 765.611 1278.91 774.214C1280.4 782.817 1256.87 812.499 1232.97 810.734C1209.07 808.969 1205.78 807.931 1202.38 802.526C1198.97 797.121 1224.78 796 1228.87 790.24C1232.97 784.48 1243.71 755.936 1250.92 757.678Z" fill="#0083CA"/>
<g style="mix-blend-mode:multiply" opacity="0.44">
<path d="M1278.32 723.781C1280.42 732.377 1280.57 741.553 1278.37 750.698C1270.81 781.954 1238.66 800.996 1206.54 793.236C1192.55 789.856 1180.87 781.947 1172.78 771.504C1177.88 792.302 1194.49 809.742 1217.21 815.231C1249.33 822.991 1281.48 803.949 1289.03 772.693C1293.29 755.061 1288.8 737.306 1278.32 723.79L1278.32 723.781Z" fill="#A967AA"/>
</g>
<path opacity="0.53" d="M1274.73 798.857C1274.82 798.758 1274.92 798.659 1275.01 798.558C1275.16 798.396 1275.32 798.225 1275.47 798.061C1283.78 788.931 1288.14 777.07 1287.91 764.188C1288.07 763.286 1288.21 762.372 1288.32 761.46C1290.17 746.61 1285.92 732.348 1276.38 721.312C1266.83 710.266 1253.12 703.772 1237.77 703.021C1234.71 702.871 1231.66 702.96 1228.64 703.265C1228.05 703.219 1227.47 703.183 1226.88 703.155C1211.69 702.475 1197.81 707.61 1187.82 717.605C1187.69 717.73 1187.57 717.866 1187.44 717.999C1187.39 718.041 1187.35 718.084 1187.31 718.125C1187.21 718.215 1187.13 718.316 1187.03 718.415C1186.94 718.514 1186.84 718.612 1186.74 718.719C1186.59 718.882 1186.44 719.046 1186.28 719.217C1177.98 728.341 1173.62 740.201 1173.85 753.092C1173.69 753.994 1173.55 754.907 1173.44 755.819C1171.59 770.67 1175.83 784.93 1185.38 795.968C1192.61 804.313 1202.2 810.058 1213.09 812.689C1216.6 813.536 1220.24 814.06 1223.99 814.243C1227.05 814.392 1230.1 814.303 1233.13 813.998C1233.71 814.044 1234.29 814.08 1234.89 814.11C1250.08 814.791 1263.96 809.656 1273.96 799.652C1274.08 799.527 1274.21 799.391 1274.34 799.258C1274.37 799.214 1274.42 799.173 1274.47 799.132C1274.56 799.033 1274.65 798.941 1274.74 798.842L1274.73 798.857ZM1176.14 744.776C1176 747.795 1176.15 750.91 1176.59 754.094C1176.87 756.163 1177.3 758.222 1177.82 760.27C1177.78 760.426 1177.75 760.582 1177.71 760.747C1177.1 763.53 1176.72 766.266 1176.59 768.947C1174.97 763.712 1174.1 758.371 1174.01 753.106C1174.5 750.302 1175.22 747.519 1176.14 744.785L1176.14 744.776ZM1285.63 772.618C1285.77 769.559 1285.63 766.401 1285.18 763.172C1284.9 761.102 1284.47 759.035 1283.95 756.995C1283.99 756.839 1284.02 756.683 1284.06 756.518C1284.67 753.735 1285.05 751 1285.18 748.318C1286.81 753.6 1287.68 758.993 1287.76 764.307C1287.25 767.133 1286.54 769.908 1285.63 772.618ZM1181.06 750.799C1181.7 753.258 1182.51 755.715 1183.5 758.163C1182.54 760.298 1181.72 762.438 1181.06 764.591C1180.77 765.538 1180.52 766.469 1180.28 767.395C1179.36 765.05 1178.59 762.673 1177.98 760.264C1178.71 757.059 1179.75 753.9 1181.07 750.793L1181.06 750.799ZM1280.71 766.458C1280.08 764.001 1279.27 761.542 1278.28 759.094C1279.23 756.968 1280.05 754.819 1280.71 752.666C1281 751.735 1281.25 750.821 1281.48 749.911C1282.41 752.267 1283.18 754.645 1283.79 757.026C1283.05 760.214 1282.01 763.372 1280.7 766.464L1280.71 766.458ZM1182.88 773.424C1183.99 775.552 1185.21 777.638 1186.56 779.679C1185.62 781.625 1184.9 783.443 1184.41 785.14C1183.33 783.55 1182.34 781.928 1181.43 780.274C1181.67 778.097 1182.16 775.805 1182.88 773.424ZM1278.88 743.849C1277.78 741.722 1276.56 739.636 1275.2 737.595C1276.15 735.649 1276.86 733.83 1277.36 732.134C1278.44 733.723 1279.43 735.346 1280.33 736.999C1280.09 739.176 1279.6 741.466 1278.88 743.849ZM1274.01 792.614C1273.04 790.371 1271.48 787.663 1269.34 784.529C1270.49 783.24 1271.57 781.911 1272.61 780.561C1274.38 784.155 1275.54 787.383 1276.05 790.15C1275.4 790.983 1274.72 791.801 1274.01 792.605L1274.01 792.614ZM1276.08 790.339C1276.68 793.728 1276.31 796.439 1274.96 798.331C1275.42 797.102 1275.12 795.219 1274.07 792.757C1274.76 791.968 1275.43 791.164 1276.08 790.347L1276.08 790.339ZM1269.26 784.414C1268.63 783.495 1267.96 782.541 1267.22 781.555C1266.55 780.646 1265.84 779.717 1265.1 778.774C1266.48 777.271 1267.78 775.743 1269.02 774.18C1269.73 775.327 1270.41 776.474 1271.04 777.59C1271.58 778.556 1272.08 779.502 1272.53 780.429C1271.5 781.788 1270.41 783.116 1269.25 784.412L1269.26 784.414ZM1260.49 792.861C1259.88 793.365 1259.26 793.85 1258.64 794.334C1257.84 793.863 1257.04 793.365 1256.19 792.839C1254.93 792.038 1253.63 791.186 1252.3 790.283C1253.5 789.389 1254.7 788.478 1255.87 787.517C1256.25 787.209 1256.61 786.896 1256.98 786.577C1257.99 787.43 1258.97 788.249 1259.92 789.036C1260.77 789.735 1261.64 790.45 1262.51 791.157C1261.85 791.738 1261.19 792.307 1260.5 792.863L1260.49 792.861ZM1265.17 801.095C1265.66 800.717 1266.14 800.338 1266.62 799.941C1266.99 799.631 1267.36 799.32 1267.73 799.009C1268.45 799.271 1269.14 799.479 1269.76 799.63C1271.42 800.032 1272.72 800.051 1273.65 799.673C1271.69 801.149 1268.79 801.587 1265.18 801.098L1265.17 801.095ZM1266.53 799.841C1266.02 800.256 1265.5 800.67 1264.98 801.067C1261.84 800.612 1258.16 799.472 1254.14 797.709C1255.67 796.696 1257.17 795.624 1258.64 794.492C1262.13 796.569 1265.13 798.059 1267.58 798.956C1267.23 799.254 1266.89 799.545 1266.53 799.841ZM1253.98 797.645C1251.7 796.641 1249.3 795.435 1246.81 794.051C1248.63 792.9 1250.43 791.663 1252.19 790.359C1253.53 791.274 1254.84 792.139 1256.11 792.942C1256.93 793.462 1257.74 793.951 1258.52 794.418C1257.04 795.556 1255.53 796.626 1253.99 797.647L1253.98 797.645ZM1187.75 724.668C1188.72 726.911 1190.29 729.619 1192.43 732.745C1191.28 734.034 1190.2 735.354 1189.16 736.705C1187.42 733.169 1186.25 729.931 1185.72 727.117C1186.38 726.292 1187.05 725.472 1187.75 724.666L1187.75 724.668ZM1185.69 726.918C1185.1 723.592 1185.43 720.863 1186.79 718.949C1186.34 720.178 1186.64 722.052 1187.69 724.522C1187 725.304 1186.33 726.108 1185.69 726.918ZM1192.5 732.86C1193.14 733.778 1193.81 734.732 1194.55 735.719C1195.21 736.627 1195.93 737.556 1196.67 738.5C1195.29 740.003 1193.98 741.53 1192.75 743.085C1191.41 740.925 1190.23 738.832 1189.24 736.836C1190.27 735.477 1191.36 734.149 1192.51 732.851L1192.5 732.86ZM1195.23 717.431C1195.74 717.007 1196.26 716.593 1196.79 716.19C1197.65 716.31 1198.54 716.481 1199.46 716.705C1201.92 717.299 1204.66 718.255 1207.62 719.555C1206.09 720.567 1204.59 721.639 1203.12 722.771C1199.64 720.695 1196.63 719.204 1194.18 718.307C1194.53 718.009 1194.88 717.719 1195.22 717.429L1195.23 717.431ZM1194.03 718.262C1191.39 717.32 1189.4 717.091 1188.13 717.594C1190.07 716.139 1192.93 715.666 1196.6 716.17C1196.11 716.546 1195.62 716.933 1195.14 717.33C1194.76 717.639 1194.4 717.951 1194.03 718.262ZM1207.78 719.626C1208.35 719.878 1208.92 720.138 1209.52 720.412C1211.29 721.249 1213.11 722.193 1214.95 723.212C1213.13 724.363 1211.34 725.6 1209.57 726.904C1208.23 725.989 1206.92 725.124 1205.65 724.321C1204.83 723.801 1204.03 723.312 1203.24 722.845C1204.73 721.707 1206.24 720.629 1207.78 719.618L1207.78 719.626ZM1210.34 779.719C1208.71 778.194 1207.14 776.648 1205.63 775.084C1208.03 772.943 1210.6 770.694 1213.3 768.372C1214.66 769.719 1216.06 771.065 1217.49 772.392C1217.86 772.744 1218.25 773.089 1218.63 773.433C1215.79 775.651 1213.04 777.778 1210.4 779.776C1210.38 779.754 1210.36 779.74 1210.34 779.719ZM1251.42 737.571C1253.06 739.098 1254.64 740.644 1256.14 742.216C1253.72 744.37 1251.15 746.618 1248.47 748.928C1247.11 747.581 1245.71 746.235 1244.28 744.906C1243.9 744.554 1243.52 744.212 1243.14 743.867C1246 741.635 1248.75 739.509 1251.37 737.524C1251.38 737.536 1251.41 737.559 1251.42 737.571ZM1223.14 766.592C1221.89 765.43 1220.66 764.272 1219.46 763.12C1221.35 761.517 1223.31 759.886 1225.29 758.242C1226.33 759.216 1227.37 760.198 1228.43 761.165C1229.29 761.965 1230.14 762.754 1231 763.543C1228.99 765.181 1227.01 766.779 1225.05 768.349C1224.41 767.769 1223.78 767.181 1223.14 766.592ZM1224.95 768.437C1222.84 770.12 1220.76 771.766 1218.74 773.355C1218.36 773.002 1217.97 772.648 1217.59 772.295C1216.16 770.967 1214.77 769.63 1213.41 768.285C1215.34 766.629 1217.32 764.926 1219.37 763.202C1220.58 764.364 1221.81 765.531 1223.05 766.685C1223.69 767.273 1224.32 767.851 1224.96 768.431L1224.95 768.437ZM1217.95 743.704C1218.22 743.482 1218.5 743.262 1218.78 743.041C1221.09 745.114 1223.51 747.29 1226.01 749.572C1225.43 750.041 1224.84 750.516 1224.26 750.993C1223.11 751.94 1221.97 752.892 1220.84 753.845C1218.4 751.535 1216.08 749.304 1213.88 747.162C1215.21 745.998 1216.57 744.848 1217.95 743.704ZM1213.77 747.068C1211.05 744.427 1208.5 741.916 1206.15 739.573C1207.56 738.287 1209.01 737.02 1210.5 735.782C1213.06 737.991 1215.79 740.389 1218.66 742.961C1218.4 743.175 1218.12 743.387 1217.86 743.612C1216.47 744.753 1215.11 745.912 1213.77 747.076L1213.77 747.068ZM1224.35 751.102C1224.94 750.619 1225.52 750.141 1226.11 749.674C1227.56 750.998 1229.05 752.357 1230.55 753.747C1229.79 754.373 1229.02 754.996 1228.26 755.619C1227.27 756.432 1226.28 757.247 1225.3 758.053C1223.81 756.657 1222.35 755.28 1220.93 753.937C1222.06 752.991 1223.2 752.04 1224.34 751.1L1224.35 751.102ZM1238.62 750.706C1239.87 751.868 1241.09 753.024 1242.3 754.186C1240.4 755.795 1238.45 757.429 1236.46 759.062C1235.43 758.091 1234.38 757.117 1233.33 756.141C1232.48 755.344 1231.62 754.552 1230.76 753.763C1232.77 752.128 1234.76 750.521 1236.72 748.959C1237.36 749.539 1237.99 750.128 1238.63 750.716L1238.62 750.706ZM1236.82 748.863C1238.94 747.174 1241.01 745.534 1243.03 743.954C1243.41 744.306 1243.8 744.653 1244.18 745.005C1245.61 746.333 1247.01 747.67 1248.37 749.017C1246.44 750.681 1244.45 752.374 1242.41 754.098C1241.19 752.936 1239.96 751.769 1238.72 750.607C1238.08 750.019 1237.45 749.441 1236.82 748.863ZM1242.41 754.281C1243.83 755.652 1245.24 757.026 1246.6 758.391C1244.76 760.016 1242.87 761.645 1240.93 763.273C1239.5 761.909 1238.04 760.54 1236.56 759.156C1238.54 757.513 1240.5 755.889 1242.41 754.281ZM1236.36 759.151C1235.39 759.959 1234.4 760.766 1233.41 761.578C1232.64 762.21 1231.87 762.841 1231.11 763.465C1230.25 762.676 1229.39 761.876 1228.52 761.075C1227.46 760.089 1226.43 759.125 1225.4 758.164C1226.37 757.355 1227.35 756.549 1228.35 755.736C1229.11 755.105 1229.88 754.473 1230.65 753.85C1231.51 754.639 1232.36 755.436 1233.24 756.24C1234.29 757.216 1235.32 758.187 1236.36 759.151ZM1230.66 753.669C1229.18 752.302 1227.7 750.945 1226.22 749.596C1228.22 747.975 1230.21 746.403 1232.17 744.887C1233.65 746.182 1235.12 747.504 1236.61 748.863C1234.65 750.433 1232.66 752.04 1230.66 753.669ZM1225.21 758.152C1223.23 759.796 1221.27 761.419 1219.36 763.028C1217.93 761.654 1216.53 760.283 1215.16 758.917C1217 757.292 1218.9 755.663 1220.84 754.028C1222.29 755.403 1223.74 756.772 1225.21 758.144L1225.21 758.152ZM1231.11 763.648C1232.6 765.025 1234.08 766.384 1235.55 767.72C1233.55 769.333 1231.56 770.905 1229.59 772.438C1228.12 771.143 1226.63 769.81 1225.16 768.454C1227.12 766.884 1229.11 765.277 1231.11 763.648ZM1231.21 763.559C1231.97 762.934 1232.74 762.31 1233.5 761.687C1234.49 760.874 1235.48 760.06 1236.46 759.253C1237.93 760.635 1239.39 762.014 1240.83 763.369C1239.7 764.316 1238.56 765.266 1237.42 766.206C1236.83 766.69 1236.25 767.167 1235.66 767.634C1234.19 766.298 1232.71 764.939 1231.22 763.561L1231.21 763.559ZM1237.5 766.305C1238.66 765.358 1239.79 764.406 1240.92 763.453C1243.31 765.727 1245.65 767.961 1247.9 770.138C1246.56 771.302 1245.2 772.452 1243.81 773.594C1243.54 773.816 1243.26 774.037 1242.99 774.257C1240.63 772.148 1238.21 769.973 1235.75 767.726C1236.33 767.257 1236.92 766.782 1237.5 766.305ZM1243.9 773.703C1245.29 772.561 1246.65 771.403 1247.99 770.239C1250.66 772.832 1253.22 775.337 1255.61 777.733C1254.2 779.027 1252.75 780.294 1251.25 781.531C1248.65 779.276 1245.91 776.868 1243.09 774.351C1243.35 774.137 1243.62 773.923 1243.89 773.701L1243.9 773.703ZM1248.09 770.15C1249.9 768.57 1251.65 766.966 1253.34 765.358C1255.83 768.011 1258.16 770.617 1260.31 773.147C1258.84 774.669 1257.31 776.168 1255.71 777.643C1253.31 775.246 1250.76 772.743 1248.09 770.15ZM1248 770.058C1245.75 767.881 1243.42 765.648 1241.03 763.375C1242.96 761.746 1244.86 760.117 1246.7 758.491C1248.98 760.765 1251.17 763.033 1253.26 765.259C1251.56 766.868 1249.81 768.47 1248 770.058ZM1246.8 758.403C1248.76 756.669 1250.66 754.953 1252.49 753.248C1254.62 755.491 1256.64 757.745 1258.53 759.994C1256.88 761.726 1255.15 763.455 1253.35 765.169C1251.26 762.942 1249.07 760.683 1246.8 758.403ZM1246.7 758.311C1245.34 756.945 1243.93 755.572 1242.51 754.211C1244.55 752.495 1246.54 750.792 1248.48 749.13C1249.82 750.464 1251.14 751.807 1252.41 753.15C1250.58 754.855 1248.67 756.577 1246.7 758.311ZM1248.57 749.039C1251.25 746.731 1253.82 744.481 1256.24 742.327C1257.44 743.573 1258.59 744.826 1259.71 746.095C1257.46 748.362 1255.05 750.692 1252.5 753.059C1251.23 751.717 1249.92 750.374 1248.57 749.039ZM1243.04 743.781C1241.6 742.469 1240.17 741.2 1238.72 739.965C1241.68 737.8 1244.55 735.781 1247.3 733.933C1248.64 735.064 1249.96 736.236 1251.26 737.446C1248.63 739.444 1245.87 741.561 1243.04 743.789L1243.04 743.781ZM1242.93 743.867C1240.9 745.456 1238.82 747.102 1236.72 748.785C1235.24 747.436 1233.76 746.104 1232.28 744.808C1234.42 743.16 1236.53 741.566 1238.61 740.049C1240.05 741.285 1241.49 742.564 1242.93 743.876L1242.93 743.867ZM1232.18 744.714C1229.69 742.521 1227.21 740.418 1224.77 738.41C1226.88 736.85 1228.99 735.36 1231.1 733.948C1233.56 735.839 1236.04 737.848 1238.5 739.955C1236.42 741.477 1234.31 743.072 1232.18 744.714ZM1232.07 744.801C1230.09 746.331 1228.1 747.895 1226.11 749.51C1223.68 747.286 1221.25 745.101 1218.87 742.978C1220.78 741.422 1222.72 739.924 1224.65 738.486C1227.08 740.482 1229.56 742.585 1232.06 744.79L1232.07 744.801ZM1218.77 742.891C1215.97 740.389 1213.23 737.978 1210.61 735.712C1210.69 735.644 1210.77 735.576 1210.84 735.516C1212.49 734.158 1214.18 732.862 1215.88 731.619C1218.66 733.701 1221.57 735.967 1224.54 738.416C1222.61 739.855 1220.68 741.355 1218.77 742.9L1218.77 742.891ZM1210.75 735.407C1210.67 735.473 1210.59 735.549 1210.51 735.617C1208.56 733.931 1206.68 732.32 1204.89 730.807C1205.25 730.503 1205.61 730.19 1205.98 729.888C1207.16 728.921 1208.35 727.993 1209.57 727.095C1211.56 728.454 1213.62 729.935 1215.77 731.531C1214.07 732.766 1212.4 734.058 1210.75 735.407ZM1210.41 735.706C1208.91 736.944 1207.46 738.203 1206.05 739.497C1204.23 737.685 1202.53 735.961 1200.95 734.335C1202.18 733.162 1203.46 732.019 1204.77 730.902C1206.54 732.39 1208.42 733.99 1210.4 735.704L1210.41 735.706ZM1205.96 739.587C1204.36 741.054 1202.83 742.553 1201.35 744.075C1199.72 742.168 1198.21 740.316 1196.83 738.538C1198.11 737.144 1199.45 735.772 1200.86 734.434C1202.46 736.074 1204.16 737.798 1205.96 739.587ZM1206.05 739.68C1208.46 742.08 1211.02 744.594 1213.67 747.173C1211.86 748.752 1210.1 750.355 1208.41 751.963C1205.9 749.288 1203.57 746.681 1201.43 744.174C1202.91 742.652 1204.44 741.152 1206.04 739.678L1206.05 739.68ZM1213.77 747.267C1216.04 749.458 1218.36 751.699 1220.73 753.95C1218.79 755.577 1216.91 757.208 1215.07 758.833C1212.78 756.541 1210.58 754.28 1208.51 752.066C1210.2 750.449 1211.96 748.847 1213.77 747.267ZM1214.97 758.922C1213 760.648 1211.1 762.371 1209.27 764.076C1207.13 761.821 1205.12 759.56 1203.23 757.331C1204.88 755.599 1206.61 753.878 1208.41 752.156C1210.5 754.383 1212.69 756.642 1214.97 758.922ZM1215.06 759.014C1216.43 760.379 1217.83 761.753 1219.25 763.114C1217.21 764.83 1215.23 766.525 1213.29 768.187C1211.94 766.842 1210.62 765.499 1209.36 764.158C1211.19 762.453 1213.1 760.732 1215.06 759.006L1215.06 759.014ZM1213.2 768.286C1210.51 770.594 1207.95 772.844 1205.52 774.998C1204.32 773.751 1203.17 772.499 1202.06 771.229C1204.3 768.963 1206.71 766.633 1209.26 764.265C1210.54 765.608 1211.85 766.951 1213.2 768.286ZM1218.73 773.535C1220.16 774.847 1221.6 776.116 1223.04 777.36C1220.11 779.504 1217.25 781.517 1214.47 783.394C1213.13 782.263 1211.81 781.099 1210.5 779.887C1213.14 777.889 1215.88 775.77 1218.73 773.544L1218.73 773.535ZM1218.83 773.455C1220.86 771.859 1222.93 770.221 1225.04 768.538C1226.52 769.887 1228 771.219 1229.48 772.514C1227.34 774.156 1225.23 775.751 1223.15 777.274C1221.71 776.038 1220.26 774.759 1218.83 773.447L1218.83 773.455ZM1229.58 772.609C1232.07 774.802 1234.54 776.905 1236.99 778.913C1234.88 780.473 1232.77 781.963 1230.67 783.377C1228.21 781.496 1225.73 779.497 1223.25 777.376C1225.33 775.853 1227.45 774.259 1229.58 772.617L1229.58 772.609ZM1229.69 772.522C1231.67 770.991 1233.65 769.428 1235.64 767.813C1238.1 770.059 1240.52 772.244 1242.88 774.343C1240.97 775.89 1239.04 777.39 1237.1 778.826C1234.66 776.818 1232.18 774.715 1229.68 772.52L1229.69 772.522ZM1242.99 774.431C1245.81 776.948 1248.54 779.355 1251.15 781.611C1251.07 781.679 1250.99 781.739 1250.91 781.807C1249.25 783.171 1247.57 784.469 1245.88 785.704C1243.07 783.607 1240.17 781.333 1237.22 778.906C1239.15 777.468 1241.07 775.976 1242.98 774.421L1242.99 774.431ZM1251 781.915C1251.09 781.849 1251.17 781.773 1251.25 781.705C1253.2 783.394 1255.07 785.003 1256.87 786.516C1256.51 786.828 1256.15 787.133 1255.78 787.443C1254.6 788.41 1253.4 789.33 1252.18 790.227C1250.18 788.865 1248.11 787.382 1245.99 785.8C1247.68 784.565 1249.35 783.273 1251 781.923L1251 781.915ZM1251.35 781.617C1252.85 780.378 1254.3 779.111 1255.71 777.826C1257.5 779.615 1259.2 781.34 1260.81 782.98C1259.58 784.152 1258.3 785.304 1256.97 786.419C1255.18 784.906 1253.3 783.306 1251.35 781.609L1251.35 781.617ZM1255.8 777.735C1257.4 776.269 1258.93 774.769 1260.4 773.254C1262.01 775.148 1263.52 777 1264.92 778.791C1263.64 780.185 1262.29 781.556 1260.89 782.887C1259.29 781.239 1257.59 779.523 1255.8 777.735ZM1260.49 773.155C1262.06 771.526 1263.56 769.879 1264.98 768.203C1266.41 770.193 1267.74 772.158 1268.94 774.082C1267.7 775.645 1266.39 777.18 1265.02 778.692C1263.62 776.902 1262.11 775.05 1260.49 773.155ZM1260.4 773.046C1258.24 770.516 1255.91 767.91 1253.44 765.259C1255.23 763.546 1256.97 761.816 1258.62 760.093C1260.89 762.781 1262.99 765.453 1264.9 768.089C1263.48 769.764 1261.98 771.42 1260.41 773.048L1260.4 773.046ZM1258.7 759.992C1261 757.582 1263.14 755.16 1265.1 752.764C1267.09 755.426 1268.88 758.103 1270.47 760.747C1268.81 763.181 1266.98 765.601 1264.98 767.978C1263.08 765.344 1260.97 762.67 1258.7 759.992ZM1258.61 759.883C1256.71 757.642 1254.69 755.389 1252.57 753.146C1255.12 750.778 1257.53 748.456 1259.78 746.19C1261.65 748.328 1263.4 750.484 1265.02 752.647C1263.05 755.043 1260.91 757.465 1258.6 759.881L1258.61 759.883ZM1259.88 746.093C1262.16 743.784 1264.28 741.548 1266.19 739.41C1267.76 741.309 1269.22 743.253 1270.57 745.224C1268.96 747.617 1267.13 750.071 1265.11 752.54C1263.48 750.373 1261.73 748.219 1259.87 746.099L1259.88 746.093ZM1259.79 745.993C1258.67 744.723 1257.51 743.477 1256.33 742.234C1258.78 740.046 1261.09 737.958 1263.22 735.985C1264.21 737.078 1265.19 738.175 1266.11 739.303C1264.19 741.448 1262.08 743.685 1259.79 745.993ZM1256.23 742.132C1254.7 740.555 1253.13 739.001 1251.5 737.476C1251.48 737.472 1251.48 737.454 1251.46 737.441C1254.17 735.392 1256.72 733.495 1259.09 731.772C1260.49 733.109 1261.83 734.476 1263.11 735.883C1260.99 737.855 1258.68 739.943 1256.23 742.132ZM1251.35 737.345C1250.05 736.144 1248.72 734.971 1247.4 733.842C1250.28 731.903 1253.03 730.15 1255.62 728.593C1256.44 729.304 1257.25 730.022 1258.05 730.764C1258.37 731.059 1258.68 731.369 1258.99 731.67C1256.6 733.413 1254.04 735.316 1251.36 737.347L1251.35 737.345ZM1247.29 733.746C1244.99 731.799 1242.64 729.955 1240.27 728.242C1243.36 726.492 1246.39 724.947 1249.34 723.624C1251.44 725.14 1253.5 726.769 1255.5 728.505C1252.89 730.082 1250.13 731.834 1247.29 733.746ZM1247.17 733.822C1244.39 735.691 1241.52 737.71 1238.59 739.854C1236.13 737.747 1233.66 735.741 1231.18 733.847C1234.19 731.834 1237.19 729.984 1240.14 728.314C1242.51 730.027 1244.86 731.873 1247.16 733.82L1247.17 733.822ZM1231.08 733.761C1228.06 731.448 1225.03 729.309 1222.07 727.375C1225.01 725.521 1227.99 723.849 1230.96 722.368C1234 724.11 1237.03 726.068 1240.02 728.226C1237.08 729.898 1234.09 731.748 1231.08 733.761ZM1230.96 733.837C1228.86 735.251 1226.74 736.739 1224.64 738.301C1221.69 735.885 1218.79 733.61 1215.99 731.506C1217.95 730.076 1219.94 728.722 1221.94 727.45C1224.92 729.385 1227.93 731.522 1230.96 733.837ZM1215.87 731.426C1213.75 729.844 1211.68 728.361 1209.68 726.991C1211.45 725.68 1213.25 724.445 1215.07 723.294C1217.29 724.525 1219.54 725.887 1221.83 727.378C1219.82 728.65 1217.84 729.998 1215.88 731.428L1215.87 731.426ZM1209.44 726.995C1208.25 727.888 1207.05 728.8 1205.88 729.76C1205.5 730.069 1205.14 730.382 1204.78 730.694C1202.82 729.038 1200.97 727.503 1199.25 726.116C1199.91 725.536 1200.58 724.974 1201.26 724.409C1201.87 723.904 1202.5 723.413 1203.13 722.929C1205.11 724.113 1207.22 725.467 1209.45 726.987L1209.44 726.995ZM1204.67 730.797C1203.35 731.914 1202.08 733.052 1200.85 734.224C1199.07 732.393 1197.46 730.7 1196 729.148C1197.01 728.148 1198.05 727.173 1199.13 726.225C1200.82 727.59 1202.67 729.115 1204.67 730.797ZM1200.75 734.321C1199.35 735.654 1198.02 737.017 1196.73 738.411C1195.18 736.428 1193.8 734.537 1192.58 732.765C1193.64 731.568 1194.75 730.392 1195.9 729.253C1197.37 730.827 1199 732.525 1200.75 734.321ZM1196.73 738.619C1198.13 740.409 1199.63 742.261 1201.25 744.155C1199.69 745.778 1198.18 747.431 1196.78 749.101C1195.33 747.099 1194.01 745.136 1192.82 743.222C1194.05 741.66 1195.36 740.124 1196.73 738.621L1196.73 738.619ZM1201.33 744.254C1203.49 746.784 1205.82 749.39 1208.3 752.041C1206.5 753.755 1204.77 755.476 1203.12 757.208C1200.83 754.499 1198.73 751.816 1196.84 749.212C1198.25 747.536 1199.75 745.881 1201.33 744.252L1201.33 744.254ZM1203.03 757.308C1200.73 759.718 1198.59 762.141 1196.63 764.536C1194.65 761.874 1192.85 759.197 1191.27 756.553C1192.93 754.119 1194.75 751.699 1196.76 749.323C1198.66 751.956 1200.77 754.63 1203.03 757.308ZM1203.12 757.417C1205.02 759.658 1207.03 761.91 1209.16 764.155C1206.62 766.522 1204.21 768.846 1201.96 771.11C1200.09 768.972 1198.33 766.816 1196.72 764.653C1198.68 762.258 1200.82 759.835 1203.13 757.419L1203.12 757.417ZM1201.86 771.207C1199.57 773.517 1197.45 775.752 1195.53 777.888C1193.97 775.989 1192.51 774.045 1191.15 772.074C1192.77 769.673 1194.6 767.227 1196.61 764.758C1198.24 766.925 1199.99 769.079 1201.86 771.199L1201.86 771.207ZM1201.95 771.308C1203.06 772.577 1204.23 773.823 1205.42 775.068C1202.96 777.256 1200.66 779.344 1198.53 781.317C1197.53 780.224 1196.55 779.127 1195.63 777.999C1197.55 775.854 1199.66 773.617 1201.96 771.31L1201.95 771.308ZM1205.52 775.17C1207.03 776.745 1208.6 778.299 1210.24 779.816C1210.26 779.828 1210.27 779.84 1210.28 779.861C1207.6 781.892 1205.04 783.787 1202.65 785.53C1201.26 784.193 1199.92 782.826 1198.63 781.428C1200.73 779.484 1203.03 777.388 1205.52 775.179L1205.52 775.17ZM1210.39 779.947C1211.69 781.156 1213.01 782.32 1214.35 783.452C1211.5 785.372 1208.74 787.124 1206.13 788.701C1205.31 787.99 1204.5 787.272 1203.7 786.532C1203.38 786.237 1203.07 785.928 1202.76 785.626C1205.16 783.883 1207.72 781.98 1210.4 779.949L1210.39 779.947ZM1214.45 783.546C1216.75 785.493 1219.09 787.337 1221.47 789.05C1218.38 790.8 1215.35 792.345 1212.4 793.668C1210.29 792.15 1208.23 790.523 1206.23 788.795C1208.84 787.218 1211.6 785.466 1214.45 783.546ZM1214.58 783.464C1217.35 781.595 1220.23 779.576 1223.15 777.43C1225.61 779.537 1228.08 781.543 1230.55 783.436C1227.55 785.449 1224.56 787.294 1221.62 788.966C1219.25 787.263 1216.9 785.425 1214.59 783.466L1214.58 783.464ZM1230.67 783.524C1233.69 785.838 1236.71 787.975 1239.68 789.91C1236.72 791.769 1233.75 793.443 1230.8 794.906C1227.79 793.178 1224.76 791.219 1221.74 789.056C1224.69 787.384 1227.67 785.539 1230.66 783.533L1230.67 783.524ZM1230.79 783.44C1232.89 782.026 1235 780.544 1237.11 778.985C1240.06 781.403 1242.95 783.675 1245.76 785.78C1243.79 787.216 1241.8 788.57 1239.81 789.828C1236.86 787.909 1233.84 785.77 1230.79 783.44ZM1245.88 785.86C1248 787.441 1250.07 788.925 1252.07 790.295C1250.31 791.6 1248.5 792.843 1246.68 793.994C1244.49 792.769 1242.24 791.407 1239.93 789.91C1241.92 788.644 1243.91 787.29 1245.88 785.86ZM1260 788.942C1259.06 788.157 1258.07 787.337 1257.07 786.495C1258.39 785.378 1259.66 784.234 1260.89 783.062C1261.73 783.915 1262.53 784.745 1263.31 785.549C1264.19 786.475 1265 787.324 1265.75 788.13C1264.74 789.138 1263.69 790.11 1262.6 791.065C1261.78 790.407 1260.93 789.704 1259.99 788.932L1260 788.942ZM1263.41 785.46C1262.64 784.656 1261.83 783.818 1261 782.965C1262.39 781.632 1263.73 780.269 1265.02 778.875C1265.75 779.808 1266.45 780.735 1267.11 781.633C1267.84 782.628 1268.53 783.594 1269.17 784.521C1268.11 785.718 1267 786.894 1265.85 788.033C1265.03 787.166 1264.21 786.299 1263.41 785.46ZM1271.16 777.532C1270.52 776.396 1269.84 775.239 1269.11 774.072C1270.87 771.829 1272.49 769.532 1273.95 767.197C1275.08 769.565 1276.02 771.898 1276.78 774.168C1275.52 776.265 1274.13 778.32 1272.62 780.312C1272.17 779.411 1271.68 778.484 1271.15 777.53L1271.16 777.532ZM1269.04 773.95C1267.84 772.026 1266.51 770.061 1265.08 768.08C1267.07 765.709 1268.9 763.3 1270.56 760.866C1271.8 762.948 1272.91 765.016 1273.9 767.054C1272.44 769.397 1270.82 771.701 1269.05 773.953L1269.04 773.95ZM1270.65 760.722C1272.4 758.145 1273.97 755.549 1275.29 752.947C1276.36 754.978 1277.3 757.032 1278.13 759.095C1276.95 761.731 1275.56 764.343 1273.98 766.908C1272.99 764.852 1271.88 762.784 1270.65 760.722ZM1270.58 760.591C1268.98 757.926 1267.19 755.26 1265.22 752.627C1267.24 750.157 1269.06 747.711 1270.67 745.318C1272.35 747.767 1273.87 750.274 1275.21 752.806C1273.88 755.407 1272.33 758.013 1270.57 760.597L1270.58 760.591ZM1270.76 745.199C1271.27 744.428 1271.78 743.664 1272.25 742.899C1273.36 741.107 1274.32 739.382 1275.13 737.743C1276.49 739.802 1277.74 741.911 1278.83 744.045C1278.36 745.54 1277.81 747.077 1277.16 748.641C1276.6 749.976 1275.97 751.312 1275.29 752.652C1273.95 750.128 1272.44 747.64 1270.77 745.193L1270.76 745.199ZM1277.42 731.947C1278.5 728.208 1278.49 725.101 1277.35 722.791C1279.91 726.497 1280.92 731.245 1280.37 736.72C1279.45 735.091 1278.47 733.497 1277.41 731.936L1277.42 731.947ZM1277.32 731.801C1276.51 730.624 1275.66 729.461 1274.76 728.323C1276.46 725.472 1277.14 723.339 1276.74 722.018C1278.32 724.338 1278.5 727.668 1277.32 731.801ZM1277.26 731.988C1276.76 733.685 1276.05 735.513 1275.11 737.459C1274.05 735.872 1272.91 734.309 1271.7 732.783C1272.91 731.196 1273.9 729.749 1274.69 728.444C1275.6 729.603 1276.46 730.784 1277.27 731.98L1277.26 731.988ZM1275.04 737.615C1274.23 739.272 1273.26 741.012 1272.13 742.827C1271.67 743.567 1271.18 744.32 1270.68 745.076C1269.32 743.105 1267.87 741.171 1266.32 739.282C1266.8 738.737 1267.27 738.209 1267.73 737.676C1269.21 735.972 1270.5 734.38 1271.63 732.896C1272.85 734.434 1273.99 736.014 1275.05 737.609L1275.04 737.615ZM1267.62 737.596C1267.17 738.123 1266.7 738.645 1266.22 739.182C1265.3 738.062 1264.33 736.967 1263.33 735.874C1263.86 735.377 1264.38 734.893 1264.89 734.416C1266.36 733.04 1267.88 731.574 1269.33 730.15C1270.1 731.022 1270.83 731.904 1271.54 732.796C1270.41 734.28 1269.1 735.878 1267.62 737.596ZM1264.8 734.324C1264.29 734.801 1263.77 735.284 1263.24 735.774C1261.96 734.378 1260.62 733.01 1259.23 731.676C1261.78 729.822 1264.12 728.177 1266.19 726.765C1267.26 727.84 1268.27 728.928 1269.24 730.042C1267.99 731.286 1266.52 732.697 1264.8 734.316L1264.8 734.324ZM1261.16 730.106C1260.49 730.579 1259.81 731.075 1259.12 731.579C1258.8 731.276 1258.49 730.956 1258.16 730.659C1257.37 729.921 1256.57 729.214 1255.76 728.505C1258.56 726.825 1261.16 725.383 1263.5 724.211C1263.67 724.365 1263.83 724.508 1264 724.662C1264.72 725.322 1265.41 725.992 1266.08 726.677C1264.43 727.793 1262.76 728.97 1261.16 730.114L1261.16 730.106ZM1258.34 726.833C1257.47 727.336 1256.56 727.865 1255.65 728.41C1253.66 726.685 1251.6 725.058 1249.5 723.541C1250.99 722.874 1252.44 722.27 1253.87 721.719C1255.53 721.084 1257.11 720.554 1258.62 720.11C1260.25 721.364 1261.84 722.696 1263.39 724.115C1261.83 724.902 1260.13 725.806 1258.33 726.831L1258.34 726.833ZM1258.79 720.063C1261.13 719.377 1263.3 718.91 1265.27 718.673C1266.27 719.513 1267.24 720.384 1268.19 721.292C1268.36 721.454 1268.52 721.614 1268.69 721.768C1267.16 722.337 1265.45 723.089 1263.53 724.043C1261.99 722.645 1260.41 721.315 1258.78 720.061L1258.79 720.063ZM1268.29 721.202C1267.36 720.326 1266.42 719.48 1265.45 718.656C1267.93 718.375 1270.08 718.451 1271.88 718.886C1273.44 719.263 1274.74 719.916 1275.74 720.845C1274.45 720.212 1272.11 720.524 1268.83 721.733C1268.65 721.558 1268.48 721.386 1268.29 721.212L1268.29 721.202ZM1265.33 718.547C1263.76 717.221 1262.14 715.969 1260.48 714.801C1262.52 714.886 1264.44 715.14 1266.22 715.571C1269.73 716.419 1272.69 717.944 1275.02 720.107C1272.8 718.579 1269.51 718.062 1265.34 718.549L1265.33 718.547ZM1265.13 718.57C1263.16 718.816 1260.99 719.283 1258.66 719.979C1256.47 718.303 1254.21 716.758 1251.9 715.363C1254.84 714.901 1257.62 714.712 1260.2 714.796C1261.89 715.968 1263.54 717.228 1265.13 718.57ZM1258.49 720.018C1257 720.458 1255.44 720.986 1253.82 721.602C1252.37 722.155 1250.88 722.779 1249.37 723.457C1246.64 721.495 1243.85 719.723 1240.99 718.138C1243.64 717.229 1246.26 716.479 1248.83 715.927C1249.79 715.724 1250.73 715.542 1251.66 715.392C1253.98 716.789 1256.27 718.323 1258.49 720.016L1258.49 720.018ZM1249.23 723.519C1246.29 724.844 1243.25 726.389 1240.17 728.139C1237.19 725.984 1234.16 724.026 1231.12 722.283C1234.37 720.676 1237.62 719.306 1240.84 718.188C1243.69 719.773 1246.5 721.554 1249.23 723.519ZM1230.99 722.207C1228.58 720.825 1226.16 719.581 1223.75 718.486C1226.97 716.949 1230.21 715.646 1233.47 714.598C1235.89 715.627 1238.3 716.791 1240.68 718.106C1237.47 719.226 1234.22 720.599 1230.99 722.207ZM1230.84 722.277C1227.87 723.758 1224.9 725.424 1221.96 727.289C1219.68 725.798 1217.43 724.436 1215.21 723.206C1217.95 721.477 1220.76 719.928 1223.59 718.568C1226 719.663 1228.42 720.901 1230.84 722.286L1230.84 722.277ZM1215.08 723.122C1213.21 722.077 1211.37 721.121 1209.57 720.278C1209.01 720.012 1208.46 719.765 1207.91 719.527C1210.27 717.975 1212.7 716.571 1215.17 715.325C1217.89 716.173 1220.64 717.23 1223.43 718.486C1220.61 719.848 1217.81 721.399 1215.08 723.122ZM1207.76 719.458C1203.67 717.662 1200.03 716.538 1196.93 716.077C1198.33 715.005 1199.76 713.994 1201.23 713.054C1204.36 713.001 1207.8 713.407 1211.51 714.302C1212.53 714.549 1213.58 714.837 1214.65 715.155C1214.76 715.184 1214.88 715.229 1214.99 715.266C1212.53 716.514 1210.12 717.914 1207.77 719.46L1207.76 719.458ZM1196.75 716.048C1193.37 715.573 1190.66 715.9 1188.7 717.045C1191.82 714.518 1195.98 713.177 1200.97 713.052C1199.53 713.991 1198.12 714.989 1196.74 716.046L1196.75 716.048ZM1191.96 717.746C1192.57 717.893 1193.23 718.095 1193.92 718.34C1193.18 718.986 1192.44 719.644 1191.74 720.317C1189.7 718.885 1188.27 718.078 1187.61 718.034C1188.49 717.341 1189.97 717.264 1191.96 717.746ZM1194.07 718.393C1196.55 719.289 1199.57 720.801 1203.01 722.841C1202.4 723.318 1201.79 723.798 1201.19 724.296C1200.5 724.859 1199.83 725.437 1199.16 726.015C1196.29 723.685 1193.8 721.763 1191.85 720.397C1192.57 719.718 1193.31 719.045 1194.07 718.393ZM1199.04 726.116C1197.97 727.067 1196.93 728.033 1195.92 729.025C1193.38 726.306 1191.37 724.038 1189.93 722.289C1190.51 721.682 1191.11 721.088 1191.73 720.498C1193.61 721.831 1196.08 723.723 1199.03 726.114L1199.04 726.116ZM1195.82 729.138C1194.67 730.277 1193.57 731.439 1192.51 732.636C1190.41 729.553 1188.82 726.822 1187.85 724.561C1188.49 723.837 1189.15 723.118 1189.83 722.412C1191.3 724.211 1193.34 726.495 1195.81 729.146L1195.82 729.138ZM1187.78 724.405C1186.6 721.625 1186.37 719.551 1187.24 718.421C1187.29 719.043 1188.18 720.388 1189.74 722.304C1189.07 722.995 1188.42 723.698 1187.79 724.416L1187.78 724.405ZM1185.57 727.062C1184.59 728.295 1183.67 729.568 1182.8 730.863C1182.83 726.417 1183.94 722.539 1186.26 719.525C1185.23 721.413 1184.99 723.958 1185.56 727.06L1185.57 727.062ZM1185.6 727.261C1186.14 730.034 1187.29 733.244 1189.06 736.82C1187.56 738.804 1186.17 740.843 1184.92 742.931C1183.53 738.736 1182.81 734.77 1182.79 731.156C1183.67 729.828 1184.6 728.533 1185.59 727.259L1185.6 727.261ZM1189.13 736.957C1189.58 737.858 1190.07 738.785 1190.59 739.737C1191.23 740.874 1191.92 742.031 1192.64 743.198C1190.88 745.441 1189.26 747.737 1187.8 750.072C1186.68 747.704 1185.73 745.371 1184.97 743.109C1186.23 741.013 1187.62 738.957 1189.13 736.965L1189.13 736.957ZM1192.72 743.321C1193.92 745.245 1195.25 747.21 1196.68 749.191C1194.69 751.562 1192.86 753.971 1191.2 756.405C1189.96 754.323 1188.85 752.255 1187.86 750.218C1189.32 747.874 1190.94 745.57 1192.71 743.319L1192.72 743.321ZM1191.11 756.549C1189.36 759.127 1187.79 761.722 1186.47 764.324C1185.4 762.293 1184.46 760.239 1183.63 758.177C1184.81 755.541 1186.2 752.929 1187.78 750.363C1188.77 752.419 1189.88 754.487 1191.11 756.549ZM1191.18 756.68C1192.77 759.343 1194.57 762.011 1196.54 764.645C1194.52 767.114 1192.7 769.56 1191.09 771.953C1189.41 769.504 1187.89 766.997 1186.55 764.466C1187.87 761.864 1189.43 759.258 1191.19 756.674L1191.18 756.68ZM1191 772.072C1190.49 772.843 1189.98 773.608 1189.51 774.372C1188.39 776.171 1187.43 777.897 1186.62 779.545C1185.26 777.494 1184.04 775.389 1182.93 773.243C1183.4 771.739 1183.95 770.203 1184.61 768.623C1185.17 767.289 1185.79 765.951 1186.47 764.612C1187.81 767.135 1189.32 769.623 1190.99 772.07L1191 772.072ZM1184.34 785.325C1183.26 789.064 1183.27 792.17 1184.41 794.472C1181.85 790.766 1180.84 786.018 1181.4 780.543C1182.31 782.172 1183.29 783.766 1184.35 785.327L1184.34 785.325ZM1184.44 785.47C1185.25 786.648 1186.1 787.811 1187 788.949C1185.29 791.797 1184.62 793.932 1185.02 795.254C1183.44 792.934 1183.27 789.606 1184.44 785.47ZM1184.5 785.284C1184.99 783.587 1185.7 781.758 1186.65 779.804C1187.71 781.391 1188.86 782.954 1190.06 784.48C1188.85 786.067 1187.86 787.514 1187.07 788.819C1186.16 787.661 1185.31 786.479 1184.5 785.284ZM1186.72 779.672C1187.53 778.008 1188.5 776.267 1189.63 774.446C1190.1 773.706 1190.58 772.954 1191.09 772.197C1192.45 774.16 1193.9 776.103 1195.45 777.991C1194.97 778.536 1194.5 779.065 1194.04 779.597C1192.56 781.302 1191.27 782.893 1190.14 784.377C1188.93 782.849 1187.78 781.276 1186.72 779.681L1186.72 779.672ZM1194.15 779.677C1194.6 779.151 1195.07 778.628 1195.54 778.092C1196.47 779.211 1197.44 780.306 1198.44 781.399C1197.91 781.897 1197.39 782.38 1196.88 782.857C1195.41 784.233 1193.89 785.692 1192.44 787.125C1191.68 786.254 1190.94 785.38 1190.23 784.486C1191.36 783.002 1192.66 781.404 1194.15 779.685L1194.15 779.677ZM1198.54 781.512C1199.82 782.908 1201.16 784.276 1202.55 785.61C1201.87 786.106 1201.19 786.594 1200.53 787.069C1198.66 788.401 1197.02 789.545 1195.59 790.52C1194.53 789.456 1193.52 788.359 1192.54 787.244C1194.27 785.533 1196.29 783.61 1198.54 781.528L1198.54 781.512ZM1200.62 787.17C1201.29 786.696 1201.97 786.2 1202.65 785.696C1202.97 786 1203.29 786.319 1203.62 786.617C1204.41 787.346 1205.21 788.062 1206.02 788.763C1205.12 789.302 1204.24 789.827 1203.38 790.315C1201.55 791.353 1199.86 792.273 1198.27 793.056C1198.11 792.904 1197.94 792.759 1197.78 792.607C1197.08 791.949 1196.38 791.277 1195.71 790.592C1197.35 789.477 1199.03 788.299 1200.63 787.155L1200.62 787.17ZM1203.44 790.442C1204.32 789.942 1205.21 789.411 1206.12 788.865C1208.12 790.591 1210.18 792.218 1212.28 793.734C1210.79 794.393 1209.33 795.006 1207.9 795.556C1206.25 796.191 1204.67 796.713 1203.15 797.165C1201.53 795.911 1199.93 794.577 1198.37 793.167C1199.95 792.382 1201.63 791.484 1203.45 790.444L1203.44 790.442ZM1202.98 797.211C1200.64 797.896 1198.46 798.362 1196.49 798.599C1195.49 797.759 1194.52 796.889 1193.57 795.981C1193.41 795.819 1193.25 795.659 1193.08 795.506C1194.6 794.935 1196.33 794.17 1198.23 793.22C1199.77 794.618 1201.35 795.955 1202.97 797.209L1202.98 797.211ZM1193.49 796.082C1194.41 796.957 1195.35 797.802 1196.31 798.618C1191.72 799.142 1188.23 798.429 1186.07 796.474C1186.23 796.547 1186.41 796.615 1186.59 796.66C1187.95 796.988 1190.1 796.611 1192.95 795.561C1193.13 795.736 1193.31 795.908 1193.49 796.082ZM1189.87 798.529C1191.71 798.974 1193.92 799.048 1196.46 798.749C1198.02 800.064 1199.62 801.304 1201.27 802.468C1195.35 802.21 1190.33 800.494 1186.77 797.208C1187.65 797.802 1188.68 798.242 1189.87 798.529ZM1196.64 798.722C1198.61 798.476 1200.78 798.009 1203.13 797.315C1205.3 798.989 1207.55 800.515 1209.86 801.916C1206.93 802.375 1204.13 802.566 1201.5 802.472C1199.83 801.302 1198.21 800.05 1196.64 798.722ZM1203.29 797.268C1204.78 796.828 1206.33 796.298 1207.95 795.681C1209.41 795.129 1210.89 794.504 1212.4 793.826C1215.12 795.787 1217.92 797.567 1220.75 799.148C1217.07 800.414 1213.49 801.331 1210.08 801.883C1207.76 800.497 1205.5 798.958 1203.29 797.268ZM1212.54 793.764C1215.48 792.439 1218.52 790.886 1221.61 789.136C1224.59 791.292 1227.61 793.248 1230.64 794.988C1227.36 796.605 1224.11 797.976 1220.93 799.077C1218.08 797.493 1215.27 795.727 1212.54 793.754L1212.54 793.764ZM1230.8 795.078C1233.21 796.461 1235.62 797.705 1238.03 798.8C1234.82 800.337 1231.57 801.64 1228.32 802.68C1225.89 801.651 1223.49 800.486 1221.1 799.172C1224.32 798.052 1227.55 796.677 1230.8 795.078ZM1230.97 794.998C1233.93 793.523 1236.89 791.855 1239.82 790.007C1242.11 791.498 1244.36 792.86 1246.58 794.09C1243.84 795.819 1241.04 797.362 1238.22 798.724C1235.84 797.635 1233.41 796.388 1230.98 795L1230.97 794.998ZM1246.7 794.164C1248.58 795.208 1250.41 796.164 1252.21 797.007C1252.77 797.273 1253.33 797.521 1253.87 797.764C1251.51 799.308 1249.1 800.708 1246.63 801.956C1243.95 801.125 1241.18 800.074 1238.37 798.795C1241.19 797.431 1243.97 795.887 1246.7 794.164ZM1254.02 797.828C1257.03 799.145 1259.8 800.11 1262.28 800.71C1263.17 800.926 1264.03 801.089 1264.85 801.209C1263.46 802.273 1262.03 803.277 1260.58 804.214C1257.39 804.268 1253.92 803.846 1250.23 802.957C1249.12 802.688 1247.98 802.359 1246.83 802.003C1249.28 800.753 1251.68 799.359 1254.02 797.82L1254.02 797.828ZM1265.03 801.244C1268.37 801.713 1271.08 801.4 1273.03 800.28C1269.88 802.807 1265.71 804.095 1260.83 804.221C1262.26 803.289 1263.66 802.297 1265.03 801.252L1265.03 801.244ZM1267.85 798.943C1268.6 798.298 1269.33 797.639 1270.05 796.961C1271.79 798.182 1273.18 799.031 1273.94 799.215C1274.02 799.233 1274.09 799.25 1274.15 799.248C1273.03 800.132 1270.88 800.023 1267.85 798.943ZM1267.71 798.89C1265.26 798.005 1262.26 796.515 1258.77 794.436C1259.39 793.967 1260 793.48 1260.6 792.99C1261.29 792.426 1261.96 791.85 1262.62 791.262C1265.2 793.346 1267.81 795.385 1269.93 796.881C1269.21 797.568 1268.47 798.232 1267.71 798.882L1267.71 798.89ZM1262.72 791.174C1263.8 790.225 1264.85 789.244 1265.86 788.245C1268.67 791.244 1270.57 793.418 1271.86 794.989C1271.26 795.593 1270.65 796.194 1270.04 796.784C1268.34 795.592 1265.99 793.807 1262.73 791.176L1262.72 791.174ZM1265.96 788.154C1267.11 787.015 1268.2 785.845 1269.26 784.656C1271.41 787.792 1272.97 790.511 1273.93 792.741C1273.29 793.473 1272.62 794.182 1271.94 794.888C1270.34 792.927 1268.17 790.524 1265.95 788.152L1265.96 788.154ZM1273.99 792.878C1275.18 795.714 1275.39 797.747 1274.54 798.871C1274.48 798.222 1273.51 796.805 1272.03 794.996C1272.7 794.305 1273.35 793.594 1273.99 792.878ZM1276.21 790.222C1277.18 788.988 1278.11 787.716 1278.97 786.421C1278.95 790.867 1277.82 794.743 1275.51 797.759C1276.55 795.87 1276.78 793.326 1276.22 790.224L1276.21 790.222ZM1276.18 790.041C1275.64 787.26 1274.49 784.05 1272.71 780.464C1274.22 778.48 1275.6 776.441 1276.86 774.353C1278.25 778.566 1278.97 782.55 1278.98 786.17C1278.11 787.49 1277.17 788.785 1276.18 790.041ZM1276.96 774.186C1278.38 771.815 1279.63 769.377 1280.7 766.897C1280.75 767.109 1280.81 767.316 1280.86 767.527C1281.99 772.252 1282.39 776.74 1282.09 780.903C1281.19 782.617 1280.2 784.292 1279.13 785.928C1279.09 782.38 1278.37 778.439 1276.95 774.184L1276.96 774.186ZM1276.9 774.016C1276.71 773.448 1276.52 772.887 1276.3 772.305C1275.65 770.575 1274.9 768.826 1274.06 767.068C1275.64 764.511 1277.04 761.918 1278.22 759.29C1279.2 761.744 1280.01 764.219 1280.64 766.684C1279.58 769.174 1278.32 771.628 1276.9 774.016ZM1280.61 752.658C1279.96 754.761 1279.15 756.863 1278.22 758.942C1277.39 756.888 1276.45 754.845 1275.39 752.822C1276.08 751.451 1276.73 750.085 1277.3 748.718C1277.93 747.194 1278.48 745.7 1278.93 744.244C1279.85 746.049 1280.68 747.875 1281.41 749.712C1281.18 750.681 1280.91 751.661 1280.6 752.656L1280.61 752.658ZM1279 744.042C1279.73 741.672 1280.22 739.39 1280.47 737.215C1281.26 738.657 1281.98 740.12 1282.64 741.601C1282.52 744.127 1282.13 746.746 1281.47 749.441C1280.74 747.61 1279.91 745.811 1278.99 744.032L1279 744.042ZM1280.51 736.946C1281.03 732.046 1280.32 727.735 1278.39 724.198C1281.48 728.981 1282.93 734.782 1282.67 741.234C1282.01 739.779 1281.29 738.353 1280.52 736.948L1280.51 736.946ZM1274.71 728.24C1274.19 727.584 1273.66 726.934 1273.12 726.299C1275.04 724.199 1276.38 722.495 1276.48 721.686C1277.18 722.898 1276.57 725.133 1274.71 728.24ZM1274.64 728.37C1273.85 729.667 1272.85 731.122 1271.65 732.709C1270.94 731.825 1270.2 730.952 1269.45 730.082C1270.74 728.795 1271.97 727.545 1273.03 726.399C1273.58 727.045 1274.12 727.706 1274.64 728.37ZM1269.36 729.982C1268.38 728.877 1267.38 727.782 1266.33 726.72C1267.99 725.598 1269.46 724.641 1270.74 723.847C1271.5 724.648 1272.24 725.468 1272.94 726.299C1272 727.308 1270.84 728.522 1269.36 729.982ZM1266.22 726.615C1265.54 725.929 1264.84 725.246 1264.12 724.586C1263.97 724.445 1263.81 724.303 1263.66 724.17C1265.55 723.226 1267.28 722.47 1268.81 721.893C1269.43 722.504 1270.04 723.121 1270.64 723.744C1269.28 724.58 1267.77 725.564 1266.22 726.615ZM1268.95 721.839C1271.69 720.833 1273.82 720.441 1275.15 720.764C1275.52 720.853 1275.83 720.997 1276.08 721.197C1275.26 721.137 1273.26 722.142 1270.76 723.676C1270.16 723.055 1269.56 722.44 1268.95 721.839ZM1260.31 714.683C1258.81 713.642 1257.29 712.665 1255.72 711.756C1257.69 711.935 1259.58 712.236 1261.38 712.671C1266.2 713.836 1270.39 715.927 1273.78 718.877C1270.33 716.287 1265.76 714.877 1260.31 714.674L1260.31 714.683ZM1260.03 714.677C1257.46 714.603 1254.69 714.802 1251.75 715.275C1249.73 714.065 1247.66 712.957 1245.56 711.963C1249 711.559 1252.27 711.488 1255.36 711.74C1256.95 712.645 1258.51 713.63 1260.03 714.677ZM1251.52 715.315C1250.63 715.458 1249.74 715.625 1248.84 715.824C1246.23 716.385 1243.57 717.151 1240.87 718.083C1238.51 716.773 1236.11 715.602 1233.7 714.575C1237.57 713.345 1241.45 712.474 1245.27 712.006C1247.38 712.995 1249.48 714.1 1251.52 715.325L1251.52 715.315ZM1233.49 714.483C1230.55 713.241 1227.58 712.201 1224.61 711.405C1228.52 710.09 1232.5 709.156 1236.49 708.614C1239.36 709.498 1242.22 710.59 1245.04 711.89C1241.23 712.368 1237.36 713.251 1233.49 714.483ZM1233.3 714.541C1230.05 715.591 1226.82 716.896 1223.61 718.435C1220.83 717.172 1218.08 716.115 1215.36 715.259C1218.31 713.78 1221.32 712.517 1224.37 711.479C1227.35 712.269 1230.34 713.295 1233.3 714.541ZM1215.18 715.198C1215.02 715.151 1214.87 715.096 1214.71 715.049C1209.87 713.592 1205.42 712.901 1201.47 712.938C1203.34 711.746 1205.27 710.655 1207.23 709.668C1211.03 709.385 1215.09 709.603 1219.37 710.358C1220.58 710.571 1221.79 710.83 1223 711.122C1223.38 711.214 1223.76 711.322 1224.14 711.422C1221.11 712.464 1218.11 713.723 1215.18 715.206L1215.18 715.198ZM1201.2 712.943C1196.69 713.026 1192.82 714.083 1189.8 716.109C1194.37 712.43 1200.18 710.261 1206.87 709.702C1204.93 710.678 1203.04 711.761 1201.2 712.943ZM1187.83 718.208C1188.47 718.363 1189.77 719.137 1191.65 720.453C1191.05 721.028 1190.45 721.615 1189.87 722.205C1188.02 719.941 1187.16 718.567 1187.43 718.25C1187.43 718.25 1187.44 718.236 1187.45 718.229C1187.52 718.168 1187.65 718.155 1187.84 718.202L1187.83 718.208ZM1182.66 731.142C1181.6 732.739 1180.62 734.39 1179.73 736.069C1180.21 730.132 1182.12 724.872 1185.4 720.586C1183.57 723.465 1182.64 727.033 1182.65 731.14L1182.66 731.142ZM1182.66 731.43C1182.71 734.972 1183.43 738.894 1184.84 743.13C1183.43 745.502 1182.18 747.939 1181.1 750.419C1181.05 750.206 1180.99 750.001 1180.94 749.789C1179.83 745.093 1179.42 740.63 1179.71 736.481C1180.61 734.759 1181.59 733.076 1182.67 731.423L1182.66 731.43ZM1184.9 743.3C1185.09 743.869 1185.29 744.429 1185.5 745.012C1186.15 746.742 1186.91 748.49 1187.74 750.249C1186.16 752.805 1184.76 755.399 1183.58 758.027C1182.6 755.573 1181.79 753.098 1181.16 750.633C1182.23 748.142 1183.48 745.689 1184.91 743.303L1184.9 743.3ZM1181.19 764.659C1181.85 762.555 1182.65 760.453 1183.58 758.374C1184.41 760.428 1185.35 762.472 1186.42 764.495C1185.72 765.865 1185.08 767.232 1184.51 768.598C1183.87 770.131 1183.32 771.625 1182.86 773.095C1181.94 771.308 1181.11 769.491 1180.37 767.652C1180.61 766.666 1180.88 765.678 1181.19 764.667L1181.19 764.659ZM1182.8 773.274C1182.07 775.645 1181.58 777.927 1181.32 780.1C1180.54 778.658 1179.81 777.195 1179.15 775.713C1179.28 773.187 1179.67 770.569 1180.32 767.874C1181.06 769.704 1181.88 771.504 1182.8 773.282L1182.8 773.274ZM1181.29 780.371C1180.77 785.271 1181.48 789.582 1183.42 793.119C1180.32 788.335 1178.88 782.535 1179.13 776.083C1179.79 777.538 1180.51 778.964 1181.29 780.369L1181.29 780.371ZM1187.09 789.076C1187.61 789.732 1188.14 790.382 1188.69 791.018C1186.76 793.117 1185.43 794.822 1185.32 795.631C1184.62 794.419 1185.23 792.184 1187.09 789.076ZM1187.17 788.947C1187.95 787.65 1188.95 786.194 1190.15 784.607C1190.86 785.491 1191.6 786.365 1192.35 787.234C1191.06 788.521 1189.83 789.772 1188.77 790.917C1188.22 790.271 1187.69 789.611 1187.17 788.947ZM1192.45 787.345C1193.43 788.45 1194.43 789.545 1195.48 790.607C1193.72 791.798 1192.26 792.743 1191.06 793.478C1190.3 792.677 1189.57 791.856 1188.85 791.024C1189.86 789.944 1191.06 788.712 1192.44 787.343L1192.45 787.345ZM1195.58 790.701C1196.26 791.388 1196.97 792.071 1197.68 792.731C1197.84 792.872 1197.99 793.005 1198.15 793.147C1196.23 794.102 1194.52 794.853 1192.99 795.424C1192.37 794.813 1191.76 794.196 1191.17 793.575C1192.53 792.739 1194.04 791.755 1195.59 790.703L1195.58 790.701ZM1192.85 795.477C1189.3 796.785 1186.89 797.019 1185.75 796.127C1186.6 796.159 1188.58 795.149 1191.05 793.64C1191.64 794.262 1192.23 794.875 1192.85 795.477ZM1195.53 801.855C1197.38 802.302 1199.38 802.567 1201.51 802.638C1203 803.677 1204.53 804.656 1206.09 805.563C1198.8 804.913 1192.58 802.455 1187.91 798.335C1190.04 799.962 1192.59 801.145 1195.53 801.855ZM1201.75 802.644C1204.33 802.72 1207.11 802.522 1210.06 802.043C1212.08 803.254 1214.15 804.361 1216.25 805.356C1212.79 805.764 1209.5 805.828 1206.39 805.575C1204.81 804.661 1203.27 803.68 1201.75 802.636L1201.75 802.644ZM1210.28 802.01C1211.17 801.867 1212.06 801.691 1212.97 801.503C1215.58 800.942 1218.24 800.176 1220.92 799.25C1223.29 800.56 1225.7 801.733 1228.11 802.76C1224.24 803.99 1220.36 804.861 1216.53 805.329C1214.42 804.34 1212.33 803.235 1210.27 802.016L1210.28 802.01ZM1228.31 802.834C1231.26 804.077 1234.24 805.11 1237.21 805.906C1233.29 807.22 1229.3 808.16 1225.31 808.701C1222.44 807.816 1219.58 806.726 1216.76 805.419C1220.58 804.94 1224.44 804.066 1228.31 802.825L1228.31 802.834ZM1228.51 802.77C1231.76 801.728 1235 800.414 1238.19 798.873C1240.97 800.136 1243.73 801.193 1246.44 802.049C1243.49 803.536 1240.47 804.798 1237.41 805.833C1234.44 805.046 1231.46 804.005 1228.5 802.768L1228.51 802.77ZM1246.62 802.111C1246.78 802.157 1246.94 802.213 1247.1 802.26C1248.16 802.578 1249.21 802.866 1250.23 803.113C1253.86 803.99 1257.24 804.398 1260.32 804.368C1258.43 805.572 1256.5 806.661 1254.52 807.644C1250.73 807.921 1246.68 807.7 1242.42 806.949C1240.84 806.67 1239.25 806.311 1237.65 805.899C1240.69 804.859 1243.68 803.592 1246.61 802.108L1246.62 802.111ZM1260.59 804.372C1265.12 804.284 1269 803.213 1272.03 801.171C1267.45 804.864 1261.63 807.041 1254.93 807.604C1256.86 806.628 1258.75 805.545 1260.58 804.37L1260.59 804.372ZM1270.14 796.87C1270.76 796.288 1271.35 795.702 1271.94 795.103C1274.35 798.079 1274.5 798.853 1274.39 799.044C1274.37 799.056 1274.35 799.079 1274.34 799.102C1274.14 799.219 1273.34 799.113 1270.14 796.87ZM1279.13 786.181C1280.19 784.583 1281.17 782.933 1282.06 781.254C1281.59 787.191 1279.67 792.451 1276.39 796.737C1278.22 793.857 1279.15 790.289 1279.14 786.183L1279.13 786.181ZM1282.22 780.952C1283.44 778.622 1284.5 776.215 1285.39 773.752C1284.81 781.734 1282.19 789.233 1277.44 795.495C1280.22 791.366 1281.82 786.447 1282.21 780.95L1282.22 780.952ZM1282.24 780.609C1282.49 776.522 1282.08 772.119 1280.98 767.505C1280.92 767.238 1280.84 766.975 1280.77 766.706C1282.08 763.641 1283.12 760.518 1283.87 757.35C1285.21 762.701 1285.74 768.064 1285.43 773.222C1284.54 775.747 1283.47 778.219 1282.24 780.609ZM1283.93 756.521C1283.91 756.595 1283.89 756.669 1283.88 756.743C1283.25 754.358 1282.48 751.998 1281.55 749.668C1282.2 746.99 1282.61 744.384 1282.75 741.878C1283.62 743.873 1284.4 745.894 1285.05 747.93C1284.93 750.729 1284.57 753.598 1283.93 756.521ZM1282.78 741.529C1283.07 735.33 1281.8 729.726 1279.03 725.022C1283.28 731.432 1285.33 739.11 1285.08 747.441C1284.43 745.44 1283.65 743.47 1282.79 741.531L1282.78 741.529ZM1276.31 721.462C1276.46 721.759 1276.16 722.78 1273.01 726.204C1272.31 725.382 1271.58 724.572 1270.84 723.783C1273.64 722.06 1275.5 721.17 1276.12 721.321C1276.19 721.337 1276.25 721.37 1276.29 721.413C1276.3 721.425 1276.31 721.443 1276.31 721.454L1276.31 721.462ZM1255.43 711.608C1253.27 710.363 1251.03 709.242 1248.76 708.266C1251.27 708.473 1253.72 708.864 1256.06 709.429C1262.48 710.981 1268.17 713.859 1272.82 717.94C1268.21 714.331 1262.3 712.181 1255.44 711.619L1255.43 711.608ZM1255.05 711.578C1252 711.353 1248.76 711.44 1245.38 711.84C1245.36 711.836 1245.33 711.846 1245.31 711.85C1242.55 710.557 1239.72 709.457 1236.87 708.558C1238.6 708.333 1240.33 708.187 1242.06 708.116C1244.17 708.035 1246.24 708.075 1248.26 708.223C1250.56 709.197 1252.84 710.321 1255.05 711.578ZM1242.05 707.993C1240.22 708.064 1238.39 708.231 1236.56 708.474C1232.28 707.163 1227.93 706.303 1223.57 705.936C1221.33 705.753 1219.14 705.709 1216.99 705.782C1220.74 704.637 1224.6 703.863 1228.5 703.45C1231.83 703.689 1235.17 704.209 1238.49 705.011C1241.81 705.813 1244.78 706.8 1247.86 708.066C1245.97 707.94 1244.04 707.916 1242.06 707.995L1242.05 707.993ZM1232.71 707.579C1233.86 707.858 1235.02 708.181 1236.17 708.528C1232.21 709.085 1228.26 710.027 1224.37 711.348C1222.71 710.903 1221.03 710.542 1219.38 710.247C1215.22 709.512 1211.26 709.276 1207.54 709.526C1210.42 708.109 1213.39 706.913 1216.43 705.96C1221.73 705.717 1227.21 706.261 1232.7 707.587L1232.71 707.579ZM1207.18 709.551C1200.83 710.034 1195.24 711.963 1190.73 715.23C1197.72 709.554 1206.49 706.507 1215.91 705.983C1212.93 706.949 1210.01 708.14 1207.18 709.551ZM1179.55 736.348C1178.31 738.718 1177.24 741.171 1176.34 743.675C1176.91 735.43 1179.64 727.925 1184.37 721.737C1181.56 725.877 1179.95 730.826 1179.55 736.356L1179.55 736.348ZM1179.52 736.767C1179.28 740.839 1179.69 745.208 1180.78 749.793C1180.84 750.06 1180.92 750.323 1180.99 750.592C1179.68 753.666 1178.63 756.813 1177.88 759.989C1177.39 758.027 1176.99 756.052 1176.72 754.073C1176.26 750.727 1176.12 747.466 1176.29 744.3C1177.18 741.74 1178.26 739.219 1179.51 736.765L1179.52 736.767ZM1177.84 760.779C1177.86 760.705 1177.88 760.631 1177.9 760.558C1178.52 762.942 1179.29 765.303 1180.22 767.632C1179.57 770.31 1179.16 772.917 1179.02 775.422C1178.15 773.427 1177.37 771.406 1176.72 769.37C1176.84 766.571 1177.2 763.702 1177.84 760.779ZM1178.99 775.771C1178.69 781.968 1179.97 787.574 1182.74 792.278C1178.49 785.868 1176.44 778.19 1176.69 769.859C1177.35 771.86 1178.12 773.83 1178.98 775.769L1178.99 775.771ZM1188.77 791.098C1189.47 791.92 1190.2 792.722 1190.94 793.519C1186.91 795.988 1185.81 796.115 1185.53 795.916C1185.51 795.904 1185.5 795.891 1185.48 795.879C1185.11 795.44 1186.31 793.749 1188.76 791.096L1188.77 791.098ZM1200.39 804.751C1202.28 805.207 1204.28 805.516 1206.36 805.688C1208.53 806.935 1210.75 808.054 1213.04 809.04C1203.54 808.251 1195.23 804.905 1188.88 799.291C1192.11 801.846 1195.99 803.688 1200.39 804.751ZM1206.65 805.706C1209.73 805.937 1212.98 805.862 1216.41 805.454C1216.42 805.458 1216.45 805.448 1216.47 805.444C1219.23 806.737 1222.06 807.837 1224.92 808.738C1223.19 808.963 1221.46 809.109 1219.73 809.18C1217.59 809.263 1215.5 809.227 1213.47 809.075C1211.15 808.089 1208.87 806.965 1206.67 805.71L1206.65 805.706ZM1219.73 809.309C1221.56 809.238 1223.4 809.073 1225.23 808.83C1226.48 809.21 1227.74 809.567 1229 809.871C1232.05 810.608 1235.13 811.108 1238.21 811.366C1240.41 811.549 1242.56 811.591 1244.68 811.528C1240.81 812.69 1236.88 813.462 1232.96 813.853C1226.39 813.346 1219.94 811.777 1213.82 809.23C1215.75 809.356 1217.72 809.388 1219.73 809.309ZM1225.6 808.772C1229.57 808.217 1233.53 807.269 1237.43 805.95C1237.87 806.067 1238.32 806.191 1238.76 806.297C1239.97 806.591 1241.19 806.85 1242.4 807.064C1246.55 807.796 1250.49 808.028 1254.2 807.784C1251.27 809.216 1248.27 810.403 1245.22 811.355C1238.84 811.632 1232.19 810.764 1225.6 808.772ZM1254.61 807.753C1260.95 807.266 1266.52 805.352 1271.02 802.101C1264.03 807.76 1255.27 810.809 1245.86 811.335C1248.85 810.372 1251.78 809.174 1254.61 807.761L1254.61 807.753ZM1279.6 792.59C1283.15 786.891 1285.19 780.27 1285.6 773.109C1286.53 770.471 1287.25 767.768 1287.78 765.007C1287.79 774.855 1285.09 784.43 1279.6 792.582L1279.6 792.59ZM1288.2 761.432C1288.12 762.107 1288.02 762.779 1287.91 763.44C1287.89 762.687 1287.85 761.921 1287.8 761.161C1287.48 756.63 1286.6 752.166 1285.21 747.831C1285.54 739.701 1283.66 732.169 1279.71 725.806C1286.8 736.075 1289.81 748.532 1288.2 761.432ZM1237.77 703.158C1241.5 703.337 1245.13 703.867 1248.63 704.714C1257.61 706.882 1265.71 711.177 1272.3 717.302C1265.93 711.945 1257.7 708.773 1248.34 708.069C1242.29 705.502 1235.89 703.896 1229.38 703.332C1232.16 703.081 1234.96 703.027 1237.77 703.158ZM1227.7 703.369C1223.88 703.813 1220.12 704.617 1216.46 705.767C1207.52 706.163 1199.4 708.794 1192.77 713.47C1202.64 705.951 1215.05 702.625 1227.7 703.361L1227.7 703.369ZM1182.18 724.677C1178.63 730.385 1176.59 736.998 1176.17 744.158C1175.25 746.796 1174.52 749.508 1174 752.26C1173.99 742.412 1176.68 732.837 1182.18 724.677ZM1173.88 753.969C1173.9 754.679 1173.93 755.391 1173.98 756.108C1174.31 760.639 1175.19 765.104 1176.57 769.438C1176.25 777.551 1178.11 785.064 1182.04 791.412C1174.42 780.318 1171.81 766.965 1173.88 753.969ZM1189.34 799.881C1193.92 803.761 1199.46 806.508 1205.69 808.013C1208.15 808.609 1210.73 809.005 1213.4 809.206C1216.59 810.56 1219.88 811.65 1223.23 812.459C1226.18 813.171 1229.18 813.661 1232.2 813.932C1216.5 815.304 1200.81 810.548 1189.34 799.881ZM1234.89 813.981C1234.56 813.963 1234.24 813.945 1233.91 813.927C1237.78 813.488 1241.6 812.671 1245.31 811.507C1254.33 811.104 1262.51 808.428 1269.18 803.672C1259.76 810.919 1247.81 814.554 1234.89 813.981Z" fill="#91CCF9"/>
<path d="M1220.46 825.078C1208.27 822.134 1191.3 814.625 1181.9 805.187C1179.81 803.092 1177.84 800.859 1176.06 798.541L1181.7 794.417C1183.31 796.501 1185.07 798.5 1186.94 800.38C1195.39 808.839 1205.75 814.401 1216.66 817.039C1236.64 821.865 1258.54 816.913 1274.2 802.026C1297.7 779.702 1298.86 743.233 1276.85 719.01L1282.14 714.451C1313.1 741.29 1310.05 785.138 1283.85 810.027C1266.4 826.619 1242.74 830.435 1220.46 825.053L1220.46 825.078Z" fill="#EF8031"/>
<path d="M1274.21 802.045C1258.55 816.932 1236.65 821.884 1216.67 817.058C1205.74 814.418 1195.39 808.856 1186.95 800.399C1185.07 798.519 1183.31 796.512 1181.7 794.436C1191.38 807.669 1205.75 816.995 1222.01 820.287C1224.2 820.729 1226.49 821.126 1228.89 821.453C1251.67 824.583 1267.97 814.303 1278.12 805.607C1288.28 796.914 1299.32 771.38 1296.03 749.289C1292.75 727.208 1276.86 719.029 1276.86 719.029C1298.87 743.252 1297.71 779.721 1274.21 802.045Z" fill="#DB521F"/>
<g style="mix-blend-mode:screen" opacity="0.22">
<path d="M1266.2 763.186C1251.27 775.433 1241.68 760.159 1228.95 745.439C1216.21 730.718 1184.09 723.313 1199.01 711.066C1213.95 698.813 1253.47 700.848 1266.21 715.569C1278.94 730.29 1281.12 750.939 1266.2 763.186Z" fill="#CAE8FF"/>
</g>
<g style="mix-blend-mode:screen" opacity="0.28">
<path d="M1292.98 729.836C1301.83 742.819 1304.48 766.938 1291.92 792.261C1290.51 795.008 1289.02 797.736 1287.18 800.231C1288.81 797.607 1290.2 794.855 1291.43 792.04C1299.56 773.785 1302.92 752.735 1295.02 734.017C1294.42 732.593 1293.76 731.182 1292.98 729.836Z" fill="#AAF3FF"/>
</g>
</g>
</g>
<defs>
<clipPath id="clip0_806_9311">
<rect width="1440" height="820" fill="white"/>
</clipPath>
<clipPath id="clip1_806_9311">
<rect width="134" height="155" fill="white" transform="translate(1186.4 688) rotate(13.5819)"/>
</clipPath>
</defs>
</svg>
