<svg width="73" height="72" viewBox="0 0 73 72" fill="none" xmlns="http://www.w3.org/2000/svg">
<g filter="url(#filter0_d_806_4386)">
<rect x="6.5" y="2" width="60" height="60" rx="10" fill="white"/>
<g clip-path="url(#clip0_806_4386)">
<path fill-rule="evenodd" clip-rule="evenodd" d="M42.7499 22C43.7037 22 44.4924 22.5425 45.0699 23.1125C45.6712 23.7037 46.2224 24.4987 46.7124 25.375C47.6962 27.1325 48.5524 29.4288 49.1187 31.6975C49.6812 33.9488 49.9924 36.3 49.7937 38.1488C49.5937 40.005 48.6374 42 46.4999 42C44.6549 42 43.1849 41.05 41.9824 40.0863L41.5437 39.725L40.9287 39.2062L40.3737 38.7463C39.0999 37.715 37.9687 37 36.4999 37C35.0312 37 33.8999 37.715 32.6262 38.7463L32.0712 39.2062L31.4562 39.725L31.0187 40.0863C29.8137 41.05 28.3437 42 26.4999 42C24.3612 42 23.4049 40.005 23.2062 38.1488C23.0087 36.2988 23.3187 33.9488 23.8812 31.6975C24.4474 29.4288 25.3037 27.1325 26.2874 25.3737C26.7774 24.4987 27.3287 23.7037 27.9299 23.1112C28.5074 22.5425 29.2962 22 30.2499 22C30.8937 22 31.5224 22.1537 32.1412 22.3375L32.8812 22.5638C33.0049 22.6013 33.1274 22.6388 33.2499 22.6725C34.3312 22.9825 35.4374 23.25 36.4999 23.25C37.5624 23.25 38.6687 22.9825 39.7499 22.6725L40.8562 22.3387C41.4787 22.155 42.1124 22 42.7499 22ZM42.7499 24.5C42.2712 24.5 41.7712 24.645 41.2862 24.8038L40.7137 24.9925C40.622 25.0223 40.5299 25.0506 40.4374 25.0775C39.3312 25.3925 37.9374 25.75 36.4999 25.75C35.0624 25.75 33.6687 25.3925 32.5624 25.0775L32.2874 24.9925L31.7137 24.8038C31.2287 24.6437 30.7287 24.5 30.2499 24.5C29.7274 24.5975 29.2587 25.2312 28.9049 25.8187L28.7074 26.1625L28.4699 26.595C27.6174 28.1175 26.8324 30.195 26.3074 32.3038C25.8137 34.2738 25.5737 36.1612 25.6649 37.5662L25.6974 37.9325L25.7224 38.1525L25.7599 38.4125C25.8462 38.9137 26.0324 39.5 26.4999 39.5C27.5149 39.5 28.3624 38.995 29.4162 38.1575L29.9199 37.7475L30.8699 36.9525L31.2999 36.6025C32.6299 35.5487 34.2937 34.5 36.4999 34.5C38.7062 34.5 40.3699 35.55 41.6999 36.6025L42.1312 36.9525L43.0812 37.7475L43.5837 38.1575C44.6374 38.995 45.4837 39.5 46.4999 39.5C46.9249 39.5 47.1174 39.0162 47.2137 38.5512L47.2612 38.2788L47.3074 37.8825C47.4612 36.45 47.2237 34.4263 46.6937 32.3038C46.2112 30.3713 45.5112 28.4637 44.7412 26.9862L44.2924 26.1613L44.0949 25.82C43.7412 25.2313 43.2724 24.5975 42.7499 24.5ZM32.1249 27C32.9537 27 33.7486 27.3292 34.3346 27.9153C34.9207 28.5013 35.2499 29.2962 35.2499 30.125C35.2499 30.9538 34.9207 31.7487 34.3346 32.3347C33.7486 32.9208 32.9537 33.25 32.1249 33.25C31.2961 33.25 30.5013 32.9208 29.9152 32.3347C29.3292 31.7487 28.9999 30.9538 28.9999 30.125C28.9999 29.2962 29.3292 28.5013 29.9152 27.9153C30.5013 27.3292 31.2961 27 32.1249 27ZM40.8749 27C41.1811 27 41.4766 27.1124 41.7054 27.3159C41.9342 27.5193 42.0803 27.7997 42.1162 28.1038L42.1249 28.25V28.875H42.7499C43.0685 28.8754 43.375 28.9973 43.6066 29.2161C43.8383 29.4348 43.9777 29.7337 43.9964 30.0517C44.015 30.3698 43.9116 30.683 43.7071 30.9273C43.5026 31.1716 43.2125 31.3286 42.8962 31.3663L42.7499 31.375H42.1249V32C42.1246 32.3186 42.0026 32.625 41.7839 32.8567C41.5651 33.0884 41.2662 33.2278 40.9482 33.2465C40.6301 33.2651 40.3169 33.1617 40.0726 32.9572C39.8283 32.7527 39.6713 32.4626 39.6337 32.1462L39.6249 32V31.375H38.9999C38.6813 31.3746 38.3749 31.2527 38.1432 31.0339C37.9115 30.8152 37.7721 30.5163 37.7534 30.1983C37.7348 29.8802 37.8383 29.567 38.0427 29.3227C38.2472 29.0784 38.5373 28.9214 38.8537 28.8837L38.9999 28.875H39.6249V28.25C39.6249 27.9185 39.7566 27.6005 39.991 27.3661C40.2254 27.1317 40.5434 27 40.8749 27ZM32.1249 29.5C31.9592 29.5 31.8002 29.5658 31.683 29.6831C31.5658 29.8003 31.4999 29.9592 31.4999 30.125C31.4999 30.2908 31.5658 30.4497 31.683 30.5669C31.8002 30.6842 31.9592 30.75 32.1249 30.75C32.2907 30.75 32.4496 30.6842 32.5669 30.5669C32.6841 30.4497 32.7499 30.2908 32.7499 30.125C32.7499 29.9592 32.6841 29.8003 32.5669 29.6831C32.4496 29.5658 32.2907 29.5 32.1249 29.5Z" fill="#0964D7"/>
</g>
</g>
<defs>
<filter id="filter0_d_806_4386" x="0.5" y="0" width="72" height="72" filterUnits="userSpaceOnUse" color-interpolation-filters="sRGB">
<feFlood flood-opacity="0" result="BackgroundImageFix"/>
<feColorMatrix in="SourceAlpha" type="matrix" values="0 0 0 0 0 0 0 0 0 0 0 0 0 0 0 0 0 0 127 0" result="hardAlpha"/>
<feOffset dy="4"/>
<feGaussianBlur stdDeviation="3"/>
<feComposite in2="hardAlpha" operator="out"/>
<feColorMatrix type="matrix" values="0 0 0 0 0 0 0 0 0 0 0 0 0 0 0 0 0 0 0.07 0"/>
<feBlend mode="normal" in2="BackgroundImageFix" result="effect1_dropShadow_806_4386"/>
<feBlend mode="normal" in="SourceGraphic" in2="effect1_dropShadow_806_4386" result="shape"/>
</filter>
<clipPath id="clip0_806_4386">
<rect width="30" height="30" fill="white" transform="translate(21.5 17)"/>
</clipPath>
</defs>
</svg>
