<svg width="73" height="72" viewBox="0 0 73 72" fill="none" xmlns="http://www.w3.org/2000/svg">
<g filter="url(#filter0_d_806_4353)">
<mask id="path-1-inside-1_806_4353" fill="white">
<path d="M6.5 12C6.5 6.47715 10.9772 2 16.5 2H56.5C62.0228 2 66.5 6.47715 66.5 12V52C66.5 57.5228 62.0228 62 56.5 62H16.5C10.9772 62 6.5 57.5228 6.5 52V12Z"/>
</mask>
<path d="M6.5 12C6.5 6.47715 10.9772 2 16.5 2H56.5C62.0228 2 66.5 6.47715 66.5 12V52C66.5 57.5228 62.0228 62 56.5 62H16.5C10.9772 62 6.5 57.5228 6.5 52V12Z" fill="white"/>
<path d="M6.5 2H66.5H6.5ZM66.5 52C66.5 58.0751 61.5751 63 55.5 63H17.5C11.4249 63 6.5 58.0751 6.5 52C6.5 56.9706 10.9772 61 16.5 61H56.5C62.0228 61 66.5 56.9706 66.5 52ZM6.5 62V2V62ZM66.5 2V62V2Z" fill="url(#paint0_linear_806_4353)" mask="url(#path-1-inside-1_806_4353)"/>
<path d="M45.9529 25.75C46.0201 25.3669 46.0025 24.9738 45.9016 24.5982C45.8006 24.2226 45.6187 23.8737 45.3685 23.5759C45.1184 23.2781 44.8061 23.0387 44.4536 22.8744C44.1011 22.7101 43.7169 22.625 43.3279 22.625H29.6729C29.284 22.625 28.8998 22.7101 28.5473 22.8744C28.1948 23.0387 27.8825 23.2781 27.6323 23.5759C27.3822 23.8737 27.2002 24.2226 27.0993 24.5982C26.9983 24.9738 26.9808 25.3669 27.0479 25.75M43.3754 22.625C43.4104 22.3 43.4292 22.1388 43.4292 22.005C43.4305 21.3871 43.203 20.7906 42.7905 20.3306C42.378 19.8705 41.8098 19.5796 41.1954 19.5137C41.0629 19.5 40.9004 19.5 40.5754 19.5H32.4254C32.1004 19.5 31.9367 19.5 31.8042 19.5137C31.1898 19.5796 30.6216 19.8705 30.2091 20.3306C29.7966 20.7906 29.5691 21.3871 29.5704 22.005C29.5704 22.1388 29.5879 22.3012 29.6242 22.625" stroke="#0964D7" stroke-width="1.5"/>
<path d="M40.25 39.5H32.75" stroke="#0964D7" stroke-width="1.5" stroke-linecap="round"/>
<path d="M24.4804 34.2413C23.9217 30.2863 23.6429 28.31 24.8279 27.0287C26.0129 25.75 28.1229 25.75 32.3404 25.75H40.6604C44.8779 25.75 46.9879 25.75 48.1729 27.03C49.3567 28.31 49.0779 30.2863 48.5204 34.2413L47.9929 37.9912C47.5554 41.0912 47.3367 42.6425 46.2154 43.5712C45.0942 44.5 43.4404 44.5 40.1317 44.5H32.8692C29.5617 44.5 27.9067 44.5 26.7854 43.5712C25.6642 42.6425 25.4454 41.0925 25.0079 37.9912L24.4804 34.2413Z" stroke="#0964D7" stroke-width="1.5"/>
</g>
<defs>
<filter id="filter0_d_806_4353" x="0.5" y="0" width="72" height="72" filterUnits="userSpaceOnUse" color-interpolation-filters="sRGB">
<feFlood flood-opacity="0" result="BackgroundImageFix"/>
<feColorMatrix in="SourceAlpha" type="matrix" values="0 0 0 0 0 0 0 0 0 0 0 0 0 0 0 0 0 0 127 0" result="hardAlpha"/>
<feOffset dy="4"/>
<feGaussianBlur stdDeviation="3"/>
<feComposite in2="hardAlpha" operator="out"/>
<feColorMatrix type="matrix" values="0 0 0 0 0 0 0 0 0 0 0 0 0 0 0 0 0 0 0.07 0"/>
<feBlend mode="normal" in2="BackgroundImageFix" result="effect1_dropShadow_806_4353"/>
<feBlend mode="normal" in="SourceGraphic" in2="effect1_dropShadow_806_4353" result="shape"/>
</filter>
<linearGradient id="paint0_linear_806_4353" x1="18.9792" y1="12.6829" x2="74.5603" y2="25.8246" gradientUnits="userSpaceOnUse">
<stop stop-color="#009FFF"/>
<stop offset="0.537491" stop-color="#0283D8"/>
<stop offset="1" stop-color="#0464D4"/>
</linearGradient>
</defs>
</svg>
