<svg width="73" height="72" viewBox="0 0 73 72" fill="none" xmlns="http://www.w3.org/2000/svg">
<g filter="url(#filter0_d_806_4361)">
<path d="M6.5 12C6.5 6.47715 10.9772 2 16.5 2H56.5C62.0228 2 66.5 6.47715 66.5 12V52C66.5 57.5228 62.0228 62 56.5 62H16.5C10.9772 62 6.5 57.5228 6.5 52V12Z" fill="white"/>
<path d="M46.6566 25.4375H44.9375V21.6875C44.9375 21.4389 44.8387 21.2004 44.6629 21.0246C44.4871 20.8488 44.2486 20.75 44 20.75H29C28.7514 20.75 28.5129 20.8488 28.3371 21.0246C28.1613 21.2004 28.0625 21.4389 28.0625 21.6875V25.4375H26.3434C24.7063 25.4375 23.375 26.6996 23.375 28.25V37.625C23.375 37.8736 23.4738 38.1121 23.6496 38.2879C23.8254 38.4637 24.0639 38.5625 24.3125 38.5625H28.0625V42.3125C28.0625 42.5611 28.1613 42.7996 28.3371 42.9754C28.5129 43.1512 28.7514 43.25 29 43.25H44C44.2486 43.25 44.4871 43.1512 44.6629 42.9754C44.8387 42.7996 44.9375 42.5611 44.9375 42.3125V38.5625H48.6875C48.9361 38.5625 49.1746 38.4637 49.3504 38.2879C49.5262 38.1121 49.625 37.8736 49.625 37.625V28.25C49.625 26.6996 48.2938 25.4375 46.6566 25.4375ZM29.9375 22.625H43.0625V25.4375H29.9375V22.625ZM43.0625 41.375H29.9375V35.75H43.0625V41.375ZM47.75 36.6875H44.9375V34.8125C44.9375 34.5639 44.8387 34.3254 44.6629 34.1496C44.4871 33.9738 44.2486 33.875 44 33.875H29C28.7514 33.875 28.5129 33.9738 28.3371 34.1496C28.1613 34.3254 28.0625 34.5639 28.0625 34.8125V36.6875H25.25V28.25C25.25 27.7332 25.741 27.3125 26.3434 27.3125H46.6566C47.259 27.3125 47.75 27.7332 47.75 28.25V36.6875ZM44.9375 30.5938C44.9375 30.8719 44.855 31.1438 44.7005 31.375C44.546 31.6063 44.3264 31.7865 44.0694 31.893C43.8124 31.9994 43.5297 32.0272 43.2569 31.973C42.9841 31.9187 42.7335 31.7848 42.5369 31.5881C42.3402 31.3915 42.2063 31.1409 42.152 30.8681C42.0978 30.5953 42.1256 30.3126 42.232 30.0556C42.3385 29.7986 42.5187 29.579 42.75 29.4245C42.9812 29.27 43.2531 29.1875 43.5312 29.1875C43.9042 29.1875 44.2619 29.3357 44.5256 29.5994C44.7893 29.8631 44.9375 30.2208 44.9375 30.5938Z" fill="#0964D7"/>
</g>
<defs>
<filter id="filter0_d_806_4361" x="0.5" y="0" width="72" height="72" filterUnits="userSpaceOnUse" color-interpolation-filters="sRGB">
<feFlood flood-opacity="0" result="BackgroundImageFix"/>
<feColorMatrix in="SourceAlpha" type="matrix" values="0 0 0 0 0 0 0 0 0 0 0 0 0 0 0 0 0 0 127 0" result="hardAlpha"/>
<feOffset dy="4"/>
<feGaussianBlur stdDeviation="3"/>
<feComposite in2="hardAlpha" operator="out"/>
<feColorMatrix type="matrix" values="0 0 0 0 0 0 0 0 0 0 0 0 0 0 0 0 0 0 0.07 0"/>
<feBlend mode="normal" in2="BackgroundImageFix" result="effect1_dropShadow_806_4361"/>
<feBlend mode="normal" in="SourceGraphic" in2="effect1_dropShadow_806_4361" result="shape"/>
</filter>
</defs>
</svg>
