<svg width="72" height="72" viewBox="0 0 72 72" fill="none" xmlns="http://www.w3.org/2000/svg">
<g filter="url(#filter0_d_806_4381)">
<rect x="6" y="2" width="60" height="60" rx="10" fill="white"/>
<path d="M40.2703 29.3445L34.6453 25.5945C34.5041 25.5003 34.3399 25.4462 34.1704 25.438C34.0008 25.4298 33.8322 25.4678 33.6825 25.5479C33.5328 25.628 33.4077 25.7473 33.3206 25.8929C33.2334 26.0386 33.1874 26.2052 33.1875 26.375V33.875C33.1874 34.0448 33.2334 34.2114 33.3206 34.357C33.4077 34.5027 33.5328 34.622 33.6825 34.7021C33.8322 34.7822 34.0008 34.8202 34.1704 34.812C34.3399 34.8038 34.5041 34.7497 34.6453 34.6555L40.2703 30.9055C40.3989 30.8199 40.5044 30.7039 40.5773 30.5677C40.6502 30.4315 40.6884 30.2795 40.6884 30.125C40.6884 29.9705 40.6502 29.8185 40.5773 29.6823C40.5044 29.5461 40.3989 29.4301 40.2703 29.3445ZM35.0625 32.123V28.1328L38.0602 30.125L35.0625 32.123ZM46.3125 21.6875H25.6875C25.1902 21.6875 24.7133 21.885 24.3617 22.2367C24.01 22.5883 23.8125 23.0652 23.8125 23.5625V36.6875C23.8125 37.1848 24.01 37.6617 24.3617 38.0133C24.7133 38.365 25.1902 38.5625 25.6875 38.5625H46.3125C46.8098 38.5625 47.2867 38.365 47.6383 38.0133C47.99 37.6617 48.1875 37.1848 48.1875 36.6875V23.5625C48.1875 23.0652 47.99 22.5883 47.6383 22.2367C47.2867 21.885 46.8098 21.6875 46.3125 21.6875ZM46.3125 36.6875H25.6875V23.5625H46.3125V36.6875ZM48.1875 41.375C48.1875 41.6236 48.0887 41.8621 47.9129 42.0379C47.7371 42.2137 47.4986 42.3125 47.25 42.3125H24.75C24.5014 42.3125 24.2629 42.2137 24.0871 42.0379C23.9113 41.8621 23.8125 41.6236 23.8125 41.375C23.8125 41.1264 23.9113 40.8879 24.0871 40.7121C24.2629 40.5363 24.5014 40.4375 24.75 40.4375H47.25C47.4986 40.4375 47.7371 40.5363 47.9129 40.7121C48.0887 40.8879 48.1875 41.1264 48.1875 41.375Z" fill="#0964D7"/>
</g>
<defs>
<filter id="filter0_d_806_4381" x="0" y="0" width="72" height="72" filterUnits="userSpaceOnUse" color-interpolation-filters="sRGB">
<feFlood flood-opacity="0" result="BackgroundImageFix"/>
<feColorMatrix in="SourceAlpha" type="matrix" values="0 0 0 0 0 0 0 0 0 0 0 0 0 0 0 0 0 0 127 0" result="hardAlpha"/>
<feOffset dy="4"/>
<feGaussianBlur stdDeviation="3"/>
<feComposite in2="hardAlpha" operator="out"/>
<feColorMatrix type="matrix" values="0 0 0 0 0 0 0 0 0 0 0 0 0 0 0 0 0 0 0.07 0"/>
<feBlend mode="normal" in2="BackgroundImageFix" result="effect1_dropShadow_806_4381"/>
<feBlend mode="normal" in="SourceGraphic" in2="effect1_dropShadow_806_4381" result="shape"/>
</filter>
</defs>
</svg>
